<svg width="30" height="30" viewBox="0 0 30 30" fill="none" xmlns="http://www.w3.org/2000/svg">
<path fill-rule="evenodd" clip-rule="evenodd" d="M15 0C6.7157 0 0 6.7157 0 15C0 23.2843 6.7157 30 15 30C23.2843 30 30 23.2843 30 15C30 6.7157 23.2843 0 15 0ZM21.461 11.6687H17.2239V10.4548H21.461V11.6687ZM21.0875 12.6877C21.5984 12.9123 22.0188 13.2687 22.35 13.7549C22.652 14.1837 22.8457 14.6812 22.9342 15.2464C22.986 15.5768 23.0066 16.0557 22.9981 16.6784H17.6708C17.7027 17.4014 17.9549 17.909 18.4365 18.1995C18.7282 18.3805 19.079 18.4715 19.4911 18.4715C19.9248 18.4715 20.2794 18.361 20.5513 18.1411C20.7008 18.0213 20.8325 17.8561 20.9454 17.6446H22.8974C22.8457 18.0715 22.6087 18.5067 22.1891 18.9485C21.5343 19.6491 20.6172 20 19.4384 20C18.4647 20 17.6059 19.7048 16.8636 19.1127C16.1175 18.5215 15.747 17.5583 15.747 16.2255C15.747 14.9754 16.0828 14.0167 16.7535 13.3495C17.4261 12.684 18.2964 12.349 19.3678 12.349C20.0047 12.349 20.5777 12.4622 21.0875 12.6877ZM14.794 12.5281C14.794 11.9499 14.6426 11.4543 14.3406 11.0394C13.8373 10.3638 12.984 10.0176 11.778 10H7V19.7541H11.4553C11.9577 19.7541 12.4223 19.7113 12.8523 19.6232C13.2822 19.5341 13.6538 19.3717 13.969 19.1332C14.2492 18.9253 14.4827 18.6691 14.6688 18.3657C14.9634 17.9072 15.1101 17.3885 15.1101 16.8102C15.1101 16.2496 14.9812 15.7726 14.7254 15.381C14.4667 14.9884 14.0865 14.7016 13.5823 14.5197C13.9145 14.3526 14.1656 14.167 14.3368 13.9647C14.6426 13.6028 14.794 13.123 14.794 12.5281Z" fill="#00F1B7"/>
<path fill-rule="evenodd" clip-rule="evenodd" d="M8.97083 11.6938V13.846H11.3753C11.8033 13.846 12.1523 13.7653 12.4214 13.6038C12.6886 13.4423 12.8231 13.1565 12.8231 12.7481C12.8231 12.2924 12.6462 11.9926 12.2926 11.846C11.9858 11.7448 11.5964 11.6938 11.1233 11.6938H8.97083ZM18.2276 14.3175C17.9576 14.5922 17.7873 14.9644 17.7177 15.434H21.0132C20.9784 14.9328 20.8071 14.5542 20.5042 14.2934C20.1975 14.0344 19.8203 13.9054 19.3687 13.9054C18.8796 13.9054 18.4977 14.0427 18.2276 14.3175ZM8.97083 18.0613V15.4599H11.4054C11.8287 15.4636 12.1589 15.5193 12.3941 15.6251C12.8147 15.8154 13.0235 16.1634 13.0235 16.672C13.0235 17.2715 12.8071 17.6762 12.3734 17.8896C12.1355 18.0037 11.8005 18.0613 11.3716 18.0613H8.97083Z" fill="#00F1B7"/>
</svg>
