<svg width="30" height="30" viewBox="0 0 30 30" fill="none" xmlns="http://www.w3.org/2000/svg">
<path fill-rule="evenodd" clip-rule="evenodd" d="M15 0C6.7157 0 0 6.7157 0 15C0 23.2843 6.7157 30 15 30C23.2843 30 30 23.2843 30 15C30 6.7157 23.2843 0 15 0ZM22.8368 16.5968C22.945 16.0702 23 15.5299 23 14.9889C23 14.4475 22.945 13.9061 22.8368 13.3806C22.7312 12.8665 22.575 12.3609 22.3703 11.8792C22.1703 11.4049 21.9223 10.9477 21.6325 10.5217C21.3469 10.0981 21.018 9.7017 20.6566 9.3393C20.2945 8.9789 19.896 8.6516 19.4729 8.3653C19.0456 8.07625 18.5882 7.82855 18.1139 7.62725C17.6306 7.4232 17.1248 7.26685 16.6111 7.1623C16.0837 7.05465 15.5415 7 14.9997 7C14.4574 7 13.9153 7.05465 13.3886 7.1623C12.8742 7.2668 12.3683 7.4232 11.8855 7.62725C11.4113 7.82855 10.9534 8.07625 10.526 8.3653C10.1029 8.6516 9.70445 8.9789 9.34315 9.3393C8.98145 9.7017 8.65245 10.0981 8.3666 10.5217C8.07825 10.9477 7.8297 11.4049 7.62905 11.8792C7.4243 12.3609 7.2676 12.8665 7.16175 13.3806C7.0547 13.9061 7 14.4475 7 14.9889C7 15.5299 7.0547 16.0702 7.16175 16.5968C7.2676 17.1109 7.4242 17.6157 7.6289 18.0982C7.8297 18.5722 8.07825 19.029 8.36645 19.455C8.65245 19.8783 8.9813 20.2754 9.34315 20.6374C9.70445 20.9977 10.1029 21.3258 10.526 21.6126C10.9534 21.9004 11.4111 22.1481 11.8854 22.349C12.3683 22.5526 12.8742 22.7086 13.3886 22.8139C13.9151 22.9224 14.4574 22.9778 14.9997 22.9778C15.5415 22.9778 16.0837 22.9224 16.6111 22.8139C17.1248 22.7086 17.6306 22.5526 18.1139 22.349C18.5882 22.1481 19.0456 21.9004 19.4729 21.6126C19.896 21.3258 20.2945 20.9977 20.6565 20.6374C21.018 20.2754 21.3468 19.8783 21.6323 19.455C21.9222 19.029 22.1703 18.5723 22.3703 18.0982C22.575 17.6157 22.7312 17.1109 22.8368 16.5968Z" fill="#00F1B7"/>
<path fill-rule="evenodd" clip-rule="evenodd" d="M14.9997 8.16699C16.7294 8.16699 18.3087 8.80939 19.5116 9.86854L19.511 9.86949C19.4781 9.91879 18.4998 11.3809 15.9439 12.3377C14.8107 10.2601 13.5695 8.59859 13.4022 8.37489L13.4013 8.37349L13.3898 8.35814C13.9058 8.23409 14.4445 8.16699 14.9997 8.16699ZM16.9235 14.3435C16.7818 14.0107 16.6282 13.6796 16.4696 13.3542C19.167 12.2542 20.2628 10.6732 20.2757 10.6549C21.2343 11.8169 21.8136 13.3012 21.8292 14.9184L21.8212 14.9167C21.6416 14.8794 19.3732 14.4077 17.0712 14.697C17.0232 14.5799 16.9739 14.4629 16.9235 14.3435ZM21.7448 16.07C21.4409 17.9714 20.3515 19.6128 18.8174 20.6465C18.7478 20.2353 18.3837 18.2327 17.4876 15.7736C19.6928 15.4205 21.6042 16.0248 21.7448 16.07ZM16.2075 16.0895L16.1917 16.0946C16.1818 16.0977 16.1719 16.1008 16.1621 16.1044C12.1311 17.5076 10.8148 20.3355 10.8006 20.3664C11.9604 21.2671 13.4152 21.8105 14.9997 21.8105C15.9457 21.8105 16.8469 21.6181 17.6669 21.2698C17.5657 20.6738 17.1688 18.5845 16.2075 16.0895ZM15.1875 13.7998C11.6698 14.8514 8.2942 14.7757 8.1731 14.7711L8.1709 14.8398L8.17055 14.8506C8.16905 14.8965 8.1676 14.9421 8.1676 14.9888C8.1676 16.7414 8.8297 18.3392 9.9181 19.5472C9.91575 19.5437 11.7854 16.2316 15.4723 15.041C15.5613 15.0114 15.652 14.9849 15.7418 14.9591C15.5703 14.5714 15.3832 14.1829 15.1875 13.7998ZM8.3141 13.5821C8.75745 11.4694 10.1795 9.71639 12.0846 8.81799C12.1757 8.93934 13.439 10.6514 14.6215 12.7493C11.3775 13.61 8.557 13.5843 8.32105 13.5821L8.3141 13.5821Z" fill="#00F1B7"/>
</svg>
