<svg width="50" height="50" viewBox="0 0 50 50" fill="none" xmlns="http://www.w3.org/2000/svg">
<path d="M0 18.7507L24.075 34.0726C24.35 34.2757 24.675 34.3757 25 34.3757C25.325 34.3757 25.65 34.2757 25.925 34.0726L50 18.7507L25.9375 0.313184C25.3813 -0.102441 24.6187 -0.102441 24.0625 0.313184L0 18.7507Z" fill="#00F1B7"/>
<path d="M40.625 0H9.375C7.65313 0 6.25 1.40313 6.25 3.125V37.5C6.25 38.3625 6.95 39.0625 7.8125 39.0625H42.1875C43.05 39.0625 43.75 38.3625 43.75 37.5V3.125C43.75 1.40313 42.35 0 40.625 0Z" fill="#ECEFF1"/>
<path d="M14.0625 9.375H35.9375C36.8 9.375 37.5 8.675 37.5 7.8125C37.5 6.95 36.8 6.25 35.9375 6.25H14.0625C13.2 6.25 12.5 6.95 12.5 7.8125C12.5 8.675 13.2 9.375 14.0625 9.375Z" fill="#90A4AE"/>
<path d="M35.9375 12.5H14.0625C13.2 12.5 12.5 13.2 12.5 14.0625C12.5 14.925 13.2 15.625 14.0625 15.625H35.9375C36.8 15.625 37.5 14.925 37.5 14.0625C37.5 13.2 36.8 12.5 35.9375 12.5Z" fill="#90A4AE"/>
<path d="M26.5625 18.75H14.0625C13.2 18.75 12.5 19.45 12.5 20.3125C12.5 21.175 13.2 21.875 14.0625 21.875H26.5625C27.425 21.875 28.125 21.175 28.125 20.3125C28.125 19.45 27.425 18.75 26.5625 18.75Z" fill="#90A4AE"/>
<path d="M25.925 34.0719C25.65 34.275 25.325 34.375 25 34.375C24.675 34.375 24.35 34.275 24.075 34.0719L0 18.75V46.875C0 48.6 1.4 50 3.125 50H46.875C48.6 50 50 48.6 50 46.875V18.75L25.925 34.0719Z" fill="#00CA99"/>
<path d="M46.875 50H3.125C1.37188 50 0 48.6281 0 46.875C0 46.3781 0.2375 45.9094 0.6375 45.6156L24.075 29.9906C24.35 29.7875 24.675 29.6875 25 29.6875C25.325 29.6875 25.65 29.7875 25.925 29.9906L49.3625 45.6156C49.7625 45.9094 50 46.3781 50 46.875C50 48.6281 48.6281 50 46.875 50Z" fill="#00F1B7"/>
</svg>
