<svg width="30" height="30" viewBox="0 0 30 30" fill="none" xmlns="http://www.w3.org/2000/svg">
<path fill-rule="evenodd" clip-rule="evenodd" d="M15 0C6.7157 0 0 6.7157 0 15C0 23.2843 6.7157 30 15 30C23.2843 30 30 23.2843 30 15C30 6.7157 23.2843 0 15 0ZM11.7021 7.04835C12.5552 7.0095 12.8277 7 14.9983 7C17.1716 7 17.4433 7.0095 18.2966 7.04835C19.1483 7.08735 19.73 7.22215 20.24 7.42C20.7666 7.62415 21.2117 7.8975 21.6566 8.34255C22.1017 8.78715 22.375 9.2335 22.58 9.7597C22.7766 10.2683 22.9116 10.8498 22.9517 11.7014C22.99 12.5548 23 12.8274 23 15C23 17.1728 22.99 17.4447 22.9517 18.2981C22.9116 19.1495 22.7766 19.7309 22.58 20.2398C22.375 20.7658 22.1017 21.2121 21.6566 21.6568C21.2122 22.1018 20.7665 22.3759 20.2405 22.5802C19.7314 22.778 19.1494 22.9129 18.2978 22.9519C17.4445 22.9907 17.1726 23.0002 14.9998 23.0002C12.8273 23.0002 12.5547 22.9907 11.7014 22.9519C10.8498 22.9129 10.2683 22.778 9.7594 22.5802C9.2335 22.3759 8.78725 22.1018 8.34265 21.6568C7.89785 21.2121 7.6245 20.7658 7.42005 20.2396C7.2223 19.7309 7.0875 19.1496 7.04835 18.298C7.00965 17.4446 7 17.1728 7 15C7 12.8274 7.01 12.5546 7.0482 11.7013C7.08655 10.8498 7.22155 10.2683 7.4198 9.7595C7.6249 9.2335 7.8982 8.78715 8.34315 8.34255C8.78785 7.8977 9.23415 7.62435 9.7604 7.42C10.269 7.22215 10.8504 7.08735 11.7021 7.04835Z" fill="#00F1B7"/>
<path fill-rule="evenodd" clip-rule="evenodd" d="M14.2831 8.44194C14.4225 8.44169 14.5724 8.44174 14.7341 8.44189L15.0007 8.44194C17.1368 8.44194 17.39 8.44959 18.2335 8.48789C19.0135 8.52359 19.4369 8.65389 19.7188 8.76339C20.0921 8.90844 20.3584 9.08179 20.6382 9.36174C20.9182 9.64179 21.0915 9.90844 21.2368 10.2818C21.3463 10.5634 21.4768 10.9868 21.5123 11.7668C21.5506 12.6101 21.5589 12.8634 21.5589 14.9985C21.5589 17.1335 21.5506 17.3868 21.5123 18.2302C21.4767 19.0102 21.3463 19.4335 21.2368 19.7152C21.0918 20.0885 20.9182 20.3543 20.6382 20.6342C20.3581 20.9142 20.0923 21.0876 19.7188 21.2325C19.4371 21.3426 19.0135 21.4726 18.2335 21.5082C17.3901 21.5465 17.1368 21.5549 15.0007 21.5549C12.8646 21.5549 12.6114 21.5465 11.768 21.5082C10.988 21.4722 10.5647 21.3419 10.2826 21.2324C9.90918 21.0874 9.64258 20.914 9.36253 20.6341C9.08248 20.354 8.90918 20.088 8.76388 19.7145C8.65438 19.4328 8.52393 19.0095 8.48838 18.2295C8.45003 17.3862 8.44238 17.1328 8.44238 14.9965C8.44238 12.8601 8.45003 12.6081 8.48838 11.7648C8.52403 10.9848 8.65438 10.5614 8.76388 10.2794C8.90893 9.90609 9.08248 9.63944 9.36253 9.35944C9.64258 9.07944 9.90918 8.90609 10.2826 8.76079C10.5646 8.65074 10.988 8.52074 11.768 8.48489C12.5061 8.45159 12.7921 8.44159 14.2831 8.43994V8.44194ZM19.2711 9.77024C18.7412 9.77024 18.3111 10.1997 18.3111 10.7299C18.3111 11.2599 18.7412 11.69 19.2711 11.69C19.8011 11.69 20.2312 11.2599 20.2312 10.7299C20.2312 10.1999 19.8011 9.76994 19.2711 9.77024ZM10.8924 15.0003C10.8924 12.7315 12.7319 10.8919 15.0008 10.8919C17.2695 10.8919 19.1085 12.7315 19.1085 15.0003C19.1085 17.2692 17.2696 19.1079 15.0008 19.1079C12.7319 19.1079 10.8924 17.2692 10.8924 15.0003Z" fill="#00F1B7"/>
<path fill-rule="evenodd" clip-rule="evenodd" d="M15.0008 12.3335C16.4735 12.3335 17.6675 13.5273 17.6675 15.0002C17.6675 16.4728 16.4735 17.6669 15.0008 17.6669C13.528 17.6669 12.3341 16.4728 12.3341 15.0002C12.3341 13.5273 13.528 12.3335 15.0008 12.3335Z" fill="#00F1B7"/>
</svg>
