<svg width="30" height="30" viewBox="0 0 30 30" fill="none" xmlns="http://www.w3.org/2000/svg">
<path fill-rule="evenodd" clip-rule="evenodd" d="M30 15C30 23.2843 23.2843 30 15 30C6.7157 30 0 23.2843 0 15C0 6.71575 6.7157 0 15 0C23.2843 0 30 6.71575 30 15ZM22.716 15.083C22.716 15.6376 22.6557 16.1773 22.5401 16.6985C22.8344 17.2827 23 17.9403 23 18.6367C23 21.046 21.0188 23 18.5749 23C17.8175 23 17.1063 22.8118 16.4825 22.4816C16.0292 22.5641 15.5625 22.6077 15.0847 22.6077C10.8702 22.6077 7.4535 19.2395 7.4535 15.083C7.4535 14.5655 7.5071 14.0591 7.60765 13.5714C7.22205 12.9222 7 12.1692 7 11.3643C7 8.95305 8.9812 7 11.4262 7C12.2907 7 13.0978 7.24575 13.7799 7.66955C14.2051 7.59725 14.6406 7.5592 15.0847 7.5592C19.3 7.5592 22.716 10.9284 22.716 15.083Z" fill="#00F1B7"/>
<path fill-rule="evenodd" clip-rule="evenodd" d="M18.9991 18.6793C18.6463 19.1727 18.1252 19.5622 17.4478 19.8386C16.779 20.1131 15.9775 20.2531 15.064 20.2531C13.9681 20.2531 13.049 20.063 12.3312 19.6874C11.8185 19.4148 11.3961 19.0456 11.0753 18.5875C10.7507 18.1275 10.5871 17.6704 10.5871 17.228C10.5871 16.9535 10.6943 16.7143 10.905 16.5186C11.1139 16.3239 11.382 16.2264 11.7018 16.2264C11.9634 16.2264 12.1901 16.3034 12.3735 16.4564C12.5494 16.6039 12.6999 16.8219 12.8213 17.101C12.9568 17.407 13.1035 17.6648 13.2587 17.8661C13.4093 18.0627 13.6247 18.2268 13.8994 18.3557C14.176 18.4837 14.5494 18.5504 15.0076 18.5504C15.6388 18.5504 16.1562 18.4169 16.5447 18.1554C16.9257 17.9003 17.1101 17.5925 17.1101 17.216C17.1101 16.9202 17.0132 16.6865 16.8157 16.5028C16.6068 16.3117 16.3331 16.1634 16.001 16.0595C15.6539 15.9538 15.1835 15.8379 14.6012 15.7173C13.8081 15.5504 13.1355 15.3528 12.6012 15.1275C12.0537 14.8984 11.6125 14.5804 11.2898 14.1825C10.9624 13.7773 10.7959 13.27 10.7959 12.6737C10.7959 12.1062 10.9699 11.5933 11.3142 11.1519C11.6548 10.7132 12.1534 10.3701 12.7959 10.1373C13.429 9.9064 14.1816 9.78955 15.0349 9.78955C15.7159 9.78955 16.3152 9.86745 16.8157 10.0214C17.319 10.1754 17.7423 10.3831 18.0753 10.64C18.4111 10.8996 18.6614 11.1751 18.8175 11.4626C18.9756 11.7528 19.0565 12.0412 19.0565 12.3204C19.0565 12.5893 18.9511 12.8341 18.7432 13.0465C18.5344 13.2617 18.27 13.3702 17.9596 13.3702C17.6774 13.3702 17.4554 13.3015 17.303 13.168C17.16 13.0428 17.0113 12.8481 16.8467 12.5698C16.6567 12.2137 16.4262 11.9327 16.1618 11.7343C15.905 11.5414 15.477 11.4449 14.8872 11.4449C14.3415 11.4449 13.8956 11.5525 13.5654 11.7667C13.2475 11.9717 13.0922 12.2082 13.0922 12.4882C13.0922 12.6589 13.1421 12.8026 13.2456 12.925C13.3528 13.0567 13.5062 13.1698 13.6999 13.2663C13.9003 13.3655 14.1073 13.4453 14.3142 13.5009C14.5259 13.5593 14.8815 13.6456 15.3698 13.7569C15.9878 13.8867 16.5551 14.0342 17.0565 14.1927C17.5654 14.3523 18.0038 14.5489 18.3632 14.7798C18.7282 15.0144 19.017 15.3149 19.223 15.6747C19.429 16.0373 19.5334 16.4824 19.5334 17.0008C19.5334 17.6203 19.3528 18.1851 18.9991 18.6793Z" fill="#00F1B7"/>
</svg>
