<svg width="648" height="568" viewBox="0 0 648 568" fill="none" xmlns="http://www.w3.org/2000/svg">
<path d="M75.318 111.884H77.8906V123H75.318V111.884ZM85.5467 114.33C86.6054 114.33 87.4576 114.647 88.1034 115.282C88.7598 115.918 89.088 116.86 89.088 118.109V123H86.6107V118.49C86.6107 117.813 86.4625 117.31 86.1661 116.981C85.8696 116.643 85.4409 116.473 84.8798 116.473C84.2552 116.473 83.7576 116.669 83.3871 117.061C83.0165 117.442 82.8313 118.014 82.8313 118.776V123H80.354V114.457H82.7201V115.457C83.0483 115.097 83.4559 114.822 83.9429 114.631C84.4299 114.43 84.9645 114.33 85.5467 114.33ZM94.049 114.647H96.2404V116.553H94.1125V123H91.6352V116.553H90.3172V114.647H91.6352V114.266C91.6352 113.292 91.9211 112.519 92.4928 111.948C93.075 111.376 93.8902 111.09 94.9383 111.09C95.3088 111.09 95.6582 111.132 95.9864 111.217C96.3251 111.291 96.6057 111.402 96.828 111.551L96.1769 113.345C95.8911 113.144 95.5576 113.043 95.1765 113.043C94.4248 113.043 94.049 113.456 94.049 114.282V114.647ZM101.431 123.127C100.531 123.127 99.7216 122.942 99.0017 122.571C98.2924 122.19 97.7366 121.666 97.3343 120.999C96.932 120.332 96.7309 119.575 96.7309 118.728C96.7309 117.881 96.932 117.124 97.3343 116.457C97.7366 115.79 98.2924 115.272 99.0017 114.901C99.7216 114.52 100.531 114.33 101.431 114.33C102.331 114.33 103.136 114.52 103.845 114.901C104.554 115.272 105.11 115.79 105.512 116.457C105.915 117.124 106.116 117.881 106.116 118.728C106.116 119.575 105.915 120.332 105.512 120.999C105.11 121.666 104.554 122.19 103.845 122.571C103.136 122.942 102.331 123.127 101.431 123.127ZM101.431 121.094C102.067 121.094 102.585 120.883 102.988 120.459C103.4 120.025 103.607 119.448 103.607 118.728C103.607 118.008 103.4 117.437 102.988 117.013C102.585 116.579 102.067 116.362 101.431 116.362C100.796 116.362 100.272 116.579 99.8592 117.013C99.4463 117.437 99.2399 118.008 99.2399 118.728C99.2399 119.448 99.4463 120.025 99.8592 120.459C100.272 120.883 100.796 121.094 101.431 121.094ZM110.646 123.127C109.937 123.127 109.243 123.042 108.566 122.873C107.888 122.693 107.348 122.471 106.946 122.206L107.772 120.427C108.153 120.671 108.613 120.872 109.153 121.031C109.693 121.179 110.223 121.253 110.741 121.253C111.789 121.253 112.313 120.994 112.313 120.475C112.313 120.232 112.171 120.057 111.885 119.951C111.599 119.845 111.16 119.755 110.567 119.681C109.868 119.575 109.291 119.453 108.836 119.316C108.381 119.178 107.984 118.935 107.645 118.585C107.317 118.236 107.152 117.738 107.152 117.093C107.152 116.553 107.306 116.076 107.613 115.663C107.931 115.24 108.386 114.912 108.979 114.679C109.582 114.446 110.291 114.33 111.107 114.33C111.71 114.33 112.308 114.398 112.901 114.536C113.504 114.663 114.002 114.843 114.394 115.076L113.568 116.839C112.816 116.415 111.996 116.203 111.107 116.203C110.577 116.203 110.18 116.277 109.916 116.426C109.651 116.574 109.519 116.764 109.519 116.997C109.519 117.262 109.662 117.447 109.947 117.553C110.233 117.659 110.688 117.76 111.313 117.855C112.012 117.971 112.583 118.098 113.028 118.236C113.473 118.363 113.859 118.601 114.187 118.951C114.516 119.3 114.68 119.787 114.68 120.412C114.68 120.941 114.521 121.412 114.203 121.825C113.886 122.238 113.42 122.561 112.806 122.794C112.202 123.016 111.482 123.127 110.646 123.127ZM124.533 114.457L120.674 123.524C120.282 124.509 119.795 125.202 119.213 125.604C118.641 126.007 117.948 126.208 117.133 126.208C116.688 126.208 116.249 126.139 115.815 126.001C115.381 125.864 115.026 125.673 114.751 125.43L115.656 123.667C115.847 123.836 116.064 123.969 116.307 124.064C116.561 124.159 116.81 124.207 117.053 124.207C117.392 124.207 117.667 124.122 117.879 123.953C118.091 123.794 118.281 123.524 118.451 123.143L118.483 123.064L114.783 114.457H117.339L119.737 120.253L122.151 114.457H124.533ZM128.294 123.127C127.585 123.127 126.891 123.042 126.214 122.873C125.536 122.693 124.996 122.471 124.594 122.206L125.42 120.427C125.801 120.671 126.261 120.872 126.801 121.031C127.341 121.179 127.871 121.253 128.389 121.253C129.437 121.253 129.961 120.994 129.961 120.475C129.961 120.232 129.818 120.057 129.533 119.951C129.247 119.845 128.807 119.755 128.215 119.681C127.516 119.575 126.939 119.453 126.484 119.316C126.028 119.178 125.631 118.935 125.293 118.585C124.964 118.236 124.8 117.738 124.8 117.093C124.8 116.553 124.954 116.076 125.261 115.663C125.578 115.24 126.034 114.912 126.627 114.679C127.23 114.446 127.939 114.33 128.754 114.33C129.358 114.33 129.956 114.398 130.549 114.536C131.152 114.663 131.65 114.843 132.042 115.076L131.216 116.839C130.464 116.415 129.644 116.203 128.754 116.203C128.225 116.203 127.828 116.277 127.563 116.426C127.299 116.574 127.166 116.764 127.166 116.997C127.166 117.262 127.309 117.447 127.595 117.553C127.881 117.659 128.336 117.76 128.961 117.855C129.66 117.971 130.231 118.098 130.676 118.236C131.121 118.363 131.507 118.601 131.835 118.951C132.163 119.3 132.327 119.787 132.327 120.412C132.327 120.941 132.169 121.412 131.851 121.825C131.533 122.238 131.068 122.561 130.454 122.794C129.85 123.016 129.13 123.127 128.294 123.127ZM138.528 111.884H141.1V120.904H146.674V123H138.528V111.884ZM153.37 122.587C153.126 122.767 152.825 122.905 152.465 123C152.115 123.085 151.745 123.127 151.353 123.127C150.337 123.127 149.548 122.868 148.987 122.349C148.436 121.83 148.161 121.068 148.161 120.062V116.553H146.843V114.647H148.161V112.567H150.638V114.647H152.766V116.553H150.638V120.03C150.638 120.39 150.728 120.671 150.908 120.872C151.099 121.063 151.364 121.158 151.702 121.158C152.094 121.158 152.428 121.052 152.703 120.84L153.37 122.587ZM163.199 111.217V123H160.833V122.015C160.219 122.757 159.33 123.127 158.165 123.127C157.361 123.127 156.63 122.947 155.974 122.587C155.328 122.227 154.82 121.714 154.449 121.047C154.079 120.38 153.893 119.607 153.893 118.728C153.893 117.85 154.079 117.077 154.449 116.41C154.82 115.743 155.328 115.229 155.974 114.869C156.63 114.509 157.361 114.33 158.165 114.33C159.256 114.33 160.108 114.674 160.722 115.362V111.217H163.199ZM158.594 121.094C159.218 121.094 159.737 120.883 160.15 120.459C160.563 120.025 160.769 119.448 160.769 118.728C160.769 118.008 160.563 117.437 160.15 117.013C159.737 116.579 159.218 116.362 158.594 116.362C157.959 116.362 157.435 116.579 157.022 117.013C156.609 117.437 156.402 118.008 156.402 118.728C156.402 119.448 156.609 120.025 157.022 120.459C157.435 120.883 157.959 121.094 158.594 121.094ZM79.9709 130.884C81.3895 130.884 82.5011 131.223 83.3057 131.9C84.1103 132.578 84.5126 133.509 84.5126 134.695C84.5126 135.881 84.1103 136.813 83.3057 137.49C82.5011 138.157 81.3895 138.491 79.9709 138.491H76.9854V142H75.8103V130.884H79.9709ZM79.9391 137.458C81.0401 137.458 81.8818 137.22 82.464 136.744C83.0463 136.257 83.3374 135.574 83.3374 134.695C83.3374 133.795 83.0463 133.107 82.464 132.631C81.8818 132.144 81.0401 131.9 79.9391 131.9H76.9854V137.458H79.9391ZM94.4975 133.647V142H93.4176V140.476C93.1212 140.984 92.7136 141.381 92.1949 141.667C91.6761 141.942 91.0833 142.079 90.4163 142.079C89.3259 142.079 88.4631 141.778 87.8279 141.174C87.2033 140.56 86.891 139.666 86.891 138.491V133.647H88.0184V138.379C88.0184 139.258 88.2355 139.925 88.6695 140.38C89.1036 140.835 89.7229 141.063 90.5275 141.063C91.4062 141.063 92.0996 140.798 92.6078 140.269C93.1159 139.729 93.37 138.983 93.37 138.03V133.647H94.4975ZM101.911 133.584C102.959 133.584 103.79 133.891 104.404 134.505C105.029 135.108 105.341 135.992 105.341 137.157V142H104.214V137.268C104.214 136.4 103.997 135.738 103.563 135.283C103.129 134.828 102.509 134.6 101.705 134.6C100.805 134.6 100.09 134.87 99.5608 135.41C99.0421 135.939 98.7827 136.675 98.7827 137.617V142H97.6552V133.647H98.7351V135.187C99.0421 134.679 99.4656 134.288 100.005 134.012C100.556 133.727 101.191 133.584 101.911 133.584ZM115.706 138.173H108.719C108.783 139.041 109.116 139.745 109.719 140.285C110.323 140.814 111.085 141.079 112.006 141.079C112.525 141.079 113.001 140.989 113.435 140.809C113.869 140.618 114.245 140.343 114.563 139.983L115.198 140.714C114.828 141.158 114.362 141.497 113.801 141.73C113.25 141.963 112.641 142.079 111.974 142.079C111.117 142.079 110.355 141.899 109.688 141.539C109.031 141.169 108.518 140.661 108.147 140.015C107.777 139.369 107.592 138.639 107.592 137.824C107.592 137.008 107.766 136.278 108.116 135.632C108.476 134.986 108.963 134.483 109.577 134.124C110.201 133.764 110.9 133.584 111.673 133.584C112.446 133.584 113.139 133.764 113.753 134.124C114.367 134.483 114.849 134.986 115.198 135.632C115.547 136.267 115.722 136.998 115.722 137.824L115.706 138.173ZM111.673 134.552C110.868 134.552 110.191 134.812 109.64 135.33C109.1 135.839 108.793 136.506 108.719 137.331H114.642C114.568 136.506 114.256 135.839 113.705 135.33C113.165 134.812 112.488 134.552 111.673 134.552Z" fill="white"/>
<path d="M81.1572 159.225C81.1572 160.127 80.8314 160.838 80.1797 161.357C79.5326 161.877 78.6302 162.137 77.4727 162.137C76.4062 162.137 75.4629 161.936 74.6426 161.535V159.566C75.3171 159.867 75.8867 160.079 76.3516 160.202C76.821 160.325 77.2493 160.387 77.6367 160.387C78.1016 160.387 78.457 160.298 78.7031 160.12C78.9538 159.942 79.0791 159.678 79.0791 159.327C79.0791 159.131 79.0244 158.958 78.915 158.808C78.8057 158.653 78.6439 158.505 78.4297 158.363C78.2201 158.222 77.7894 157.996 77.1377 157.687C76.527 157.399 76.069 157.124 75.7637 156.859C75.4583 156.595 75.2145 156.287 75.0322 155.937C74.8499 155.586 74.7588 155.175 74.7588 154.706C74.7588 153.822 75.0573 153.127 75.6543 152.621C76.2559 152.115 77.0853 151.862 78.1426 151.862C78.6621 151.862 79.1566 151.924 79.626 152.047C80.0999 152.17 80.5944 152.343 81.1094 152.566L80.4258 154.214C79.8926 153.995 79.4505 153.842 79.0996 153.756C78.7533 153.669 78.4115 153.626 78.0742 153.626C77.6732 153.626 77.3656 153.719 77.1514 153.906C76.9372 154.093 76.8301 154.337 76.8301 154.638C76.8301 154.825 76.8734 154.989 76.96 155.13C77.0465 155.267 77.1833 155.401 77.3701 155.533C77.5615 155.661 78.0104 155.893 78.7168 156.23C79.651 156.677 80.2913 157.126 80.6377 157.577C80.984 158.024 81.1572 158.573 81.1572 159.225ZM81.7109 154.357H83.9941L85.4365 158.657C85.5596 159.031 85.6439 159.473 85.6895 159.983H85.7305C85.7806 159.514 85.8786 159.072 86.0244 158.657L87.4395 154.357H89.6748L86.4414 162.978C86.1452 163.775 85.7214 164.372 85.1699 164.769C84.623 165.165 83.9827 165.363 83.249 165.363C82.889 165.363 82.5358 165.325 82.1895 165.247V163.593C82.4401 163.652 82.7135 163.682 83.0098 163.682C83.3789 163.682 83.7002 163.568 83.9736 163.34C84.2516 163.117 84.4681 162.777 84.623 162.321L84.7461 161.945L81.7109 154.357ZM96.1074 159.73C96.1074 160.514 95.834 161.111 95.2871 161.521C94.7448 161.932 93.9313 162.137 92.8467 162.137C92.2907 162.137 91.8167 162.098 91.4248 162.021C91.0329 161.948 90.666 161.838 90.3242 161.692V159.97C90.7116 160.152 91.1468 160.305 91.6299 160.428C92.1175 160.551 92.5459 160.612 92.915 160.612C93.6715 160.612 94.0498 160.394 94.0498 159.956C94.0498 159.792 93.9997 159.66 93.8994 159.56C93.7992 159.455 93.626 159.339 93.3799 159.211C93.1338 159.079 92.8057 158.926 92.3955 158.753C91.8076 158.507 91.3747 158.279 91.0967 158.069C90.8232 157.86 90.6227 157.62 90.4951 157.352C90.3721 157.078 90.3105 156.743 90.3105 156.347C90.3105 155.668 90.5726 155.144 91.0967 154.774C91.6253 154.401 92.3727 154.214 93.3389 154.214C94.2594 154.214 95.1549 154.414 96.0254 154.815L95.3965 156.319C95.0137 156.155 94.6559 156.021 94.3232 155.916C93.9906 155.811 93.651 155.759 93.3047 155.759C92.6895 155.759 92.3818 155.925 92.3818 156.258C92.3818 156.445 92.4798 156.606 92.6758 156.743C92.8763 156.88 93.3115 157.083 93.9814 157.352C94.5785 157.593 95.016 157.819 95.2939 158.028C95.5719 158.238 95.777 158.479 95.9092 158.753C96.0413 159.026 96.1074 159.352 96.1074 159.73ZM100.954 160.476C101.319 160.476 101.756 160.396 102.267 160.236V161.788C101.747 162.021 101.109 162.137 100.353 162.137C99.5186 162.137 98.9102 161.927 98.5273 161.508C98.1491 161.084 97.96 160.451 97.96 159.607V155.923H96.9619V155.041L98.1104 154.344L98.7119 152.73H100.045V154.357H102.185V155.923H100.045V159.607C100.045 159.904 100.127 160.122 100.291 160.264C100.46 160.405 100.681 160.476 100.954 160.476ZM106.983 155.697C106.541 155.697 106.195 155.839 105.944 156.121C105.694 156.399 105.55 156.796 105.514 157.311H108.439C108.43 156.796 108.296 156.399 108.036 156.121C107.776 155.839 107.425 155.697 106.983 155.697ZM107.277 162.137C106.047 162.137 105.085 161.797 104.393 161.118C103.7 160.439 103.354 159.478 103.354 158.233C103.354 156.953 103.673 155.964 104.311 155.267C104.953 154.565 105.84 154.214 106.97 154.214C108.05 154.214 108.891 154.521 109.492 155.137C110.094 155.752 110.395 156.602 110.395 157.687V158.698H105.466C105.489 159.291 105.664 159.753 105.992 160.086C106.32 160.419 106.781 160.585 107.373 160.585C107.833 160.585 108.269 160.537 108.679 160.441C109.089 160.346 109.517 160.193 109.964 159.983V161.597C109.599 161.779 109.21 161.913 108.795 162C108.38 162.091 107.874 162.137 107.277 162.137ZM118.933 162H116.848V157.536C116.848 156.985 116.754 156.572 116.567 156.299C116.385 156.021 116.096 155.882 115.699 155.882C115.166 155.882 114.779 156.078 114.537 156.47C114.296 156.862 114.175 157.507 114.175 158.404V162H112.09V154.357H113.683L113.963 155.335H114.079C114.284 154.984 114.58 154.711 114.968 154.515C115.355 154.314 115.799 154.214 116.301 154.214C117.445 154.214 118.219 154.588 118.625 155.335H118.81C119.015 154.979 119.315 154.704 119.712 154.508C120.113 154.312 120.564 154.214 121.065 154.214C121.931 154.214 122.585 154.437 123.027 154.884C123.474 155.326 123.697 156.037 123.697 157.017V162H121.605V157.536C121.605 156.985 121.512 156.572 121.325 156.299C121.143 156.021 120.854 155.882 120.457 155.882C119.947 155.882 119.564 156.064 119.309 156.429C119.058 156.793 118.933 157.372 118.933 158.165V162ZM131.176 159.73C131.176 160.514 130.902 161.111 130.355 161.521C129.813 161.932 129 162.137 127.915 162.137C127.359 162.137 126.885 162.098 126.493 162.021C126.101 161.948 125.734 161.838 125.393 161.692V159.97C125.78 160.152 126.215 160.305 126.698 160.428C127.186 160.551 127.614 160.612 127.983 160.612C128.74 160.612 129.118 160.394 129.118 159.956C129.118 159.792 129.068 159.66 128.968 159.56C128.868 159.455 128.694 159.339 128.448 159.211C128.202 159.079 127.874 158.926 127.464 158.753C126.876 158.507 126.443 158.279 126.165 158.069C125.892 157.86 125.691 157.62 125.563 157.352C125.44 157.078 125.379 156.743 125.379 156.347C125.379 155.668 125.641 155.144 126.165 154.774C126.694 154.401 127.441 154.214 128.407 154.214C129.328 154.214 130.223 154.414 131.094 154.815L130.465 156.319C130.082 156.155 129.724 156.021 129.392 155.916C129.059 155.811 128.719 155.759 128.373 155.759C127.758 155.759 127.45 155.925 127.45 156.258C127.45 156.445 127.548 156.606 127.744 156.743C127.945 156.88 128.38 157.083 129.05 157.352C129.647 157.593 130.084 157.819 130.362 158.028C130.64 158.238 130.845 158.479 130.978 158.753C131.11 159.026 131.176 159.352 131.176 159.73ZM142.359 162H136.604V152.006H142.359V153.742H138.723V155.937H142.106V157.673H138.723V160.25H142.359V162ZM151.342 162H149.257V157.536C149.257 156.985 149.159 156.572 148.963 156.299C148.767 156.021 148.455 155.882 148.026 155.882C147.443 155.882 147.021 156.078 146.762 156.47C146.502 156.857 146.372 157.502 146.372 158.404V162H144.287V154.357H145.88L146.16 155.335H146.276C146.509 154.966 146.828 154.688 147.233 154.501C147.644 154.31 148.108 154.214 148.628 154.214C149.517 154.214 150.191 154.455 150.651 154.938C151.112 155.417 151.342 156.11 151.342 157.017V162ZM160.14 154.357V155.417L158.943 155.725C159.162 156.066 159.271 156.449 159.271 156.873C159.271 157.693 158.984 158.334 158.41 158.794C157.84 159.25 157.048 159.478 156.031 159.478L155.655 159.457L155.348 159.423C155.133 159.587 155.026 159.769 155.026 159.97C155.026 160.271 155.409 160.421 156.175 160.421H157.474C158.312 160.421 158.95 160.601 159.388 160.961C159.83 161.321 160.051 161.85 160.051 162.547C160.051 163.44 159.677 164.133 158.93 164.625C158.187 165.117 157.118 165.363 155.724 165.363C154.657 165.363 153.841 165.176 153.276 164.803C152.716 164.434 152.436 163.914 152.436 163.244C152.436 162.784 152.579 162.399 152.866 162.089C153.153 161.779 153.575 161.558 154.131 161.426C153.917 161.335 153.73 161.187 153.57 160.981C153.411 160.772 153.331 160.551 153.331 160.318C153.331 160.027 153.415 159.785 153.584 159.594C153.753 159.398 153.996 159.206 154.315 159.02C153.914 158.846 153.595 158.568 153.358 158.186C153.126 157.803 153.01 157.352 153.01 156.832C153.01 155.998 153.281 155.353 153.823 154.897C154.366 154.442 155.14 154.214 156.147 154.214C156.362 154.214 156.615 154.234 156.906 154.275C157.202 154.312 157.392 154.339 157.474 154.357H160.14ZM154.24 163.08C154.24 163.367 154.377 163.593 154.65 163.757C154.928 163.921 155.316 164.003 155.812 164.003C156.56 164.003 157.146 163.9 157.569 163.695C157.993 163.49 158.205 163.21 158.205 162.854C158.205 162.567 158.08 162.369 157.829 162.26C157.578 162.15 157.191 162.096 156.667 162.096H155.587C155.204 162.096 154.883 162.185 154.623 162.362C154.368 162.545 154.24 162.784 154.24 163.08ZM154.999 156.859C154.999 157.274 155.092 157.602 155.279 157.844C155.471 158.085 155.76 158.206 156.147 158.206C156.539 158.206 156.826 158.085 157.009 157.844C157.191 157.602 157.282 157.274 157.282 156.859C157.282 155.939 156.904 155.479 156.147 155.479C155.382 155.479 154.999 155.939 154.999 156.859ZM161.315 152.382C161.315 151.703 161.694 151.363 162.45 151.363C163.207 151.363 163.585 151.703 163.585 152.382C163.585 152.705 163.489 152.958 163.298 153.141C163.111 153.318 162.828 153.407 162.45 153.407C161.694 153.407 161.315 153.065 161.315 152.382ZM163.489 162H161.404V154.357H163.489V162ZM172.738 162H170.653V157.536C170.653 156.985 170.555 156.572 170.359 156.299C170.163 156.021 169.851 155.882 169.423 155.882C168.84 155.882 168.418 156.078 168.158 156.47C167.898 156.857 167.769 157.502 167.769 158.404V162H165.684V154.357H167.276L167.557 155.335H167.673C167.905 154.966 168.224 154.688 168.63 154.501C169.04 154.31 169.505 154.214 170.024 154.214C170.913 154.214 171.588 154.455 172.048 154.938C172.508 155.417 172.738 156.11 172.738 157.017V162ZM181.939 162H179.854V157.536C179.854 156.985 179.757 156.572 179.561 156.299C179.365 156.021 179.052 155.882 178.624 155.882C178.041 155.882 177.619 156.078 177.359 156.47C177.1 156.857 176.97 157.502 176.97 158.404V162H174.885V154.357H176.478L176.758 155.335H176.874C177.106 154.966 177.425 154.688 177.831 154.501C178.241 154.31 178.706 154.214 179.226 154.214C180.114 154.214 180.789 154.455 181.249 154.938C181.709 155.417 181.939 156.11 181.939 157.017V162ZM187.251 155.697C186.809 155.697 186.463 155.839 186.212 156.121C185.961 156.399 185.818 156.796 185.781 157.311H188.707C188.698 156.796 188.563 156.399 188.304 156.121C188.044 155.839 187.693 155.697 187.251 155.697ZM187.545 162.137C186.314 162.137 185.353 161.797 184.66 161.118C183.967 160.439 183.621 159.478 183.621 158.233C183.621 156.953 183.94 155.964 184.578 155.267C185.221 154.565 186.107 154.214 187.237 154.214C188.317 154.214 189.158 154.521 189.76 155.137C190.361 155.752 190.662 156.602 190.662 157.687V158.698H185.733C185.756 159.291 185.932 159.753 186.26 160.086C186.588 160.419 187.048 160.585 187.641 160.585C188.101 160.585 188.536 160.537 188.946 160.441C189.356 160.346 189.785 160.193 190.231 159.983V161.597C189.867 161.779 189.477 161.913 189.062 162C188.648 162.091 188.142 162.137 187.545 162.137ZM196.623 154.214C196.906 154.214 197.14 154.234 197.327 154.275L197.17 156.23C197.001 156.185 196.796 156.162 196.555 156.162C195.889 156.162 195.37 156.333 194.996 156.675C194.627 157.017 194.442 157.495 194.442 158.11V162H192.357V154.357H193.937L194.244 155.643H194.347C194.584 155.214 194.903 154.87 195.304 154.61C195.709 154.346 196.149 154.214 196.623 154.214Z" fill="white"/>
<path d="M1.91797 539.632C1.48958 539.632 1.15234 539.57 0.90625 539.447V538.456C1.22982 538.547 1.56706 538.593 1.91797 538.593C2.36914 538.593 2.71094 538.456 2.94336 538.183C3.18034 537.909 3.29883 537.515 3.29883 537V527.006H4.46094V536.904C4.46094 537.77 4.24219 538.44 3.80469 538.914C3.36719 539.393 2.73828 539.632 1.91797 539.632ZM11.5566 537L11.3311 535.934H11.2764C10.9027 536.403 10.529 536.722 10.1553 536.891C9.78613 537.055 9.32357 537.137 8.76758 537.137C8.02474 537.137 7.44141 536.945 7.01758 536.562C6.59831 536.18 6.38867 535.635 6.38867 534.929C6.38867 533.416 7.59863 532.623 10.0186 532.55L11.29 532.509V532.044C11.29 531.456 11.1624 531.023 10.9072 530.745C10.6566 530.463 10.2533 530.321 9.69727 530.321C9.07292 530.321 8.36654 530.513 7.57812 530.896L7.22949 530.027C7.59863 529.827 8.00195 529.67 8.43945 529.556C8.88151 529.442 9.32357 529.385 9.76562 529.385C10.6589 529.385 11.3197 529.583 11.748 529.979C12.181 530.376 12.3975 531.012 12.3975 531.887V537H11.5566ZM8.99316 536.2C9.69954 536.2 10.2533 536.007 10.6543 535.619C11.0599 535.232 11.2627 534.689 11.2627 533.992V533.315L10.1279 533.363C9.22559 533.395 8.57389 533.536 8.17285 533.787C7.77637 534.033 7.57812 534.418 7.57812 534.942C7.57812 535.353 7.70117 535.665 7.94727 535.879C8.19792 536.093 8.54655 536.2 8.99316 536.2ZM19.8691 537V532.153C19.8691 531.543 19.7301 531.087 19.4521 530.786C19.1742 530.485 18.7389 530.335 18.1465 530.335C17.3626 530.335 16.7884 530.547 16.4238 530.971C16.0592 531.395 15.877 532.094 15.877 533.069V537H14.7422V529.508H15.665L15.8496 530.533H15.9043C16.1367 530.164 16.4626 529.879 16.8818 529.679C17.3011 529.474 17.7682 529.371 18.2832 529.371C19.1855 529.371 19.8646 529.59 20.3203 530.027C20.776 530.46 21.0039 531.155 21.0039 532.112V537H19.8691ZM33.0283 537H26.459V536.022L29.0908 533.377C29.8929 532.566 30.4215 531.987 30.6768 531.641C30.932 531.294 31.1234 530.957 31.251 530.629C31.3786 530.301 31.4424 529.948 31.4424 529.569C31.4424 529.036 31.2806 528.615 30.957 528.305C30.6335 527.99 30.1846 527.833 29.6104 527.833C29.1956 527.833 28.8014 527.901 28.4277 528.038C28.0586 528.175 27.6462 528.423 27.1904 528.783L26.5889 528.011C27.5094 527.245 28.512 526.862 29.5967 526.862C30.5355 526.862 31.2715 527.104 31.8047 527.587C32.3379 528.065 32.6045 528.71 32.6045 529.521C32.6045 530.155 32.4268 530.782 32.0713 531.401C31.7158 532.021 31.0505 532.805 30.0752 533.753L27.8877 535.893V535.947H33.0283V537ZM41.0947 531.989C41.0947 533.716 40.8213 535.006 40.2744 535.858C39.7321 536.711 38.9004 537.137 37.7793 537.137C36.7038 537.137 35.8857 536.701 35.3252 535.831C34.7646 534.956 34.4844 533.675 34.4844 531.989C34.4844 530.248 34.7555 528.956 35.2979 528.113C35.8402 527.27 36.6673 526.849 37.7793 526.849C38.8639 526.849 39.6865 527.288 40.2471 528.168C40.8122 529.048 41.0947 530.321 41.0947 531.989ZM35.6328 531.989C35.6328 533.443 35.8037 534.503 36.1455 535.168C36.4873 535.829 37.0319 536.159 37.7793 536.159C38.5358 536.159 39.0827 535.824 39.4199 535.154C39.7617 534.48 39.9326 533.425 39.9326 531.989C39.9326 530.554 39.7617 529.503 39.4199 528.838C39.0827 528.168 38.5358 527.833 37.7793 527.833C37.0319 527.833 36.4873 528.163 36.1455 528.824C35.8037 529.48 35.6328 530.535 35.6328 531.989ZM46.6865 537H45.5791V529.877C45.5791 529.285 45.5973 528.724 45.6338 528.195C45.5381 528.291 45.431 528.391 45.3125 528.496C45.194 528.601 44.6517 529.045 43.6855 529.829L43.084 529.05L45.7295 527.006H46.6865V537ZM51.7588 537L55.9014 528.052H50.4531V527.006H57.1045V527.915L53.0166 537H51.7588Z" fill="white"/>
<path d="M91.318 501.884H93.8906V513H91.318V501.884ZM101.547 504.33C102.605 504.33 103.458 504.647 104.103 505.282C104.76 505.918 105.088 506.86 105.088 508.109V513H102.611V508.49C102.611 507.813 102.462 507.31 102.166 506.981C101.87 506.643 101.441 506.473 100.88 506.473C100.255 506.473 99.7576 506.669 99.3871 507.061C99.0165 507.442 98.8313 508.014 98.8313 508.776V513H96.354V504.457H98.7201V505.457C99.0483 505.097 99.4559 504.822 99.9429 504.631C100.43 504.43 100.964 504.33 101.547 504.33ZM110.049 504.647H112.24V506.553H110.113V513H107.635V506.553H106.317V504.647H107.635V504.266C107.635 503.292 107.921 502.519 108.493 501.948C109.075 501.376 109.89 501.09 110.938 501.09C111.309 501.09 111.658 501.132 111.986 501.217C112.325 501.291 112.606 501.402 112.828 501.551L112.177 503.345C111.891 503.144 111.558 503.043 111.176 503.043C110.425 503.043 110.049 503.456 110.049 504.282V504.647ZM117.431 513.127C116.531 513.127 115.722 512.942 115.002 512.571C114.292 512.19 113.737 511.666 113.334 510.999C112.932 510.332 112.731 509.575 112.731 508.728C112.731 507.881 112.932 507.124 113.334 506.457C113.737 505.79 114.292 505.272 115.002 504.901C115.722 504.52 116.531 504.33 117.431 504.33C118.331 504.33 119.136 504.52 119.845 504.901C120.554 505.272 121.11 505.79 121.512 506.457C121.915 507.124 122.116 507.881 122.116 508.728C122.116 509.575 121.915 510.332 121.512 510.999C121.11 511.666 120.554 512.19 119.845 512.571C119.136 512.942 118.331 513.127 117.431 513.127ZM117.431 511.094C118.067 511.094 118.585 510.883 118.988 510.459C119.4 510.025 119.607 509.448 119.607 508.728C119.607 508.008 119.4 507.437 118.988 507.013C118.585 506.579 118.067 506.362 117.431 506.362C116.796 506.362 116.272 506.579 115.859 507.013C115.446 507.437 115.24 508.008 115.24 508.728C115.24 509.448 115.446 510.025 115.859 510.459C116.272 510.883 116.796 511.094 117.431 511.094ZM126.646 513.127C125.937 513.127 125.243 513.042 124.566 512.873C123.888 512.693 123.348 512.471 122.946 512.206L123.772 510.427C124.153 510.671 124.613 510.872 125.153 511.031C125.693 511.179 126.223 511.253 126.741 511.253C127.789 511.253 128.313 510.994 128.313 510.475C128.313 510.232 128.171 510.057 127.885 509.951C127.599 509.845 127.16 509.755 126.567 509.681C125.868 509.575 125.291 509.453 124.836 509.316C124.381 509.178 123.984 508.935 123.645 508.585C123.317 508.236 123.152 507.738 123.152 507.093C123.152 506.553 123.306 506.076 123.613 505.663C123.931 505.24 124.386 504.912 124.979 504.679C125.582 504.446 126.291 504.33 127.107 504.33C127.71 504.33 128.308 504.398 128.901 504.536C129.504 504.663 130.002 504.843 130.394 505.076L129.568 506.839C128.816 506.415 127.996 506.203 127.107 506.203C126.577 506.203 126.18 506.277 125.916 506.426C125.651 506.574 125.519 506.764 125.519 506.997C125.519 507.262 125.662 507.447 125.947 507.553C126.233 507.659 126.688 507.76 127.313 507.855C128.012 507.971 128.583 508.098 129.028 508.236C129.473 508.363 129.859 508.601 130.187 508.951C130.516 509.3 130.68 509.787 130.68 510.412C130.68 510.941 130.521 511.412 130.203 511.825C129.886 512.238 129.42 512.561 128.806 512.794C128.202 513.016 127.482 513.127 126.646 513.127ZM140.533 504.457L136.674 513.524C136.282 514.509 135.795 515.202 135.213 515.604C134.641 516.007 133.948 516.208 133.133 516.208C132.688 516.208 132.249 516.139 131.815 516.001C131.381 515.864 131.026 515.673 130.751 515.43L131.656 513.667C131.847 513.836 132.064 513.969 132.307 514.064C132.561 514.159 132.81 514.207 133.053 514.207C133.392 514.207 133.667 514.122 133.879 513.953C134.091 513.794 134.281 513.524 134.451 513.143L134.483 513.064L130.783 504.457H133.339L135.737 510.253L138.151 504.457H140.533ZM144.294 513.127C143.585 513.127 142.891 513.042 142.214 512.873C141.536 512.693 140.996 512.471 140.594 512.206L141.42 510.427C141.801 510.671 142.261 510.872 142.801 511.031C143.341 511.179 143.871 511.253 144.389 511.253C145.437 511.253 145.961 510.994 145.961 510.475C145.961 510.232 145.818 510.057 145.533 509.951C145.247 509.845 144.807 509.755 144.215 509.681C143.516 509.575 142.939 509.453 142.484 509.316C142.028 509.178 141.631 508.935 141.293 508.585C140.964 508.236 140.8 507.738 140.8 507.093C140.8 506.553 140.954 506.076 141.261 505.663C141.578 505.24 142.034 504.912 142.627 504.679C143.23 504.446 143.939 504.33 144.754 504.33C145.358 504.33 145.956 504.398 146.549 504.536C147.152 504.663 147.65 504.843 148.042 505.076L147.216 506.839C146.464 506.415 145.644 506.203 144.754 506.203C144.225 506.203 143.828 506.277 143.563 506.426C143.299 506.574 143.166 506.764 143.166 506.997C143.166 507.262 143.309 507.447 143.595 507.553C143.881 507.659 144.336 507.76 144.961 507.855C145.66 507.971 146.231 508.098 146.676 508.236C147.121 508.363 147.507 508.601 147.835 508.951C148.163 509.3 148.327 509.787 148.327 510.412C148.327 510.941 148.169 511.412 147.851 511.825C147.533 512.238 147.068 512.561 146.454 512.794C145.85 513.016 145.13 513.127 144.294 513.127ZM154.528 501.884H157.1V510.904H162.674V513H154.528V501.884ZM169.37 512.587C169.126 512.767 168.825 512.905 168.465 513C168.115 513.085 167.745 513.127 167.353 513.127C166.337 513.127 165.548 512.868 164.987 512.349C164.436 511.83 164.161 511.068 164.161 510.062V506.553H162.843V504.647H164.161V502.567H166.638V504.647H168.766V506.553H166.638V510.03C166.638 510.39 166.728 510.671 166.908 510.872C167.099 511.063 167.364 511.158 167.702 511.158C168.094 511.158 168.428 511.052 168.703 510.84L169.37 512.587ZM179.199 501.217V513H176.833V512.015C176.219 512.757 175.33 513.127 174.165 513.127C173.361 513.127 172.63 512.947 171.974 512.587C171.328 512.227 170.82 511.714 170.449 511.047C170.079 510.38 169.893 509.607 169.893 508.728C169.893 507.85 170.079 507.077 170.449 506.41C170.82 505.743 171.328 505.229 171.974 504.869C172.63 504.509 173.361 504.33 174.165 504.33C175.256 504.33 176.108 504.674 176.722 505.362V501.217H179.199ZM174.594 511.094C175.218 511.094 175.737 510.883 176.15 510.459C176.563 510.025 176.769 509.448 176.769 508.728C176.769 508.008 176.563 507.437 176.15 507.013C175.737 506.579 175.218 506.362 174.594 506.362C173.959 506.362 173.435 506.579 173.022 507.013C172.609 507.437 172.402 508.008 172.402 508.728C172.402 509.448 172.609 510.025 173.022 510.459C173.435 510.883 173.959 511.094 174.594 511.094ZM103.355 520.884V532H102.228V523.107L97.8606 530.587H97.3048L92.9378 523.155V532H91.8103V520.884H92.779L97.6065 529.126L102.386 520.884H103.355ZM113.758 523.647L109.581 533C109.243 533.784 108.851 534.34 108.406 534.668C107.962 534.996 107.427 535.16 106.802 535.16C106.4 535.16 106.024 535.097 105.675 534.97C105.325 534.843 105.024 534.652 104.77 534.398L105.294 533.556C105.717 533.98 106.225 534.191 106.818 534.191C107.199 534.191 107.522 534.086 107.787 533.874C108.062 533.662 108.316 533.302 108.549 532.794L108.914 531.984L105.183 523.647H106.358L109.502 530.745L112.646 523.647H113.758ZM117.492 532.079C116.814 532.079 116.163 531.984 115.538 531.794C114.924 531.592 114.443 531.344 114.093 531.047L114.601 530.158C114.951 530.433 115.39 530.661 115.92 530.841C116.449 531.01 116.999 531.095 117.571 531.095C118.333 531.095 118.894 530.978 119.254 530.745C119.625 530.502 119.81 530.163 119.81 529.729C119.81 529.422 119.71 529.184 119.508 529.015C119.307 528.835 119.053 528.702 118.746 528.618C118.439 528.522 118.032 528.432 117.523 528.348C116.846 528.221 116.301 528.094 115.888 527.966C115.475 527.829 115.12 527.601 114.824 527.284C114.538 526.966 114.395 526.527 114.395 525.966C114.395 525.267 114.686 524.695 115.268 524.251C115.851 523.806 116.661 523.584 117.698 523.584C118.238 523.584 118.778 523.658 119.318 523.806C119.858 523.944 120.302 524.129 120.652 524.362L120.159 525.267C119.471 524.79 118.651 524.552 117.698 524.552C116.978 524.552 116.433 524.679 116.062 524.933C115.702 525.187 115.523 525.521 115.523 525.934C115.523 526.251 115.623 526.506 115.824 526.696C116.036 526.887 116.295 527.03 116.602 527.125C116.909 527.21 117.333 527.3 117.873 527.395C118.54 527.522 119.074 527.649 119.477 527.776C119.879 527.903 120.223 528.12 120.509 528.427C120.795 528.734 120.938 529.157 120.938 529.697C120.938 530.428 120.631 531.01 120.017 531.444C119.413 531.868 118.571 532.079 117.492 532.079ZM126.436 532.079C125.632 532.079 124.906 531.899 124.261 531.539C123.615 531.169 123.107 530.661 122.736 530.015C122.366 529.369 122.18 528.639 122.18 527.824C122.18 527.008 122.366 526.278 122.736 525.632C123.107 524.986 123.615 524.483 124.261 524.124C124.906 523.764 125.632 523.584 126.436 523.584C127.241 523.584 127.966 523.764 128.612 524.124C129.258 524.483 129.76 524.986 130.12 525.632C130.491 526.278 130.676 527.008 130.676 527.824C130.676 528.639 130.491 529.369 130.12 530.015C129.76 530.661 129.258 531.169 128.612 531.539C127.966 531.899 127.241 532.079 126.436 532.079ZM126.436 531.079C127.029 531.079 127.558 530.947 128.024 530.682C128.501 530.407 128.871 530.02 129.136 529.523C129.4 529.025 129.533 528.459 129.533 527.824C129.533 527.188 129.4 526.622 129.136 526.124C128.871 525.627 128.501 525.246 128.024 524.981C127.558 524.706 127.029 524.568 126.436 524.568C125.843 524.568 125.309 524.706 124.832 524.981C124.366 525.246 123.996 525.627 123.721 526.124C123.456 526.622 123.324 527.188 123.324 527.824C123.324 528.459 123.456 529.025 123.721 529.523C123.996 530.02 124.366 530.407 124.832 530.682C125.309 530.947 125.843 531.079 126.436 531.079ZM134.058 525.283C134.322 524.722 134.714 524.298 135.233 524.012C135.762 523.727 136.413 523.584 137.186 523.584V524.679L136.916 524.663C136.038 524.663 135.349 524.933 134.852 525.473C134.354 526.013 134.105 526.77 134.105 527.744V532H132.978V523.647H134.058V525.283ZM146.423 528.173H139.436C139.499 529.041 139.833 529.745 140.436 530.285C141.04 530.814 141.802 531.079 142.723 531.079C143.242 531.079 143.718 530.989 144.152 530.809C144.586 530.618 144.962 530.343 145.28 529.983L145.915 530.714C145.544 531.158 145.079 531.497 144.518 531.73C143.967 531.963 143.358 532.079 142.691 532.079C141.834 532.079 141.072 531.899 140.405 531.539C139.748 531.169 139.235 530.661 138.864 530.015C138.494 529.369 138.308 528.639 138.308 527.824C138.308 527.008 138.483 526.278 138.832 525.632C139.192 524.986 139.679 524.483 140.293 524.124C140.918 523.764 141.617 523.584 142.39 523.584C143.162 523.584 143.856 523.764 144.47 524.124C145.084 524.483 145.566 524.986 145.915 525.632C146.264 526.267 146.439 526.998 146.439 527.824L146.423 528.173ZM142.39 524.552C141.585 524.552 140.907 524.812 140.357 525.33C139.817 525.839 139.51 526.506 139.436 527.331H145.359C145.285 526.506 144.973 525.839 144.422 525.33C143.882 524.812 143.205 524.552 142.39 524.552Z" fill="white"/>
<path d="M97.1572 549.225C97.1572 550.127 96.8314 550.838 96.1797 551.357C95.5326 551.877 94.6302 552.137 93.4727 552.137C92.4062 552.137 91.4629 551.936 90.6426 551.535V549.566C91.3171 549.867 91.8867 550.079 92.3516 550.202C92.821 550.325 93.2493 550.387 93.6367 550.387C94.1016 550.387 94.457 550.298 94.7031 550.12C94.9538 549.942 95.0791 549.678 95.0791 549.327C95.0791 549.131 95.0244 548.958 94.915 548.808C94.8057 548.653 94.6439 548.505 94.4297 548.363C94.2201 548.222 93.7894 547.996 93.1377 547.687C92.527 547.399 92.069 547.124 91.7637 546.859C91.4583 546.595 91.2145 546.287 91.0322 545.937C90.8499 545.586 90.7588 545.175 90.7588 544.706C90.7588 543.822 91.0573 543.127 91.6543 542.621C92.2559 542.115 93.0853 541.862 94.1426 541.862C94.6621 541.862 95.1566 541.924 95.626 542.047C96.0999 542.17 96.5944 542.343 97.1094 542.566L96.4258 544.214C95.8926 543.995 95.4505 543.842 95.0996 543.756C94.7533 543.669 94.4115 543.626 94.0742 543.626C93.6732 543.626 93.3656 543.719 93.1514 543.906C92.9372 544.093 92.8301 544.337 92.8301 544.638C92.8301 544.825 92.8734 544.989 92.96 545.13C93.0465 545.267 93.1833 545.401 93.3701 545.533C93.5615 545.661 94.0104 545.893 94.7168 546.23C95.651 546.677 96.2913 547.126 96.6377 547.577C96.984 548.024 97.1572 548.573 97.1572 549.225ZM97.7109 544.357H99.9941L101.437 548.657C101.56 549.031 101.644 549.473 101.689 549.983H101.73C101.781 549.514 101.879 549.072 102.024 548.657L103.439 544.357H105.675L102.441 552.978C102.145 553.775 101.721 554.372 101.17 554.769C100.623 555.165 99.9827 555.363 99.249 555.363C98.889 555.363 98.5358 555.325 98.1895 555.247V553.593C98.4401 553.652 98.7135 553.682 99.0098 553.682C99.3789 553.682 99.7002 553.568 99.9736 553.34C100.252 553.117 100.468 552.777 100.623 552.321L100.746 551.945L97.7109 544.357ZM112.107 549.73C112.107 550.514 111.834 551.111 111.287 551.521C110.745 551.932 109.931 552.137 108.847 552.137C108.291 552.137 107.817 552.098 107.425 552.021C107.033 551.948 106.666 551.838 106.324 551.692V549.97C106.712 550.152 107.147 550.305 107.63 550.428C108.118 550.551 108.546 550.612 108.915 550.612C109.672 550.612 110.05 550.394 110.05 549.956C110.05 549.792 110 549.66 109.899 549.56C109.799 549.455 109.626 549.339 109.38 549.211C109.134 549.079 108.806 548.926 108.396 548.753C107.808 548.507 107.375 548.279 107.097 548.069C106.823 547.86 106.623 547.62 106.495 547.352C106.372 547.078 106.311 546.743 106.311 546.347C106.311 545.668 106.573 545.144 107.097 544.774C107.625 544.401 108.373 544.214 109.339 544.214C110.259 544.214 111.155 544.414 112.025 544.815L111.396 546.319C111.014 546.155 110.656 546.021 110.323 545.916C109.991 545.811 109.651 545.759 109.305 545.759C108.689 545.759 108.382 545.925 108.382 546.258C108.382 546.445 108.48 546.606 108.676 546.743C108.876 546.88 109.312 547.083 109.981 547.352C110.578 547.593 111.016 547.819 111.294 548.028C111.572 548.238 111.777 548.479 111.909 548.753C112.041 549.026 112.107 549.352 112.107 549.73ZM116.954 550.476C117.319 550.476 117.756 550.396 118.267 550.236V551.788C117.747 552.021 117.109 552.137 116.353 552.137C115.519 552.137 114.91 551.927 114.527 551.508C114.149 551.084 113.96 550.451 113.96 549.607V545.923H112.962V545.041L114.11 544.344L114.712 542.73H116.045V544.357H118.185V545.923H116.045V549.607C116.045 549.904 116.127 550.122 116.291 550.264C116.46 550.405 116.681 550.476 116.954 550.476ZM122.983 545.697C122.541 545.697 122.195 545.839 121.944 546.121C121.694 546.399 121.55 546.796 121.514 547.311H124.439C124.43 546.796 124.296 546.399 124.036 546.121C123.776 545.839 123.425 545.697 122.983 545.697ZM123.277 552.137C122.047 552.137 121.085 551.797 120.393 551.118C119.7 550.439 119.354 549.478 119.354 548.233C119.354 546.953 119.673 545.964 120.311 545.267C120.953 544.565 121.84 544.214 122.97 544.214C124.05 544.214 124.891 544.521 125.492 545.137C126.094 545.752 126.395 546.602 126.395 547.687V548.698H121.466C121.489 549.291 121.664 549.753 121.992 550.086C122.32 550.419 122.781 550.585 123.373 550.585C123.833 550.585 124.269 550.537 124.679 550.441C125.089 550.346 125.517 550.193 125.964 549.983V551.597C125.599 551.779 125.21 551.913 124.795 552C124.38 552.091 123.874 552.137 123.277 552.137ZM134.933 552H132.848V547.536C132.848 546.985 132.754 546.572 132.567 546.299C132.385 546.021 132.096 545.882 131.699 545.882C131.166 545.882 130.779 546.078 130.537 546.47C130.296 546.862 130.175 547.507 130.175 548.404V552H128.09V544.357H129.683L129.963 545.335H130.079C130.284 544.984 130.58 544.711 130.968 544.515C131.355 544.314 131.799 544.214 132.301 544.214C133.445 544.214 134.219 544.588 134.625 545.335H134.81C135.015 544.979 135.315 544.704 135.712 544.508C136.113 544.312 136.564 544.214 137.065 544.214C137.931 544.214 138.585 544.437 139.027 544.884C139.474 545.326 139.697 546.037 139.697 547.017V552H137.605V547.536C137.605 546.985 137.512 546.572 137.325 546.299C137.143 546.021 136.854 545.882 136.457 545.882C135.947 545.882 135.564 546.064 135.309 546.429C135.058 546.793 134.933 547.372 134.933 548.165V552ZM147.176 549.73C147.176 550.514 146.902 551.111 146.355 551.521C145.813 551.932 145 552.137 143.915 552.137C143.359 552.137 142.885 552.098 142.493 552.021C142.101 551.948 141.734 551.838 141.393 551.692V549.97C141.78 550.152 142.215 550.305 142.698 550.428C143.186 550.551 143.614 550.612 143.983 550.612C144.74 550.612 145.118 550.394 145.118 549.956C145.118 549.792 145.068 549.66 144.968 549.56C144.868 549.455 144.694 549.339 144.448 549.211C144.202 549.079 143.874 548.926 143.464 548.753C142.876 548.507 142.443 548.279 142.165 548.069C141.892 547.86 141.691 547.62 141.563 547.352C141.44 547.078 141.379 546.743 141.379 546.347C141.379 545.668 141.641 545.144 142.165 544.774C142.694 544.401 143.441 544.214 144.407 544.214C145.328 544.214 146.223 544.414 147.094 544.815L146.465 546.319C146.082 546.155 145.724 546.021 145.392 545.916C145.059 545.811 144.719 545.759 144.373 545.759C143.758 545.759 143.45 545.925 143.45 546.258C143.45 546.445 143.548 546.606 143.744 546.743C143.945 546.88 144.38 547.083 145.05 547.352C145.647 547.593 146.084 547.819 146.362 548.028C146.64 548.238 146.845 548.479 146.978 548.753C147.11 549.026 147.176 549.352 147.176 549.73ZM158.359 552H152.604V542.006H158.359V543.742H154.723V545.937H158.106V547.673H154.723V550.25H158.359V552ZM167.342 552H165.257V547.536C165.257 546.985 165.159 546.572 164.963 546.299C164.767 546.021 164.455 545.882 164.026 545.882C163.443 545.882 163.021 546.078 162.762 546.47C162.502 546.857 162.372 547.502 162.372 548.404V552H160.287V544.357H161.88L162.16 545.335H162.276C162.509 544.966 162.828 544.688 163.233 544.501C163.644 544.31 164.108 544.214 164.628 544.214C165.517 544.214 166.191 544.455 166.651 544.938C167.112 545.417 167.342 546.11 167.342 547.017V552ZM176.14 544.357V545.417L174.943 545.725C175.162 546.066 175.271 546.449 175.271 546.873C175.271 547.693 174.984 548.334 174.41 548.794C173.84 549.25 173.048 549.478 172.031 549.478L171.655 549.457L171.348 549.423C171.133 549.587 171.026 549.769 171.026 549.97C171.026 550.271 171.409 550.421 172.175 550.421H173.474C174.312 550.421 174.95 550.601 175.388 550.961C175.83 551.321 176.051 551.85 176.051 552.547C176.051 553.44 175.677 554.133 174.93 554.625C174.187 555.117 173.118 555.363 171.724 555.363C170.657 555.363 169.841 555.176 169.276 554.803C168.716 554.434 168.436 553.914 168.436 553.244C168.436 552.784 168.579 552.399 168.866 552.089C169.153 551.779 169.575 551.558 170.131 551.426C169.917 551.335 169.73 551.187 169.57 550.981C169.411 550.772 169.331 550.551 169.331 550.318C169.331 550.027 169.415 549.785 169.584 549.594C169.753 549.398 169.996 549.206 170.315 549.02C169.914 548.846 169.595 548.568 169.358 548.186C169.126 547.803 169.01 547.352 169.01 546.832C169.01 545.998 169.281 545.353 169.823 544.897C170.366 544.442 171.14 544.214 172.147 544.214C172.362 544.214 172.615 544.234 172.906 544.275C173.202 544.312 173.392 544.339 173.474 544.357H176.14ZM170.24 553.08C170.24 553.367 170.377 553.593 170.65 553.757C170.928 553.921 171.316 554.003 171.812 554.003C172.56 554.003 173.146 553.9 173.569 553.695C173.993 553.49 174.205 553.21 174.205 552.854C174.205 552.567 174.08 552.369 173.829 552.26C173.578 552.15 173.191 552.096 172.667 552.096H171.587C171.204 552.096 170.883 552.185 170.623 552.362C170.368 552.545 170.24 552.784 170.24 553.08ZM170.999 546.859C170.999 547.274 171.092 547.602 171.279 547.844C171.471 548.085 171.76 548.206 172.147 548.206C172.539 548.206 172.826 548.085 173.009 547.844C173.191 547.602 173.282 547.274 173.282 546.859C173.282 545.939 172.904 545.479 172.147 545.479C171.382 545.479 170.999 545.939 170.999 546.859ZM177.315 542.382C177.315 541.703 177.694 541.363 178.45 541.363C179.207 541.363 179.585 541.703 179.585 542.382C179.585 542.705 179.489 542.958 179.298 543.141C179.111 543.318 178.828 543.407 178.45 543.407C177.694 543.407 177.315 543.065 177.315 542.382ZM179.489 552H177.404V544.357H179.489V552ZM188.738 552H186.653V547.536C186.653 546.985 186.555 546.572 186.359 546.299C186.163 546.021 185.851 545.882 185.423 545.882C184.84 545.882 184.418 546.078 184.158 546.47C183.898 546.857 183.769 547.502 183.769 548.404V552H181.684V544.357H183.276L183.557 545.335H183.673C183.905 544.966 184.224 544.688 184.63 544.501C185.04 544.31 185.505 544.214 186.024 544.214C186.913 544.214 187.588 544.455 188.048 544.938C188.508 545.417 188.738 546.11 188.738 547.017V552ZM197.939 552H195.854V547.536C195.854 546.985 195.757 546.572 195.561 546.299C195.365 546.021 195.052 545.882 194.624 545.882C194.041 545.882 193.619 546.078 193.359 546.47C193.1 546.857 192.97 547.502 192.97 548.404V552H190.885V544.357H192.478L192.758 545.335H192.874C193.106 544.966 193.425 544.688 193.831 544.501C194.241 544.31 194.706 544.214 195.226 544.214C196.114 544.214 196.789 544.455 197.249 544.938C197.709 545.417 197.939 546.11 197.939 547.017V552ZM203.251 545.697C202.809 545.697 202.463 545.839 202.212 546.121C201.961 546.399 201.818 546.796 201.781 547.311H204.707C204.698 546.796 204.563 546.399 204.304 546.121C204.044 545.839 203.693 545.697 203.251 545.697ZM203.545 552.137C202.314 552.137 201.353 551.797 200.66 551.118C199.967 550.439 199.621 549.478 199.621 548.233C199.621 546.953 199.94 545.964 200.578 545.267C201.221 544.565 202.107 544.214 203.237 544.214C204.317 544.214 205.158 544.521 205.76 545.137C206.361 545.752 206.662 546.602 206.662 547.687V548.698H201.733C201.756 549.291 201.932 549.753 202.26 550.086C202.588 550.419 203.048 550.585 203.641 550.585C204.101 550.585 204.536 550.537 204.946 550.441C205.356 550.346 205.785 550.193 206.231 549.983V551.597C205.867 551.779 205.477 551.913 205.062 552C204.648 552.091 204.142 552.137 203.545 552.137ZM212.623 544.214C212.906 544.214 213.14 544.234 213.327 544.275L213.17 546.23C213.001 546.185 212.796 546.162 212.555 546.162C211.889 546.162 211.37 546.333 210.996 546.675C210.627 547.017 210.442 547.495 210.442 548.11V552H208.357V544.357H209.937L210.244 545.643H210.347C210.584 545.214 210.903 544.87 211.304 544.61C211.709 544.346 212.149 544.214 212.623 544.214ZM222.371 552H220.252V543.77H217.538V542.006H225.085V543.77H222.371V552ZM230.725 544.214C231.007 544.214 231.242 544.234 231.429 544.275L231.271 546.23C231.103 546.185 230.898 546.162 230.656 546.162C229.991 546.162 229.471 546.333 229.098 546.675C228.729 547.017 228.544 547.495 228.544 548.11V552H226.459V544.357H228.038L228.346 545.643H228.448C228.685 545.214 229.004 544.87 229.405 544.61C229.811 544.346 230.251 544.214 230.725 544.214ZM237.67 552L237.267 550.961H237.212C236.861 551.403 236.499 551.711 236.125 551.884C235.756 552.052 235.273 552.137 234.676 552.137C233.942 552.137 233.363 551.927 232.939 551.508C232.52 551.089 232.311 550.492 232.311 549.717C232.311 548.906 232.593 548.309 233.158 547.926C233.728 547.538 234.585 547.324 235.729 547.283L237.055 547.242V546.907C237.055 546.132 236.658 545.745 235.865 545.745C235.255 545.745 234.537 545.93 233.712 546.299L233.021 544.891C233.901 544.43 234.876 544.2 235.947 544.2C236.973 544.2 237.759 544.424 238.306 544.87C238.853 545.317 239.126 545.996 239.126 546.907V552H237.67ZM237.055 548.459L236.248 548.486C235.642 548.505 235.191 548.614 234.895 548.814C234.598 549.015 234.45 549.32 234.45 549.73C234.45 550.318 234.787 550.612 235.462 550.612C235.945 550.612 236.33 550.473 236.617 550.195C236.909 549.917 237.055 549.548 237.055 549.088V548.459ZM241.19 542.382C241.19 541.703 241.569 541.363 242.325 541.363C243.082 541.363 243.46 541.703 243.46 542.382C243.46 542.705 243.364 542.958 243.173 543.141C242.986 543.318 242.703 543.407 242.325 543.407C241.569 543.407 241.19 543.065 241.19 542.382ZM243.364 552H241.279V544.357H243.364V552ZM252.613 552H250.528V547.536C250.528 546.985 250.43 546.572 250.234 546.299C250.038 546.021 249.726 545.882 249.298 545.882C248.715 545.882 248.293 546.078 248.033 546.47C247.773 546.857 247.644 547.502 247.644 548.404V552H245.559V544.357H247.151L247.432 545.335H247.548C247.78 544.966 248.099 544.688 248.505 544.501C248.915 544.31 249.38 544.214 249.899 544.214C250.788 544.214 251.463 544.455 251.923 544.938C252.383 545.417 252.613 546.11 252.613 547.017V552ZM257.925 545.697C257.483 545.697 257.136 545.839 256.886 546.121C256.635 546.399 256.492 546.796 256.455 547.311H259.381C259.372 546.796 259.237 546.399 258.978 546.121C258.718 545.839 258.367 545.697 257.925 545.697ZM258.219 552.137C256.988 552.137 256.027 551.797 255.334 551.118C254.641 550.439 254.295 549.478 254.295 548.233C254.295 546.953 254.614 545.964 255.252 545.267C255.895 544.565 256.781 544.214 257.911 544.214C258.991 544.214 259.832 544.521 260.434 545.137C261.035 545.752 261.336 546.602 261.336 547.687V548.698H256.407C256.43 549.291 256.605 549.753 256.934 550.086C257.262 550.419 257.722 550.585 258.314 550.585C258.775 550.585 259.21 550.537 259.62 550.441C260.03 550.346 260.459 550.193 260.905 549.983V551.597C260.541 551.779 260.151 551.913 259.736 552C259.322 552.091 258.816 552.137 258.219 552.137ZM266.196 545.697C265.754 545.697 265.408 545.839 265.157 546.121C264.907 546.399 264.763 546.796 264.727 547.311H267.652C267.643 546.796 267.509 546.399 267.249 546.121C266.989 545.839 266.638 545.697 266.196 545.697ZM266.49 552.137C265.26 552.137 264.298 551.797 263.605 551.118C262.913 550.439 262.566 549.478 262.566 548.233C262.566 546.953 262.885 545.964 263.523 545.267C264.166 544.565 265.052 544.214 266.183 544.214C267.263 544.214 268.104 544.521 268.705 545.137C269.307 545.752 269.607 546.602 269.607 547.687V548.698H264.679C264.701 549.291 264.877 549.753 265.205 550.086C265.533 550.419 265.993 550.585 266.586 550.585C267.046 550.585 267.481 550.537 267.892 550.441C268.302 550.346 268.73 550.193 269.177 549.983V551.597C268.812 551.779 268.423 551.913 268.008 552C267.593 552.091 267.087 552.137 266.49 552.137Z" fill="white"/>
<path d="M206.918 237.632C206.49 237.632 206.152 237.57 205.906 237.447V236.456C206.23 236.547 206.567 236.593 206.918 236.593C207.369 236.593 207.711 236.456 207.943 236.183C208.18 235.909 208.299 235.515 208.299 235V225.006H209.461V234.904C209.461 235.77 209.242 236.44 208.805 236.914C208.367 237.393 207.738 237.632 206.918 237.632ZM213.016 227.508V232.368C213.016 232.979 213.155 233.435 213.433 233.735C213.711 234.036 214.146 234.187 214.738 234.187C215.522 234.187 216.094 233.972 216.454 233.544C216.819 233.116 217.001 232.416 217.001 231.445V227.508H218.136V235H217.199L217.035 233.995H216.974C216.741 234.364 216.418 234.647 216.003 234.843C215.593 235.039 215.123 235.137 214.595 235.137C213.683 235.137 213 234.92 212.544 234.487C212.093 234.054 211.867 233.362 211.867 232.409V227.508H213.016ZM225.676 235V230.153C225.676 229.543 225.537 229.087 225.259 228.786C224.981 228.485 224.546 228.335 223.953 228.335C223.169 228.335 222.595 228.547 222.23 228.971C221.866 229.395 221.684 230.094 221.684 231.069V235H220.549V227.508H221.472L221.656 228.533H221.711C221.943 228.164 222.269 227.879 222.688 227.679C223.108 227.474 223.575 227.371 224.09 227.371C224.992 227.371 225.671 227.59 226.127 228.027C226.583 228.46 226.811 229.155 226.811 230.112V235H225.676ZM238.835 235H232.266V234.022L234.897 231.377C235.7 230.566 236.228 229.987 236.483 229.641C236.739 229.294 236.93 228.957 237.058 228.629C237.185 228.301 237.249 227.948 237.249 227.569C237.249 227.036 237.087 226.615 236.764 226.305C236.44 225.99 235.991 225.833 235.417 225.833C235.002 225.833 234.608 225.901 234.234 226.038C233.865 226.175 233.453 226.423 232.997 226.783L232.396 226.011C233.316 225.245 234.319 224.862 235.403 224.862C236.342 224.862 237.078 225.104 237.611 225.587C238.145 226.065 238.411 226.71 238.411 227.521C238.411 228.155 238.233 228.782 237.878 229.401C237.522 230.021 236.857 230.805 235.882 231.753L233.694 233.893V233.947H238.835V235ZM246.901 229.989C246.901 231.716 246.628 233.006 246.081 233.858C245.539 234.711 244.707 235.137 243.586 235.137C242.51 235.137 241.692 234.701 241.132 233.831C240.571 232.956 240.291 231.675 240.291 229.989C240.291 228.248 240.562 226.956 241.104 226.113C241.647 225.27 242.474 224.849 243.586 224.849C244.671 224.849 245.493 225.288 246.054 226.168C246.619 227.048 246.901 228.321 246.901 229.989ZM241.439 229.989C241.439 231.443 241.61 232.503 241.952 233.168C242.294 233.829 242.839 234.159 243.586 234.159C244.342 234.159 244.889 233.824 245.227 233.154C245.568 232.48 245.739 231.425 245.739 229.989C245.739 228.554 245.568 227.503 245.227 226.838C244.889 226.168 244.342 225.833 243.586 225.833C242.839 225.833 242.294 226.163 241.952 226.824C241.61 227.48 241.439 228.535 241.439 229.989ZM252.493 235H251.386V227.877C251.386 227.285 251.404 226.724 251.44 226.195C251.345 226.291 251.238 226.391 251.119 226.496C251.001 226.601 250.458 227.045 249.492 227.829L248.891 227.05L251.536 225.006H252.493V235ZM259.609 224.862C260.521 224.862 261.243 225.074 261.776 225.498C262.31 225.922 262.576 226.507 262.576 227.255C262.576 227.747 262.424 228.196 262.118 228.602C261.813 229.007 261.325 229.376 260.655 229.709C261.466 230.096 262.043 230.504 262.385 230.933C262.727 231.356 262.897 231.849 262.897 232.409C262.897 233.239 262.608 233.902 262.029 234.398C261.451 234.891 260.658 235.137 259.65 235.137C258.584 235.137 257.764 234.904 257.189 234.439C256.615 233.97 256.328 233.307 256.328 232.45C256.328 231.306 257.025 230.415 258.42 229.777C257.791 229.422 257.34 229.039 257.066 228.629C256.793 228.214 256.656 227.752 256.656 227.241C256.656 226.517 256.923 225.94 257.456 225.512C257.994 225.079 258.712 224.862 259.609 224.862ZM257.449 232.478C257.449 233.024 257.638 233.451 258.017 233.756C258.399 234.061 258.935 234.214 259.623 234.214C260.302 234.214 260.831 234.054 261.209 233.735C261.587 233.416 261.776 232.979 261.776 232.423C261.776 231.981 261.599 231.589 261.243 231.247C260.888 230.901 260.268 230.566 259.384 230.242C258.705 230.534 258.213 230.857 257.907 231.213C257.602 231.564 257.449 231.985 257.449 232.478ZM259.596 225.785C259.026 225.785 258.579 225.922 258.256 226.195C257.932 226.469 257.771 226.833 257.771 227.289C257.771 227.708 257.905 228.068 258.174 228.369C258.443 228.67 258.939 228.971 259.664 229.271C260.316 228.998 260.776 228.704 261.045 228.39C261.318 228.075 261.455 227.708 261.455 227.289C261.455 226.829 261.289 226.464 260.956 226.195C260.628 225.922 260.174 225.785 259.596 225.785Z" fill="white"/>
<path d="M394.087 5.98016H390.53V3.884H400.217V5.98016H396.66V15H394.087V5.98016ZM408.926 10.76C408.926 10.7918 408.911 11.0141 408.879 11.427H402.416C402.532 11.9563 402.807 12.3745 403.241 12.6815C403.675 12.9885 404.215 13.142 404.861 13.142C405.306 13.142 405.698 13.0785 406.036 12.9515C406.386 12.8139 406.709 12.6021 407.005 12.3163L408.323 13.7455C407.518 14.6665 406.343 15.127 404.798 15.127C403.834 15.127 402.982 14.9418 402.241 14.5712C401.5 14.1901 400.928 13.6661 400.526 12.9991C400.124 12.3322 399.922 11.5752 399.922 10.7283C399.922 9.89193 400.118 9.14028 400.51 8.47332C400.912 7.79577 401.458 7.27173 402.146 6.9012C402.844 6.52008 403.623 6.32952 404.48 6.32952C405.316 6.32952 406.073 6.50949 406.751 6.86944C407.428 7.22939 407.958 7.74813 408.339 8.42568C408.731 9.09264 408.926 9.87076 408.926 10.76ZM404.496 8.20336C403.935 8.20336 403.464 8.36216 403.083 8.67976C402.701 8.99736 402.469 9.43141 402.384 9.98192H406.592C406.507 9.442 406.274 9.01324 405.893 8.69564C405.512 8.36745 405.046 8.20336 404.496 8.20336ZM417.533 13.0944V15H409.911V13.5073L414.262 8.36216H410.022V6.45656H417.39V7.94928L413.039 13.0944H417.533ZM429.411 15L429.395 8.3304L426.124 13.8249H424.964L421.709 8.47332V15H419.295V3.884H421.423L425.584 10.7918L429.681 3.884H431.793L431.825 15H429.411ZM434.287 6.45656H436.764V15H434.287V6.45656ZM435.526 5.26556C435.071 5.26556 434.7 5.13323 434.414 4.86856C434.128 4.60389 433.985 4.27571 433.985 3.884C433.985 3.49229 434.128 3.16411 434.414 2.89944C434.7 2.63477 435.071 2.50244 435.526 2.50244C435.981 2.50244 436.352 2.62948 436.637 2.88356C436.923 3.13764 437.066 3.45524 437.066 3.83636C437.066 4.24924 436.923 4.59331 436.637 4.86856C436.352 5.13323 435.981 5.26556 435.526 5.26556ZM444.256 6.32952C445.315 6.32952 446.167 6.64712 446.813 7.28232C447.469 7.91752 447.798 8.85973 447.798 10.109V15H445.32V10.4901C445.32 9.81253 445.172 9.30967 444.876 8.98148C444.579 8.64271 444.15 8.47332 443.589 8.47332C442.965 8.47332 442.467 8.66917 442.097 9.06088C441.726 9.442 441.541 10.0137 441.541 10.7759V15H439.064V6.45656H441.43V7.457C441.758 7.09705 442.165 6.8218 442.652 6.63124C443.139 6.43009 443.674 6.32952 444.256 6.32952ZM458.838 3.21704V15H456.472V14.0154C455.858 14.7565 454.969 15.127 453.804 15.127C453 15.127 452.269 14.9471 451.613 14.5871C450.967 14.2272 450.459 13.7137 450.089 13.0468C449.718 12.3798 449.533 11.607 449.533 10.7283C449.533 9.84959 449.718 9.07676 450.089 8.4098C450.459 7.74284 450.967 7.22939 451.613 6.86944C452.269 6.50949 453 6.32952 453.804 6.32952C454.895 6.32952 455.747 6.67359 456.361 7.36172V3.21704H458.838ZM454.233 13.0944C454.858 13.0944 455.377 12.8827 455.789 12.4592C456.202 12.0251 456.409 11.4482 456.409 10.7283C456.409 10.0084 456.202 9.43671 455.789 9.01324C455.377 8.57919 454.858 8.36216 454.233 8.36216C453.598 8.36216 453.074 8.57919 452.661 9.01324C452.248 9.43671 452.042 10.0084 452.042 10.7283C452.042 11.4482 452.248 12.0251 452.661 12.4592C453.074 12.8827 453.598 13.0944 454.233 13.0944ZM464.005 15.127C463.296 15.127 462.603 15.0423 461.925 14.873C461.248 14.693 460.708 14.4707 460.305 14.206L461.131 12.4274C461.512 12.6709 461.973 12.8721 462.513 13.0309C463.053 13.1791 463.582 13.2532 464.101 13.2532C465.149 13.2532 465.673 12.9938 465.673 12.4751C465.673 12.2316 465.53 12.0569 465.244 11.951C464.958 11.8452 464.519 11.7552 463.926 11.6811C463.227 11.5752 462.65 11.4535 462.195 11.3158C461.74 11.1782 461.343 10.9347 461.004 10.5854C460.676 10.236 460.512 9.73843 460.512 9.09264C460.512 8.55272 460.665 8.07632 460.972 7.66344C461.29 7.23997 461.745 6.91179 462.338 6.67888C462.942 6.44597 463.651 6.32952 464.466 6.32952C465.069 6.32952 465.668 6.39833 466.26 6.53596C466.864 6.663 467.361 6.84297 467.753 7.07588L466.927 8.83856C466.176 8.41509 465.355 8.20336 464.466 8.20336C463.937 8.20336 463.54 8.27747 463.275 8.42568C463.01 8.57389 462.878 8.76445 462.878 8.99736C462.878 9.26203 463.021 9.44729 463.307 9.55316C463.593 9.65903 464.048 9.7596 464.672 9.85488C465.371 9.97133 465.943 10.0984 466.387 10.236C466.832 10.363 467.219 10.6012 467.547 10.9506C467.875 11.3 468.039 11.7869 468.039 12.4116C468.039 12.9409 467.88 13.412 467.563 13.8249C467.245 14.2378 466.779 14.5607 466.165 14.7936C465.562 15.0159 464.842 15.127 464.005 15.127ZM477.892 15.1906C477.013 15.1906 476.161 15.0741 475.335 14.8412C474.52 14.5977 473.864 14.2854 473.366 13.9043L474.239 11.9669C474.716 12.3163 475.282 12.5968 475.939 12.8086C476.595 13.0203 477.251 13.1262 477.908 13.1262C478.638 13.1262 479.178 13.0203 479.527 12.8086C479.877 12.5862 480.051 12.2951 480.051 11.9352C480.051 11.6705 479.946 11.4535 479.734 11.2841C479.533 11.1041 479.268 10.9612 478.94 10.8553C478.622 10.7495 478.188 10.633 477.638 10.506C476.791 10.3048 476.097 10.1037 475.557 9.90252C475.018 9.70137 474.552 9.37848 474.16 8.93384C473.779 8.4892 473.588 7.89635 473.588 7.15528C473.588 6.50949 473.763 5.92723 474.112 5.40848C474.462 4.87915 474.986 4.46097 475.684 4.15396C476.394 3.84695 477.257 3.69344 478.273 3.69344C478.982 3.69344 479.676 3.77813 480.353 3.94752C481.031 4.11691 481.624 4.3604 482.132 4.678L481.338 6.63124C480.311 6.04897 479.284 5.75784 478.257 5.75784C477.537 5.75784 477.003 5.87429 476.653 6.1072C476.314 6.34011 476.145 6.64712 476.145 7.02824C476.145 7.40936 476.341 7.6952 476.733 7.88576C477.135 8.06573 477.744 8.24571 478.559 8.42568C479.406 8.62683 480.099 8.82797 480.639 9.02912C481.179 9.23027 481.639 9.54787 482.021 9.98192C482.412 10.416 482.608 11.0035 482.608 11.7446C482.608 12.3798 482.428 12.9621 482.068 13.4914C481.719 14.0101 481.19 14.423 480.48 14.73C479.771 15.0371 478.908 15.1906 477.892 15.1906ZM488.257 15.127C487.357 15.127 486.547 14.9418 485.827 14.5712C485.118 14.1901 484.562 13.6661 484.16 12.9991C483.757 12.3322 483.556 11.5752 483.556 10.7283C483.556 9.88135 483.757 9.1244 484.16 8.45744C484.562 7.79048 485.118 7.27173 485.827 6.9012C486.547 6.52008 487.357 6.32952 488.257 6.32952C489.156 6.32952 489.961 6.52008 490.67 6.9012C491.38 7.27173 491.935 7.79048 492.338 8.45744C492.74 9.1244 492.941 9.88135 492.941 10.7283C492.941 11.5752 492.74 12.3322 492.338 12.9991C491.935 13.6661 491.38 14.1901 490.67 14.5712C489.961 14.9418 489.156 15.127 488.257 15.127ZM488.257 13.0944C488.892 13.0944 489.411 12.8827 489.813 12.4592C490.226 12.0251 490.432 11.4482 490.432 10.7283C490.432 10.0084 490.226 9.43671 489.813 9.01324C489.411 8.57919 488.892 8.36216 488.257 8.36216C487.621 8.36216 487.097 8.57919 486.684 9.01324C486.272 9.43671 486.065 10.0084 486.065 10.7283C486.065 11.4482 486.272 12.0251 486.684 12.4592C487.097 12.8827 487.621 13.0944 488.257 13.0944ZM497.313 6.64712H499.504V8.55272H497.376V15H494.899V8.55272H493.581V6.64712H494.899V6.266C494.899 5.29203 495.185 4.5192 495.756 3.94752C496.339 3.37584 497.154 3.09 498.202 3.09C498.572 3.09 498.922 3.13235 499.25 3.21704C499.589 3.29115 499.869 3.40231 500.092 3.55052L499.44 5.34496C499.155 5.14381 498.821 5.04324 498.44 5.04324C497.688 5.04324 497.313 5.45612 497.313 6.28188V6.64712ZM506.249 14.5871C506.005 14.7671 505.703 14.9047 505.343 15C504.994 15.0847 504.623 15.127 504.232 15.127C503.215 15.127 502.427 14.8677 501.866 14.3489C501.315 13.8302 501.04 13.0679 501.04 12.0622V8.55272H499.722V6.64712H501.04V4.56684H503.517V6.64712H505.645V8.55272H503.517V12.0304C503.517 12.3904 503.607 12.6709 503.787 12.8721C503.978 13.0626 504.242 13.1579 504.581 13.1579C504.973 13.1579 505.306 13.0521 505.582 12.8403L506.249 14.5871ZM521.204 6.45656L518.108 15H515.726L513.804 9.69608L511.819 15H509.437L506.357 6.45656H508.691L510.708 12.2369L512.804 6.45656H514.9L516.933 12.2369L519.013 6.45656H521.204ZM525.523 6.32952C526.846 6.32952 527.863 6.64712 528.572 7.28232C529.281 7.90693 529.636 8.85444 529.636 10.1248V15H527.317V13.936C526.851 14.73 525.983 15.127 524.713 15.127C524.057 15.127 523.485 15.0159 522.998 14.7936C522.522 14.5712 522.156 14.2642 521.902 13.8725C521.648 13.4808 521.521 13.0362 521.521 12.5386C521.521 11.7446 521.818 11.12 522.41 10.6648C523.014 10.2095 523.94 9.98192 525.189 9.98192H527.158C527.158 9.442 526.994 9.02912 526.666 8.74328C526.338 8.44685 525.846 8.29864 525.189 8.29864C524.734 8.29864 524.284 8.37275 523.84 8.52096C523.406 8.65859 523.035 8.84915 522.728 9.09264L521.839 7.36172C522.305 7.03353 522.86 6.77945 523.506 6.59948C524.162 6.41951 524.835 6.32952 525.523 6.32952ZM525.332 13.4596C525.756 13.4596 526.132 13.3644 526.46 13.1738C526.788 12.9727 527.021 12.6815 527.158 12.3004V11.427H525.459C524.443 11.427 523.935 11.7605 523.935 12.4274C523.935 12.745 524.057 12.9991 524.3 13.1897C524.554 13.3697 524.898 13.4596 525.332 13.4596ZM534.244 7.58404C534.54 7.17116 534.937 6.85885 535.435 6.64712C535.943 6.43539 536.525 6.32952 537.182 6.32952V8.61624C536.906 8.59507 536.721 8.58448 536.626 8.58448C535.917 8.58448 535.361 8.78563 534.959 9.18792C534.556 9.57963 534.355 10.1725 534.355 10.9665V15H531.878V6.45656H534.244V7.58404ZM546.946 10.76C546.946 10.7918 546.93 11.0141 546.898 11.427H540.435C540.552 11.9563 540.827 12.3745 541.261 12.6815C541.695 12.9885 542.235 13.142 542.881 13.142C543.325 13.142 543.717 13.0785 544.056 12.9515C544.405 12.8139 544.728 12.6021 545.024 12.3163L546.343 13.7455C545.538 14.6665 544.363 15.127 542.817 15.127C541.854 15.127 541.002 14.9418 540.26 14.5712C539.519 14.1901 538.948 13.6661 538.545 12.9991C538.143 12.3322 537.942 11.5752 537.942 10.7283C537.942 9.89193 538.138 9.14028 538.53 8.47332C538.932 7.79577 539.477 7.27173 540.165 6.9012C540.864 6.52008 541.642 6.32952 542.5 6.32952C543.336 6.32952 544.093 6.50949 544.77 6.86944C545.448 7.22939 545.977 7.74813 546.358 8.42568C546.75 9.09264 546.946 9.87076 546.946 10.76ZM542.515 8.20336C541.954 8.20336 541.483 8.36216 541.102 8.67976C540.721 8.99736 540.488 9.43141 540.403 9.98192H544.612C544.527 9.442 544.294 9.01324 543.913 8.69564C543.532 8.36745 543.066 8.20336 542.515 8.20336ZM558.079 3.884C559.063 3.884 559.916 4.04809 560.636 4.37628C561.366 4.70447 561.927 5.17028 562.319 5.77372C562.711 6.37716 562.906 7.09176 562.906 7.91752C562.906 8.73269 562.711 9.44729 562.319 10.0613C561.927 10.6648 561.366 11.1306 560.636 11.4588C559.916 11.7764 559.063 11.9352 558.079 11.9352H555.84V15H553.267V3.884H558.079ZM557.936 9.839C558.709 9.839 559.296 9.67491 559.699 9.34672C560.101 9.00795 560.302 8.53155 560.302 7.91752C560.302 7.29291 560.101 6.81651 559.699 6.48832C559.296 6.14955 558.709 5.98016 557.936 5.98016H555.84V9.839H557.936ZM573.141 6.45656L569.537 15H566.98L563.391 6.45656H565.948L568.314 12.2686L570.759 6.45656H573.141ZM579.895 14.5871C579.652 14.7671 579.35 14.9047 578.99 15C578.641 15.0847 578.27 15.127 577.878 15.127C576.862 15.127 576.073 14.8677 575.512 14.3489C574.962 13.8302 574.686 13.0679 574.686 12.0622V8.55272H573.368V6.64712H574.686V4.56684H577.164V6.64712H579.292V8.55272H577.164V12.0304C577.164 12.3904 577.254 12.6709 577.434 12.8721C577.624 13.0626 577.889 13.1579 578.228 13.1579C578.619 13.1579 578.953 13.0521 579.228 12.8403L579.895 14.5871ZM585.958 3.884H588.53V12.9038H594.104V15H585.958V3.884ZM600.8 14.5871C600.556 14.7671 600.254 14.9047 599.894 15C599.545 15.0847 599.175 15.127 598.783 15.127C597.767 15.127 596.978 14.8677 596.417 14.3489C595.866 13.8302 595.591 13.0679 595.591 12.0622V8.55272H594.273V6.64712H595.591V4.56684H598.068V6.64712H600.196V8.55272H598.068V12.0304C598.068 12.3904 598.158 12.6709 598.338 12.8721C598.529 13.0626 598.793 13.1579 599.132 13.1579C599.524 13.1579 599.857 13.0521 600.133 12.8403L600.8 14.5871ZM610.629 3.21704V15H608.263V14.0154C607.649 14.7565 606.759 15.127 605.595 15.127C604.79 15.127 604.06 14.9471 603.403 14.5871C602.758 14.2272 602.25 13.7137 601.879 13.0468C601.508 12.3798 601.323 11.607 601.323 10.7283C601.323 9.84959 601.508 9.07676 601.879 8.4098C602.25 7.74284 602.758 7.22939 603.403 6.86944C604.06 6.50949 604.79 6.32952 605.595 6.32952C606.685 6.32952 607.538 6.67359 608.152 7.36172V3.21704H610.629ZM606.024 13.0944C606.648 13.0944 607.167 12.8827 607.58 12.4592C607.993 12.0251 608.199 11.4482 608.199 10.7283C608.199 10.0084 607.993 9.43671 607.58 9.01324C607.167 8.57919 606.648 8.36216 606.024 8.36216C605.388 8.36216 604.864 8.57919 604.452 9.01324C604.039 9.43671 603.832 10.0084 603.832 10.7283C603.832 11.4482 604.039 12.0251 604.452 12.4592C604.864 12.8827 605.388 13.0944 606.024 13.0944ZM396.437 22.884C397.856 22.884 398.967 23.2228 399.772 23.9003C400.577 24.5779 400.979 25.5095 400.979 26.6952C400.979 27.8809 400.577 28.8125 399.772 29.4901C398.967 30.157 397.856 30.4905 396.437 30.4905H393.452V34H392.277V22.884H396.437ZM396.405 29.4583C397.506 29.4583 398.348 29.2201 398.93 28.7437C399.513 28.2567 399.804 27.5739 399.804 26.6952C399.804 25.7953 399.513 25.1072 398.93 24.6308C398.348 24.1438 397.506 23.9003 396.405 23.9003H393.452V29.4583H396.405ZM410.964 25.6471V34H409.884V32.4755C409.588 32.9837 409.18 33.3807 408.661 33.6665C408.142 33.9418 407.55 34.0794 406.883 34.0794C405.792 34.0794 404.929 33.7777 404.294 33.1742C403.67 32.5602 403.357 31.6656 403.357 30.4905V25.6471H404.485V30.3794C404.485 31.2581 404.702 31.925 405.136 32.3802C405.57 32.8355 406.189 33.0631 406.994 33.0631C407.872 33.0631 408.566 32.7984 409.074 32.2691C409.582 31.7292 409.836 30.9828 409.836 30.03V25.6471H410.964ZM418.377 25.5836C419.425 25.5836 420.257 25.8906 420.871 26.5046C421.495 27.1081 421.807 27.9921 421.807 29.1566V34H420.68V29.2678C420.68 28.3997 420.463 27.738 420.029 27.2828C419.595 26.8275 418.976 26.5999 418.171 26.5999C417.271 26.5999 416.556 26.8699 416.027 27.4098C415.508 27.9391 415.249 28.6749 415.249 29.6171V34H414.122V25.6471H415.201V27.1875C415.508 26.6793 415.932 26.2876 416.472 26.0124C417.022 25.7265 417.658 25.5836 418.377 25.5836ZM432.173 30.1729H425.185C425.249 31.041 425.582 31.745 426.186 32.285C426.789 32.8143 427.551 33.079 428.472 33.079C428.991 33.079 429.468 32.989 429.902 32.809C430.336 32.6184 430.712 32.3432 431.029 31.9832L431.664 32.7137C431.294 33.1584 430.828 33.4971 430.267 33.73C429.716 33.9629 429.108 34.0794 428.441 34.0794C427.583 34.0794 426.821 33.8994 426.154 33.5395C425.498 33.1689 424.984 32.6608 424.614 32.015C424.243 31.3692 424.058 30.6387 424.058 29.8236C424.058 29.0084 424.233 28.2779 424.582 27.6321C424.942 26.9863 425.429 26.4835 426.043 26.1235C426.667 25.7636 427.366 25.5836 428.139 25.5836C428.912 25.5836 429.605 25.7636 430.219 26.1235C430.833 26.4835 431.315 26.9863 431.664 27.6321C432.014 28.2673 432.188 28.9978 432.188 29.8236L432.173 30.1729ZM428.139 26.5523C427.334 26.5523 426.657 26.8117 426.106 27.3304C425.566 27.8386 425.259 28.5055 425.185 29.3313H431.109C431.034 28.5055 430.722 27.8386 430.172 27.3304C429.632 26.8117 428.954 26.5523 428.139 26.5523Z" fill="white"/>
<path d="M397.157 51.8037C397.157 52.7061 396.831 53.417 396.18 53.9365C395.533 54.4561 394.63 54.7158 393.473 54.7158C392.406 54.7158 391.463 54.5153 390.643 54.1143V52.1455C391.317 52.4463 391.887 52.6582 392.352 52.7812C392.821 52.9043 393.249 52.9658 393.637 52.9658C394.102 52.9658 394.457 52.877 394.703 52.6992C394.954 52.5215 395.079 52.2572 395.079 51.9062C395.079 51.7103 395.024 51.5371 394.915 51.3867C394.806 51.2318 394.644 51.0837 394.43 50.9424C394.22 50.8011 393.789 50.5755 393.138 50.2656C392.527 49.9785 392.069 49.7028 391.764 49.4385C391.458 49.1742 391.215 48.8665 391.032 48.5156C390.85 48.1647 390.759 47.7546 390.759 47.2852C390.759 46.401 391.057 45.7061 391.654 45.2002C392.256 44.6943 393.085 44.4414 394.143 44.4414C394.662 44.4414 395.157 44.5029 395.626 44.626C396.1 44.749 396.594 44.9222 397.109 45.1455L396.426 46.793C395.893 46.5742 395.451 46.4215 395.1 46.335C394.753 46.2484 394.411 46.2051 394.074 46.2051C393.673 46.2051 393.366 46.2985 393.151 46.4854C392.937 46.6722 392.83 46.916 392.83 47.2168C392.83 47.4036 392.873 47.5677 392.96 47.709C393.047 47.8457 393.183 47.9801 393.37 48.1123C393.562 48.2399 394.01 48.4723 394.717 48.8096C395.651 49.2562 396.291 49.7051 396.638 50.1562C396.984 50.6029 397.157 51.152 397.157 51.8037ZM400.466 50.7441C400.466 51.5007 400.589 52.0726 400.835 52.46C401.086 52.8473 401.491 53.041 402.052 53.041C402.608 53.041 403.007 52.8496 403.248 52.4668C403.494 52.0794 403.617 51.5052 403.617 50.7441C403.617 49.9876 403.494 49.4202 403.248 49.042C403.002 48.6637 402.599 48.4746 402.038 48.4746C401.482 48.4746 401.081 48.6637 400.835 49.042C400.589 49.4157 400.466 49.9831 400.466 50.7441ZM405.75 50.7441C405.75 51.9883 405.422 52.9613 404.766 53.6631C404.109 54.3649 403.196 54.7158 402.024 54.7158C401.291 54.7158 400.644 54.5563 400.083 54.2373C399.522 53.9137 399.092 53.4512 398.791 52.8496C398.49 52.248 398.34 51.5462 398.34 50.7441C398.34 49.4954 398.666 48.5247 399.317 47.832C399.969 47.1393 400.885 46.793 402.065 46.793C402.799 46.793 403.446 46.9525 404.007 47.2715C404.567 47.5905 404.998 48.0485 405.299 48.6455C405.6 49.2425 405.75 49.9421 405.75 50.7441ZM411.697 48.502H409.893V54.5791H407.808V48.502H406.659V47.4971L407.808 46.9365V46.376C407.808 45.5055 408.022 44.8698 408.45 44.4688C408.879 44.0677 409.564 43.8672 410.508 43.8672C411.228 43.8672 411.868 43.9743 412.429 44.1885L411.896 45.7197C411.476 45.5876 411.089 45.5215 410.733 45.5215C410.437 45.5215 410.223 45.6104 410.091 45.7881C409.959 45.9613 409.893 46.1846 409.893 46.458V46.9365H411.697V48.502ZM416.12 53.0547C416.485 53.0547 416.922 52.9749 417.433 52.8154V54.3672C416.913 54.5996 416.275 54.7158 415.519 54.7158C414.685 54.7158 414.076 54.5062 413.693 54.0869C413.315 53.6631 413.126 53.0296 413.126 52.1865V48.502H412.128V47.6201L413.276 46.9229L413.878 45.3096H415.211V46.9365H417.351V48.502H415.211V52.1865C415.211 52.4827 415.293 52.7015 415.457 52.8428C415.626 52.984 415.847 53.0547 416.12 53.0547ZM425.267 54.5791L424.679 51.9062L423.886 48.5293H423.838L422.443 54.5791H420.201L418.027 46.9365H420.105L420.987 50.3203C421.129 50.9264 421.272 51.7627 421.418 52.8291H421.459C421.477 52.4827 421.557 51.9336 421.698 51.1816L421.808 50.6006L422.751 46.9365H425.048L425.943 50.6006C425.962 50.7008 425.989 50.849 426.025 51.0449C426.066 51.2409 426.105 51.4505 426.142 51.6738C426.178 51.8926 426.21 52.109 426.237 52.3232C426.269 52.5329 426.287 52.7015 426.292 52.8291H426.333C426.374 52.501 426.447 52.0521 426.552 51.4824C426.657 50.9082 426.732 50.5208 426.777 50.3203L427.693 46.9365H429.737L427.536 54.5791H425.267ZM435.828 54.5791L435.425 53.54H435.37C435.019 53.9821 434.657 54.2897 434.283 54.4629C433.914 54.6315 433.431 54.7158 432.834 54.7158C432.1 54.7158 431.521 54.5062 431.098 54.0869C430.678 53.6676 430.469 53.0706 430.469 52.2959C430.469 51.4847 430.751 50.8877 431.316 50.5049C431.886 50.1175 432.743 49.9033 433.887 49.8623L435.213 49.8213V49.4863C435.213 48.7116 434.816 48.3242 434.023 48.3242C433.413 48.3242 432.695 48.5088 431.87 48.8779L431.18 47.4697C432.059 47.0094 433.035 46.7793 434.105 46.7793C435.131 46.7793 435.917 47.0026 436.464 47.4492C437.011 47.8958 437.284 48.5749 437.284 49.4863V54.5791H435.828ZM435.213 51.0381L434.406 51.0654C433.8 51.0837 433.349 51.193 433.053 51.3936C432.757 51.5941 432.608 51.8994 432.608 52.3096C432.608 52.8975 432.946 53.1914 433.62 53.1914C434.103 53.1914 434.488 53.0524 434.775 52.7744C435.067 52.4964 435.213 52.1273 435.213 51.667V51.0381ZM443.703 46.793C443.986 46.793 444.22 46.8135 444.407 46.8545L444.25 48.8096C444.081 48.764 443.876 48.7412 443.635 48.7412C442.969 48.7412 442.45 48.9121 442.076 49.2539C441.707 49.5957 441.522 50.0742 441.522 50.6895V54.5791H439.438V46.9365H441.017L441.324 48.2217H441.427C441.664 47.7933 441.983 47.4492 442.384 47.1895C442.789 46.9251 443.229 46.793 443.703 46.793ZM448.96 48.2764C448.518 48.2764 448.172 48.4176 447.921 48.7002C447.67 48.9782 447.527 49.3747 447.49 49.8896H450.416C450.407 49.3747 450.272 48.9782 450.013 48.7002C449.753 48.4176 449.402 48.2764 448.96 48.2764ZM449.254 54.7158C448.023 54.7158 447.062 54.3763 446.369 53.6973C445.676 53.0182 445.33 52.0566 445.33 50.8125C445.33 49.5319 445.649 48.543 446.287 47.8457C446.93 47.1439 447.816 46.793 448.946 46.793C450.026 46.793 450.867 47.1006 451.469 47.7158C452.07 48.3311 452.371 49.181 452.371 50.2656V51.2773H447.442C447.465 51.8698 447.641 52.3324 447.969 52.665C448.297 52.9977 448.757 53.1641 449.35 53.1641C449.81 53.1641 450.245 53.1162 450.655 53.0205C451.065 52.9248 451.494 52.7721 451.94 52.5625V54.1758C451.576 54.3581 451.186 54.4925 450.771 54.5791C450.357 54.6702 449.851 54.7158 449.254 54.7158ZM466.159 49.4863C466.159 51.1315 465.69 52.3916 464.751 53.2666C463.817 54.1416 462.465 54.5791 460.697 54.5791H457.867V44.585H461.005C462.636 44.585 463.903 45.0156 464.806 45.877C465.708 46.7383 466.159 47.9414 466.159 49.4863ZM463.958 49.541C463.958 47.3945 463.01 46.3213 461.114 46.3213H459.986V52.8291H460.896C462.937 52.8291 463.958 51.7331 463.958 49.541ZM471.231 48.2764C470.789 48.2764 470.443 48.4176 470.192 48.7002C469.942 48.9782 469.798 49.3747 469.762 49.8896H472.688C472.678 49.3747 472.544 48.9782 472.284 48.7002C472.024 48.4176 471.674 48.2764 471.231 48.2764ZM471.525 54.7158C470.295 54.7158 469.333 54.3763 468.641 53.6973C467.948 53.0182 467.602 52.0566 467.602 50.8125C467.602 49.5319 467.921 48.543 468.559 47.8457C469.201 47.1439 470.088 46.793 471.218 46.793C472.298 46.793 473.139 47.1006 473.74 47.7158C474.342 48.3311 474.643 49.181 474.643 50.2656V51.2773H469.714C469.737 51.8698 469.912 52.3324 470.24 52.665C470.568 52.9977 471.029 53.1641 471.621 53.1641C472.081 53.1641 472.517 53.1162 472.927 53.0205C473.337 52.9248 473.765 52.7721 474.212 52.5625V54.1758C473.847 54.3581 473.458 54.4925 473.043 54.5791C472.628 54.6702 472.122 54.7158 471.525 54.7158ZM478.156 54.5791L475.244 46.9365H477.425L478.901 51.291C479.065 51.8424 479.168 52.3643 479.209 52.8564H479.25C479.273 52.4189 479.375 51.8971 479.558 51.291L481.027 46.9365H483.208L480.296 54.5791H478.156ZM487.474 48.2764C487.032 48.2764 486.685 48.4176 486.435 48.7002C486.184 48.9782 486.04 49.3747 486.004 49.8896H488.93C488.921 49.3747 488.786 48.9782 488.526 48.7002C488.267 48.4176 487.916 48.2764 487.474 48.2764ZM487.768 54.7158C486.537 54.7158 485.576 54.3763 484.883 53.6973C484.19 53.0182 483.844 52.0566 483.844 50.8125C483.844 49.5319 484.163 48.543 484.801 47.8457C485.443 47.1439 486.33 46.793 487.46 46.793C488.54 46.793 489.381 47.1006 489.982 47.7158C490.584 48.3311 490.885 49.181 490.885 50.2656V51.2773H485.956C485.979 51.8698 486.154 52.3324 486.482 52.665C486.811 52.9977 487.271 53.1641 487.863 53.1641C488.324 53.1641 488.759 53.1162 489.169 53.0205C489.579 52.9248 490.007 52.7721 490.454 52.5625V54.1758C490.09 54.3581 489.7 54.4925 489.285 54.5791C488.87 54.6702 488.365 54.7158 487.768 54.7158ZM494.665 54.5791H492.58V43.9424H494.665V54.5791ZM498.521 50.7441C498.521 51.5007 498.644 52.0726 498.89 52.46C499.14 52.8473 499.546 53.041 500.106 53.041C500.662 53.041 501.061 52.8496 501.303 52.4668C501.549 52.0794 501.672 51.5052 501.672 50.7441C501.672 49.9876 501.549 49.4202 501.303 49.042C501.057 48.6637 500.653 48.4746 500.093 48.4746C499.537 48.4746 499.136 48.6637 498.89 49.042C498.644 49.4157 498.521 49.9831 498.521 50.7441ZM503.805 50.7441C503.805 51.9883 503.477 52.9613 502.82 53.6631C502.164 54.3649 501.25 54.7158 500.079 54.7158C499.345 54.7158 498.698 54.5563 498.138 54.2373C497.577 53.9137 497.146 53.4512 496.846 52.8496C496.545 52.248 496.395 51.5462 496.395 50.7441C496.395 49.4954 496.72 48.5247 497.372 47.832C498.024 47.1393 498.94 46.793 500.12 46.793C500.854 46.793 501.501 46.9525 502.062 47.2715C502.622 47.5905 503.053 48.0485 503.354 48.6455C503.654 49.2425 503.805 49.9421 503.805 50.7441ZM509.725 54.7158C508.827 54.7158 508.123 54.39 507.612 53.7383H507.503C507.576 54.3763 507.612 54.7454 507.612 54.8457V57.9424H505.527V46.9365H507.223L507.517 47.9277H507.612C508.1 47.1712 508.822 46.793 509.779 46.793C510.682 46.793 511.388 47.1416 511.898 47.8389C512.409 48.5361 512.664 49.5046 512.664 50.7441C512.664 51.5599 512.543 52.2686 512.302 52.8701C512.065 53.4717 511.725 53.9297 511.283 54.2441C510.841 54.5586 510.322 54.7158 509.725 54.7158ZM509.109 48.4609C508.594 48.4609 508.218 48.6204 507.981 48.9395C507.744 49.2539 507.621 49.7757 507.612 50.5049V50.7305C507.612 51.5508 507.733 52.1387 507.975 52.4941C508.221 52.8496 508.608 53.0273 509.137 53.0273C510.071 53.0273 510.538 52.2572 510.538 50.7168C510.538 49.9648 510.422 49.402 510.189 49.0283C509.962 48.6501 509.602 48.4609 509.109 48.4609ZM517.552 48.2764C517.11 48.2764 516.763 48.4176 516.513 48.7002C516.262 48.9782 516.118 49.3747 516.082 49.8896H519.008C518.999 49.3747 518.864 48.9782 518.604 48.7002C518.345 48.4176 517.994 48.2764 517.552 48.2764ZM517.846 54.7158C516.615 54.7158 515.654 54.3763 514.961 53.6973C514.268 53.0182 513.922 52.0566 513.922 50.8125C513.922 49.5319 514.241 48.543 514.879 47.8457C515.521 47.1439 516.408 46.793 517.538 46.793C518.618 46.793 519.459 47.1006 520.061 47.7158C520.662 48.3311 520.963 49.181 520.963 50.2656V51.2773H516.034C516.057 51.8698 516.232 52.3324 516.561 52.665C516.889 52.9977 517.349 53.1641 517.941 53.1641C518.402 53.1641 518.837 53.1162 519.247 53.0205C519.657 52.9248 520.086 52.7721 520.532 52.5625V54.1758C520.168 54.3581 519.778 54.4925 519.363 54.5791C518.949 54.6702 518.443 54.7158 517.846 54.7158ZM526.924 46.793C527.206 46.793 527.441 46.8135 527.628 46.8545L527.471 48.8096C527.302 48.764 527.097 48.7412 526.855 48.7412C526.19 48.7412 525.671 48.9121 525.297 49.2539C524.928 49.5957 524.743 50.0742 524.743 50.6895V54.5791H522.658V46.9365H524.237L524.545 48.2217H524.647C524.884 47.7933 525.203 47.4492 525.604 47.1895C526.01 46.9251 526.45 46.793 526.924 46.793Z" fill="white"/>
<path d="M476.711 84.1074C476.711 85.1191 476.365 85.8984 475.672 86.4453C474.984 86.9876 473.997 87.2588 472.712 87.2588H471.536V91.1895H470.374V81.1953H472.965C475.462 81.1953 476.711 82.166 476.711 84.1074ZM471.536 86.2607H472.582C473.612 86.2607 474.357 86.0944 474.817 85.7617C475.278 85.429 475.508 84.8958 475.508 84.1621C475.508 83.5013 475.291 83.0091 474.858 82.6855C474.425 82.362 473.751 82.2002 472.835 82.2002H471.536V86.2607ZM482.057 83.5605C482.389 83.5605 482.688 83.5879 482.952 83.6426L482.795 84.6953C482.485 84.627 482.212 84.5928 481.975 84.5928C481.368 84.5928 480.849 84.8389 480.416 85.3311C479.988 85.8232 479.773 86.4362 479.773 87.1699V91.1895H478.639V83.6973H479.575L479.705 85.085H479.76C480.038 84.5973 480.373 84.2214 480.765 83.957C481.157 83.6927 481.587 83.5605 482.057 83.5605ZM487.519 91.3262C486.411 91.3262 485.536 90.9889 484.894 90.3145C484.256 89.64 483.937 88.7035 483.937 87.5049C483.937 86.2972 484.233 85.3379 484.825 84.627C485.422 83.916 486.222 83.5605 487.225 83.5605C488.163 83.5605 488.906 83.8704 489.453 84.4902C490 85.1055 490.273 85.9189 490.273 86.9307V87.6484H485.112C485.135 88.528 485.356 89.1956 485.775 89.6514C486.199 90.1071 486.794 90.335 487.56 90.335C488.366 90.335 489.164 90.1663 489.952 89.8291V90.8408C489.551 91.014 489.171 91.137 488.811 91.21C488.455 91.2874 488.024 91.3262 487.519 91.3262ZM487.211 84.5107C486.609 84.5107 486.129 84.7067 485.769 85.0986C485.413 85.4906 485.203 86.0329 485.14 86.7256H489.057C489.057 86.0101 488.897 85.4632 488.578 85.085C488.259 84.7021 487.803 84.5107 487.211 84.5107ZM497.048 89.1455C497.048 89.8428 496.788 90.3805 496.269 90.7588C495.749 91.137 495.02 91.3262 494.081 91.3262C493.088 91.3262 492.313 91.1689 491.757 90.8545V89.8018C492.117 89.984 492.502 90.1276 492.912 90.2324C493.327 90.3372 493.726 90.3896 494.108 90.3896C494.701 90.3896 495.157 90.2962 495.476 90.1094C495.795 89.918 495.954 89.6286 495.954 89.2412C495.954 88.9495 495.826 88.7012 495.571 88.4961C495.321 88.2865 494.828 88.0404 494.095 87.7578C493.397 87.498 492.901 87.2725 492.604 87.0811C492.313 86.8851 492.094 86.6641 491.948 86.418C491.807 86.1719 491.736 85.8779 491.736 85.5361C491.736 84.9255 491.985 84.4447 492.481 84.0938C492.978 83.7383 493.66 83.5605 494.525 83.5605C495.332 83.5605 496.12 83.7246 496.891 84.0527L496.487 84.9756C495.735 84.6657 495.054 84.5107 494.443 84.5107C493.906 84.5107 493.5 84.5951 493.227 84.7637C492.953 84.9323 492.816 85.1647 492.816 85.4609C492.816 85.6615 492.867 85.8324 492.967 85.9736C493.072 86.1149 493.238 86.2493 493.466 86.377C493.694 86.5046 494.131 86.6891 494.778 86.9307C495.667 87.2542 496.266 87.5801 496.576 87.9082C496.891 88.2363 497.048 88.6488 497.048 89.1455ZM502.065 91.3262C500.958 91.3262 500.083 90.9889 499.44 90.3145C498.802 89.64 498.483 88.7035 498.483 87.5049C498.483 86.2972 498.78 85.3379 499.372 84.627C499.969 83.916 500.769 83.5605 501.771 83.5605C502.71 83.5605 503.453 83.8704 504 84.4902C504.547 85.1055 504.82 85.9189 504.82 86.9307V87.6484H499.659C499.682 88.528 499.903 89.1956 500.322 89.6514C500.746 90.1071 501.341 90.335 502.106 90.335C502.913 90.335 503.711 90.1663 504.499 89.8291V90.8408C504.098 91.014 503.717 91.137 503.357 91.21C503.002 91.2874 502.571 91.3262 502.065 91.3262ZM501.758 84.5107C501.156 84.5107 500.675 84.7067 500.315 85.0986C499.96 85.4906 499.75 86.0329 499.687 86.7256H503.604C503.604 86.0101 503.444 85.4632 503.125 85.085C502.806 84.7021 502.35 84.5107 501.758 84.5107ZM511.889 91.1895V86.3428C511.889 85.7321 511.75 85.2764 511.472 84.9756C511.194 84.6748 510.758 84.5244 510.166 84.5244C509.382 84.5244 508.808 84.7363 508.443 85.1602C508.079 85.584 507.896 86.2835 507.896 87.2588V91.1895H506.762V83.6973H507.685L507.869 84.7227H507.924C508.156 84.3535 508.482 84.0687 508.901 83.8682C509.321 83.6631 509.788 83.5605 510.303 83.5605C511.205 83.5605 511.884 83.7793 512.34 84.2168C512.796 84.6497 513.023 85.3447 513.023 86.3018V91.1895H511.889ZM517.781 90.3896C517.982 90.3896 518.175 90.376 518.362 90.3486C518.549 90.3167 518.697 90.2848 518.807 90.2529V91.1211C518.684 91.1803 518.501 91.2282 518.26 91.2646C518.023 91.3057 517.809 91.3262 517.617 91.3262C516.168 91.3262 515.443 90.5628 515.443 89.0361V84.5791H514.37V84.0322L515.443 83.5605L515.922 81.9609H516.578V83.6973H518.752V84.5791H516.578V88.9883C516.578 89.4395 516.685 89.7858 516.899 90.0273C517.114 90.2689 517.408 90.3896 517.781 90.3896Z" fill="white"/>
<path d="M47 495C47 504.389 39.3888 512 30 512C20.6112 512 13 504.389 13 495C13 485.611 20.6112 478 30 478C39.3888 478 47 485.611 47 495Z" fill="white" stroke="#7FC8BD" stroke-width="6"/>
<path d="M50 489C290.5 464.41 133 303.557 170.5 217M209 187.5C289.5 162.91 434.5 316.147 434.5 115" stroke="#FEFEFE" stroke-width="3" stroke-linecap="round" stroke-linejoin="bevel"/>
<path d="M204 201C204 210.389 196.389 218 187 218C177.611 218 170 210.389 170 201C170 191.611 177.611 184 187 184C196.389 184 204 191.611 204 201Z" fill="white" stroke="#7FC8BD" stroke-width="6"/>
<path d="M449 93C449 102.389 441.389 110 432 110C422.611 110 415 102.389 415 93C415 83.6112 422.611 76 432 76C441.389 76 449 83.6112 449 93Z" fill="white" stroke="#7FC8BD" stroke-width="6"/>
</svg>
