<svg width="488" height="509" viewBox="0 0 488 509" fill="none" xmlns="http://www.w3.org/2000/svg">
<g clip-path="url(#clip0)">
<path d="M38.7229 295.323L44.8722 293.762C44.8722 293.762 47.5256 283.89 48.7029 268.99C50.2869 248.949 42.5189 233.89 32.8402 227.654C21.3496 220.249 15.3216 227.017 16.0136 232.335C16.7429 237.953 22.8136 245.879 25.7056 251.359C29.8949 259.295 36.2322 271.313 38.7229 295.323Z" fill="#00DFBF"/>
<g opacity="0.199997">
<g opacity="0.199997">
<path opacity="0.199997" d="M38.7229 295.323L44.8722 293.762C44.8722 293.762 47.5256 283.89 48.7029 268.99C50.2869 248.949 42.5189 233.89 32.8402 227.654C21.3496 220.249 15.3216 227.017 16.0136 232.335C16.7429 237.953 22.8136 245.879 25.7056 251.359C29.8949 259.295 36.2322 271.313 38.7229 295.323Z" fill="black"/>
</g>
</g>
<path d="M41.6845 295.024C41.6539 295.024 41.6232 295.023 41.5925 295.015C41.3472 294.964 41.1885 294.724 41.2392 294.479C48.5939 258.886 33.4712 233.522 24.1339 228.436C23.9152 228.316 23.8325 228.04 23.9539 227.82C24.0725 227.602 24.3485 227.519 24.5699 227.639C34.4125 233 49.6699 258.164 42.1285 294.663C42.0845 294.879 41.8952 295.024 41.6845 295.024Z" fill="white"/>
<path d="M38.7229 295.323C38.7229 295.323 39.6682 285.404 36.1749 275.611C32.6816 265.817 27.1962 256.727 16.2309 253.375C5.26425 250.021 -3.38242 257.979 2.05625 265.293C7.49492 272.605 27.6802 277.145 31.6136 300.059L38.7229 295.323Z" fill="#00DFBF"/>
<path d="M35.5869 297.867C35.5736 297.867 35.5603 297.866 35.5456 297.865C35.2963 297.842 35.1122 297.622 35.1349 297.374C36.7789 278.921 24.3336 260.613 7.95625 257.394C7.70959 257.346 7.54958 257.107 7.59758 256.861C7.64558 256.615 7.88425 256.454 8.13092 256.503C24.9429 259.807 37.7229 278.561 36.0389 297.453C36.0176 297.69 35.8203 297.867 35.5869 297.867Z" fill="white"/>
<path d="M438.011 444.237C438.011 444.237 440.103 424.448 452.443 411.156C464.784 397.865 477.953 397.989 483.081 402.758C488.209 407.525 482.936 414.964 471.479 422.202C461.665 428.4 448.696 442.462 444.704 451.965L438.011 444.237Z" fill="#00DFBF"/>
<g opacity="0.199997">
<g opacity="0.199997">
<path opacity="0.199997" d="M438.011 444.237C438.011 444.237 440.103 424.448 452.443 411.156C464.784 397.865 477.953 397.989 483.081 402.758C488.209 407.525 482.936 414.964 471.479 422.202C461.665 428.4 448.696 442.462 444.704 451.965L438.011 444.237Z" fill="black"/>
</g>
</g>
<path d="M440.852 447.977C440.814 447.977 440.774 447.973 440.736 447.962C440.49 447.898 440.342 447.647 440.406 447.401C445.653 427.219 463.256 406.885 478.08 403.887C478.324 403.837 478.57 403.998 478.621 404.246C478.67 404.495 478.51 404.737 478.261 404.787C463.738 407.725 446.465 427.746 441.297 447.633C441.244 447.839 441.056 447.977 440.852 447.977Z" fill="white"/>
<path d="M440.142 490.608C440.142 490.608 449.257 493.196 455.824 488.677C461.438 484.812 460.042 480.688 460.693 477.513C461.345 474.34 464.094 472.631 468.684 472.028C474.345 471.287 479.625 470.401 480.616 464.429C481.49 459.16 472.792 456.312 475.384 451.179C477.342 447.293 481.745 444.701 485.374 441.788C488.986 438.888 486.841 432.655 478.17 432.643C467.428 432.631 465.189 436.591 460.393 437.269C455.598 437.947 452.926 435.136 447.684 435.824C441.892 436.585 439.056 442.127 438.918 449.059L440.142 490.608Z" fill="#00DFBF"/>
<path d="M439.547 470.86C439.497 470.86 439.445 470.852 439.394 470.834C439.154 470.748 439.029 470.486 439.114 470.247C443.901 456.767 469.674 437.976 480.537 436.055C480.781 436.006 481.023 436.176 481.07 436.428C481.113 436.676 480.947 436.916 480.695 436.959C470.018 438.848 444.682 457.311 439.981 470.555C439.913 470.742 439.738 470.86 439.547 470.86Z" fill="white"/>
<path d="M474.825 462.944C474.753 462.944 474.682 462.927 474.615 462.894C467.898 459.436 456.526 456.916 447.781 458.795C447.538 458.843 447.29 458.691 447.235 458.44C447.182 458.194 447.341 457.95 447.589 457.895C456.543 455.976 468.173 458.543 475.034 462.076C475.261 462.192 475.35 462.47 475.233 462.695C475.151 462.854 474.99 462.944 474.825 462.944Z" fill="white"/>
<path d="M452.443 454.124C452.19 454.123 451.983 453.917 451.983 453.663C452 445.599 449.272 441.679 449.246 441.64C449.098 441.432 449.146 441.147 449.352 440.999C449.559 440.849 449.844 440.897 449.992 441.103C450.111 441.271 452.919 445.275 452.903 453.664C452.903 453.919 452.696 454.124 452.443 454.124Z" fill="white"/>
<path d="M115.355 1.01247L116.152 0.552465C117.428 -0.183534 119.495 -0.183534 120.771 0.552465L251.555 76.0605C252.83 76.7965 253.863 78.5871 253.863 80.0605L253.864 262.344C253.864 263.818 252.831 265.607 251.555 266.344L250.758 266.804C249.482 267.54 247.414 267.54 246.138 266.804L115.356 191.296C114.08 190.56 113.047 188.77 113.047 187.296L113.046 5.01247C113.046 3.54047 114.079 1.74847 115.355 1.01247Z" fill="#FAFAFA"/>
<path d="M253.865 171.202L253.864 80.0605C253.864 79.3231 253.606 78.5071 253.188 77.7831L245.734 82.0871V266.571L246.138 266.804C247.414 267.54 249.481 267.54 250.757 266.804L251.556 266.343C252.832 265.607 253.865 263.816 253.865 262.344V171.202Z" fill="#E1E1E1"/>
<path d="M115.355 3.67946L246.138 79.1875C247.414 79.9235 248.447 81.7141 248.447 83.1874V265.471C248.447 266.945 247.414 267.541 246.138 266.805L115.356 191.297C114.08 190.561 113.047 188.77 113.047 187.297L113.046 5.01279C113.046 3.54079 114.079 2.94346 115.355 3.67946Z" fill="#F5F5F5"/>
<path d="M131.604 25.5675L229.891 82.3128C231.165 83.0501 232.2 84.8408 232.2 86.3128V93.4875C232.2 94.9608 231.165 95.5581 229.891 94.8208L131.604 38.0755C130.328 37.3395 129.295 35.5475 129.295 34.0755V26.9008C129.295 25.4288 130.328 24.8315 131.604 25.5675Z" fill="#E1E1E1"/>
<path d="M142.834 57.0675C150.312 61.3848 156.374 71.8848 156.374 80.5195C156.374 89.1542 150.312 92.6542 142.834 88.3368C135.357 84.0195 129.294 73.5195 129.294 64.8848C129.294 56.2502 135.357 52.7502 142.834 57.0675" fill="#E1E1E1"/>
<path d="M142.942 62.0876C140.319 60.573 138.191 61.801 138.191 64.8303C138.191 67.8596 140.319 71.5436 142.942 73.0583C145.566 74.573 147.692 73.345 147.692 70.3156C147.692 67.285 145.566 63.6023 142.942 62.0876Z" fill="#00DFBF"/>
<path d="M144.182 75.2909L141.487 73.7349C137.178 71.2456 133.682 73.2643 133.682 78.2403V78.9176C136.094 82.8696 139.301 86.2976 142.834 88.3376C146.369 90.3776 149.575 90.6536 151.986 89.4856V88.8083C151.986 83.8309 148.491 77.7789 144.182 75.2909Z" fill="#00DFBF"/>
<path d="M132.181 94.7117L153.488 107.013C155.083 107.934 156.375 110.08 156.375 111.806C156.375 113.534 155.083 114.188 153.488 113.268L132.181 100.965C130.587 100.045 129.295 97.8997 129.295 96.1717C129.295 94.445 130.587 93.7917 132.181 94.7117Z" fill="#E1E1E1"/>
<path d="M132.181 107.212L153.488 119.513C155.083 120.434 156.375 122.58 156.375 124.306C156.375 126.034 155.083 126.688 153.488 125.768L132.181 113.465C130.587 112.545 129.295 110.4 129.295 108.672C129.295 106.945 130.587 106.292 132.181 107.212Z" fill="#E1E1E1"/>
<path d="M132.181 119.712L153.488 132.013C155.083 132.934 156.375 135.08 156.375 136.806C156.375 138.534 155.083 139.188 153.488 138.268L132.181 125.965C130.587 125.045 129.295 122.9 129.295 121.172C129.295 119.445 130.587 118.792 132.181 119.712Z" fill="#E1E1E1"/>
<path d="M132.181 132.212L153.488 144.513C155.083 145.434 156.375 147.58 156.375 149.306C156.375 151.034 155.083 151.688 153.488 150.768L132.181 138.465C130.587 137.545 129.295 135.4 129.295 133.672C129.295 131.945 130.587 131.292 132.181 132.212Z" fill="#E1E1E1"/>
<path d="M132.181 150.98L153.488 163.282C155.083 164.202 156.376 166.441 156.376 168.282V180.377C156.376 182.217 155.083 182.964 153.488 182.044L132.181 169.742C130.588 168.821 129.295 166.582 129.295 164.742V152.646C129.295 150.806 130.588 150.06 132.181 150.98Z" fill="#00DFBF"/>
<path d="M175.509 69.6782L229.313 100.742C230.907 101.662 232.2 103.809 232.2 105.536C232.2 107.262 230.907 107.917 229.313 106.996L175.509 75.9316C173.915 75.0116 172.623 72.8662 172.623 71.1382C172.623 69.4116 173.915 68.7582 175.509 69.6782Z" fill="#00DFBF"/>
<path d="M175.509 82.1866L229.313 113.249C230.907 114.171 232.2 116.317 232.2 118.044C232.2 119.771 230.907 120.424 229.313 119.504L175.509 88.44C173.915 87.52 172.623 85.3733 172.623 83.6466C172.623 81.92 173.915 81.2666 175.509 82.1866Z" fill="#00DFBF"/>
<path d="M175.509 94.6948L229.313 125.759C230.907 126.679 232.2 128.825 232.2 130.552C232.2 132.279 230.907 132.933 229.313 132.012L175.509 100.948C173.915 100.028 172.623 97.8828 172.623 96.1548C172.623 94.4282 173.915 93.7748 175.509 94.6948Z" fill="#00DFBF"/>
<path d="M359.655 116.376L364.715 113.456C366.308 112.535 368.894 112.535 370.488 113.456L483.868 178.916C485.462 179.836 486.755 182.075 486.755 183.916V327.343C486.755 329.184 485.463 331.423 483.868 332.343L478.81 335.264C477.215 336.184 474.63 336.184 473.035 335.264L359.64 269.803C358.047 268.883 356.754 266.644 356.754 264.804L356.768 121.376C356.768 119.535 358.062 117.296 359.655 116.376Z" fill="#375A64"/>
<path d="M486.755 255.629V183.916C486.755 182.995 486.433 181.975 485.909 181.071L470.506 189.963V333.804L473.037 335.264C474.63 336.184 477.215 336.184 478.81 335.264L483.869 332.343C485.463 331.423 486.755 329.184 486.755 327.344V255.629Z" fill="#1A2E35"/>
<path d="M359.655 119.71L473.036 185.17C474.63 186.091 475.923 188.328 475.923 190.17V333.598C475.923 335.438 474.63 336.184 473.035 335.264L359.64 269.803C358.047 268.883 356.754 266.644 356.754 264.804L356.768 121.376C356.768 119.535 358.062 118.79 359.655 119.71Z" fill="#2B454E"/>
<path d="M464.904 189.802L367.772 133.723C366.177 132.802 364.885 133.548 364.885 135.39V244.42C364.885 246.262 366.178 248.5 367.772 249.42L464.905 305.499C466.498 306.42 467.792 305.674 467.792 303.832V194.802C467.792 192.962 466.498 190.722 464.904 189.802Z" fill="white"/>
<path d="M387.374 158.082C392.539 161.065 396.727 168.318 396.727 174.282C396.727 180.248 392.539 182.665 387.374 179.682C382.209 176.7 378.021 169.448 378.021 163.482C378.021 157.517 382.209 155.1 387.374 158.082" fill="#00DFBF"/>
<path d="M411.664 224.445L394.271 198.233C391.458 193.995 386.594 193.773 383.41 197.739L364.896 220.779V244.479C364.896 246.32 366.19 248.559 367.783 249.479L464.906 305.524C466.499 306.444 467.792 305.697 467.792 303.857V242.379L443.664 191.304C441.49 186.704 437.416 186.389 434.566 190.604L411.664 224.445Z" fill="#00DFBF"/>
<path d="M384.209 439.915L415.99 421.564C419.179 419.724 421.765 415.247 421.765 411.566L421.762 231.027C421.762 227.344 419.178 222.867 415.989 221.027L200.061 96.3603C196.873 94.5203 191.703 94.5203 188.514 96.3603L156.733 114.71C153.543 116.551 150.959 121.027 150.959 124.71V305.248C150.959 308.93 153.545 313.407 156.734 315.248L372.661 439.915C375.849 441.756 381.019 441.756 384.209 439.915Z" fill="#375A64"/>
<path d="M421.763 231.026C421.762 229.185 421.117 227.146 420.071 225.337L373.018 252.502V440.082C376.223 441.736 381.125 441.692 384.203 439.916L415.995 421.562C419.181 419.721 421.762 415.249 421.763 411.57V231.026Z" fill="#2B454E"/>
<path d="M372.66 246.043L156.732 121.376C153.544 119.536 150.959 121.028 150.959 124.709L150.96 305.248C150.96 308.929 153.544 313.407 156.734 315.248L372.66 439.915C375.85 441.756 378.434 440.263 378.434 436.581V256.043C378.434 252.36 375.85 247.883 372.66 246.043Z" fill="#2B454E"/>
<path d="M391.61 235.103C394.798 236.945 397.383 241.422 397.383 245.103V432.309L402.802 429.181L402.799 241.977C402.799 238.295 400.214 233.818 397.026 231.977L175.323 103.977L169.908 107.105L391.61 235.103Z" fill="#1A2E35"/>
<path d="M397.025 231.976L175.677 104.181L170.088 107.208L391.609 235.103C393.204 236.024 394.646 237.603 395.692 239.412L401.108 236.285C400.062 234.476 398.62 232.896 397.025 231.976Z" fill="#2B454E"/>
<path d="M363.469 203.212L359.657 201.011C358.062 200.091 355.477 200.091 353.884 201.011L339.238 209.466L336.797 208.724V211.851C336.797 212.455 337.196 213.059 337.993 213.518L343.052 216.439C344.646 217.359 347.23 217.359 348.825 216.439L364.716 207.264C365.512 206.804 365.91 206.202 365.91 205.599V202.471L363.469 203.212Z" fill="#1A2E35"/>
<path d="M364.715 200.804L359.656 197.884C358.062 196.964 355.476 196.964 353.883 197.884L337.992 207.057C336.398 207.979 336.398 209.471 337.992 210.391L343.051 213.312C344.646 214.232 347.231 214.232 348.824 213.312L364.715 204.137C366.308 203.217 366.308 201.724 364.715 200.804Z" fill="#375A64"/>
<path d="M233.484 128.173L229.672 125.972C228.077 125.052 225.491 125.052 223.897 125.972L209.252 134.427L206.812 133.685V136.812C206.812 137.416 207.209 138.02 208.007 138.479L213.067 141.4C214.66 142.32 217.245 142.32 218.84 141.4L234.729 132.225C235.525 131.765 235.924 131.163 235.924 130.56H235.925V127.432L233.484 128.173Z" fill="#1A2E35"/>
<path d="M234.729 125.765L229.671 122.845C228.076 121.925 225.492 121.925 223.897 122.845L208.007 132.018C206.412 132.94 206.412 134.432 208.007 135.352L213.065 138.273C214.66 139.193 217.245 139.193 218.84 138.273L234.729 129.098C236.323 128.178 236.323 126.685 234.729 125.765Z" fill="#375A64"/>
<path d="M275.528 127.427V146.187L264.701 152.44V123.84C264.701 122.36 265.728 121.774 267.008 122.507L275.528 127.427Z" fill="#1A2E35"/>
<path d="M332.314 147.32V182.187L324.275 186.84L318.861 183.707V155.107C318.861 153.64 317.821 151.84 316.555 151.107L275.527 127.427L267.009 122.507C265.729 121.773 264.701 122.36 264.701 123.84V152.44L259.275 149.307V114.453C259.275 114.307 259.287 114.147 259.314 114C259.487 112.627 260.449 111.107 261.594 110.453L265.021 108.467C266.287 107.733 268.354 107.733 269.634 108.467L330.009 143.32C331.287 144.067 332.314 145.853 332.314 147.32Z" fill="#375A64"/>
<path d="M324.275 151.973V186.84L318.86 183.707V155.107C318.86 153.64 317.82 151.84 316.555 151.107L275.527 127.427L267.008 122.507C265.728 121.773 264.7 122.36 264.7 123.84V152.44L259.275 149.307V114.453C259.275 114.307 259.288 114.147 259.314 114C259.515 112.867 260.462 112.467 261.594 113.12L321.968 147.973C323.235 148.72 324.275 150.507 324.275 151.973Z" fill="#2B454E"/>
<path d="M405.516 502.638L410.932 499.51L405.516 343.37C405.516 341.536 404.217 339.286 402.629 338.37L300.08 279.163C298.492 278.246 296.702 276.079 296.101 274.346L292.869 265.011C292.268 263.278 290.468 261.128 288.868 260.234L240.525 233.195C238.925 232.3 237.616 233.068 237.616 234.902V402.368C237.616 404.202 238.914 406.451 240.502 407.368L405.516 502.638Z" fill="#00DFBF"/>
<g opacity="0.199997">
<g opacity="0.199997">
<path opacity="0.199997" d="M405.516 502.638L410.932 499.51L405.516 343.37C405.516 341.536 404.217 339.286 402.629 338.37L300.08 279.163C298.492 278.246 296.702 276.079 296.101 274.346L292.869 265.011C292.268 263.278 290.468 261.128 288.868 260.234L240.525 233.195C238.925 232.3 237.616 233.068 237.616 234.902V402.368C237.616 404.202 238.914 406.451 240.502 407.368L405.516 502.638Z" fill="black"/>
</g>
</g>
<path d="M326.585 238.189L441.118 304.316C442.394 305.052 443.429 306.842 443.429 308.316V496.854C443.429 498.328 442.394 498.924 441.118 498.188L326.586 432.06C325.31 431.325 324.277 429.533 324.277 428.06L324.276 239.522C324.276 238.05 325.309 237.453 326.585 238.189Z" fill="white"/>
<g opacity="0.5">
<g opacity="0.5">
<path opacity="0.5" d="M325.555 238.539C325.452 238.539 325.36 238.561 325.284 238.605C325.067 238.73 324.942 239.065 324.942 239.522L324.943 428.059C324.943 429.297 325.848 430.865 326.919 431.482L441.452 497.61C441.847 497.835 442.2 497.899 442.419 497.77C442.638 497.646 442.762 497.311 442.762 496.854V308.315C442.762 307.078 441.858 305.511 440.786 304.891L326.251 238.766C325.992 238.617 325.751 238.539 325.555 238.539ZM442.155 499.166C441.719 499.166 441.25 499.033 440.786 498.765L326.252 432.637C324.771 431.782 323.61 429.771 323.61 428.059L323.608 239.522C323.608 238.575 323.976 237.819 324.618 237.45C325.262 237.079 326.098 237.138 326.918 237.611L441.452 303.738C442.934 304.594 444.095 306.603 444.095 308.315V496.854C444.095 497.814 443.738 498.549 443.086 498.926C442.807 499.087 442.491 499.166 442.155 499.166Z" fill="#E1E1E1"/>
</g>
</g>
<path d="M337.994 263.538L391.798 294.601C393.391 295.522 394.684 297.668 394.684 299.396C394.684 301.122 393.392 301.776 391.799 300.856L337.994 269.793C336.4 268.872 335.107 266.726 335.107 265C335.107 263.272 336.4 262.618 337.994 263.538Z" fill="#2B454E"/>
<path d="M337.994 282.3L429.71 335.248C431.304 336.168 432.598 338.314 432.598 340.041C432.598 341.768 431.304 342.422 429.711 341.502L337.994 288.553C336.4 287.633 335.107 285.488 335.107 283.76C335.107 282.033 336.4 281.38 337.994 282.3Z" fill="#E1E1E1"/>
<path d="M337.994 301.062L429.71 354.01C431.304 354.93 432.598 357.077 432.598 358.805C432.598 360.532 431.304 361.185 429.711 360.264L337.994 307.316C336.4 306.396 335.107 304.25 335.107 302.524C335.107 300.797 336.4 300.142 337.994 301.062Z" fill="#E1E1E1"/>
<path d="M337.994 319.825L429.71 372.773C431.304 373.693 432.598 375.84 432.598 377.567C432.598 379.295 431.304 379.948 429.711 379.027L337.994 326.079C336.4 325.159 335.107 323.013 335.107 321.287C335.107 319.559 336.4 318.905 337.994 319.825Z" fill="#E1E1E1"/>
<path d="M337.994 338.589L429.71 391.537C431.304 392.455 432.598 394.603 432.598 396.33C432.598 398.057 431.304 398.71 429.711 397.79L337.994 344.842C336.4 343.922 335.107 341.777 335.107 340.049C335.107 338.322 336.4 337.669 337.994 338.589Z" fill="#E1E1E1"/>
<path d="M337.994 357.351L429.71 410.299C431.304 411.219 432.598 413.365 432.598 415.093C432.598 416.82 431.304 417.473 429.711 416.552L337.994 363.604C336.4 362.685 335.107 360.539 335.107 358.812C335.107 357.085 336.4 356.431 337.994 357.351" fill="#E1E1E1"/>
<path d="M337.994 376.113L429.71 429.061C431.304 429.981 432.598 432.128 432.598 433.855C432.598 435.583 431.304 436.236 429.711 435.315L337.994 382.367C336.4 381.447 335.107 379.301 335.107 377.575C335.107 375.847 336.4 375.193 337.994 376.113Z" fill="#E1E1E1"/>
<path d="M337.994 394.876L429.71 447.824C431.304 448.743 432.598 450.891 432.598 452.618C432.598 454.344 431.304 454.999 429.711 454.078L337.994 401.13C336.4 400.21 335.107 398.064 335.107 396.336C335.107 394.61 336.4 393.956 337.994 394.876Z" fill="#E1E1E1"/>
<path d="M310.335 247.559L424.87 313.686C426.144 314.423 427.179 316.214 427.179 317.686V506.224C427.179 507.698 426.144 508.294 424.87 507.558L310.336 441.431C309.062 440.694 308.028 438.903 308.028 437.431L308.026 248.892C308.026 247.42 309.059 246.823 310.335 247.559Z" fill="white"/>
<path d="M309.305 247.91C309.201 247.91 309.11 247.931 309.034 247.974C308.817 248.101 308.692 248.435 308.692 248.893L308.694 437.431C308.694 438.666 309.6 440.234 310.669 440.854L425.204 506.981C425.6 507.209 425.948 507.271 426.169 507.142C426.388 507.017 426.512 506.682 426.512 506.223V317.686C426.512 316.45 425.608 314.882 424.537 314.263L310.001 248.137C309.742 247.987 309.501 247.91 309.305 247.91ZM425.906 508.538C425.469 508.538 425 508.402 424.537 508.134L310.002 442.007C308.521 441.153 307.361 439.141 307.361 437.431L307.358 248.893C307.358 247.946 307.726 247.19 308.368 246.821C309.01 246.451 309.848 246.507 310.668 246.982L425.204 313.109C426.685 313.965 427.845 315.977 427.845 317.686V506.223C427.845 507.171 427.477 507.927 426.834 508.297C426.556 508.458 426.241 508.538 425.906 508.538" fill="#E1E1E1"/>
<path d="M321.744 272.909L375.548 303.972C377.142 304.893 378.434 307.039 378.434 308.765C378.436 310.493 377.142 311.147 375.549 310.227L321.744 279.163C320.15 278.243 318.858 276.096 318.858 274.369C318.858 272.643 320.15 271.989 321.744 272.909Z" fill="#E1E1E1"/>
<path d="M321.745 291.671L413.461 344.619C415.054 345.539 416.348 347.686 416.348 349.414C416.348 351.14 415.056 351.794 413.461 350.872L321.745 297.924C320.15 297.004 318.858 294.859 318.858 293.132C318.858 291.404 320.15 290.751 321.745 291.671Z" fill="#E1E1E1"/>
<path d="M321.745 310.434L413.461 363.382C415.054 364.302 416.348 366.448 416.348 368.175C416.348 369.903 415.056 370.556 413.461 369.635L321.745 316.687C320.15 315.767 318.858 313.622 318.858 311.894C318.858 310.167 320.15 309.514 321.745 310.434Z" fill="#E1E1E1"/>
<path d="M321.745 329.196L413.461 382.143C415.054 383.063 416.348 385.211 416.348 386.938C416.348 388.664 415.056 389.318 413.461 388.398L321.745 335.45C320.15 334.53 318.858 332.384 318.858 330.656C318.858 328.93 320.15 328.276 321.745 329.196Z" fill="#E1E1E1"/>
<path d="M321.745 347.958L413.461 400.906C415.054 401.826 416.348 403.973 416.348 405.701C416.348 407.427 415.056 408.081 413.461 407.159L321.745 354.211C320.15 353.291 318.858 351.146 318.858 349.419C318.858 347.693 320.15 347.038 321.745 347.958Z" fill="#E1E1E1"/>
<path d="M321.745 366.722L413.461 419.67C415.054 420.59 416.348 422.736 416.348 424.463C416.348 426.191 415.056 426.844 413.461 425.923L321.745 372.975C320.15 372.055 318.858 369.91 318.858 368.183C318.858 366.455 320.15 365.802 321.745 366.722Z" fill="#E1E1E1"/>
<path d="M321.745 385.485L413.461 438.433C415.054 439.351 416.348 441.499 416.348 443.226C416.348 444.953 415.056 445.607 413.461 444.686L321.745 391.738C320.15 390.818 318.858 388.673 318.858 386.945C318.858 385.218 320.15 384.565 321.745 385.485Z" fill="#E1E1E1"/>
<path d="M321.745 404.246L413.461 457.194C415.054 458.114 416.348 460.261 416.348 461.989C416.348 463.715 415.056 464.369 413.461 463.447L321.745 410.499C320.15 409.579 318.858 407.434 318.858 405.707C318.858 403.981 320.15 403.326 321.745 404.246Z" fill="#E1E1E1"/>
<path d="M405.516 502.638L379.041 358.948C378.709 357.146 377.137 354.92 375.549 354.003L213.422 260.4C211.836 259.484 210.808 260.21 211.14 262.012L237.012 402.423C237.345 404.226 238.914 406.451 240.502 407.368L405.516 502.638Z" fill="#00DFBF"/>
<path d="M1.6077 310.558C43.8197 285.113 69.7184 239.382 69.7184 189.963V142.598C69.7184 141.131 70.757 140.531 72.0264 141.265L191.978 210.518C193.248 211.251 194.288 213.051 194.288 214.518V261.885C194.288 311.099 168.602 356.658 126.697 382.165C124.97 383.215 122.796 383.209 121.045 382.197L1.61837 313.247C0.349033 312.514 0.3517 311.315 1.6077 310.558Z" fill="white"/>
<path d="M1.95211 311.128C1.55611 311.368 1.33077 311.655 1.33344 311.914C1.33611 312.168 1.56144 312.443 1.95211 312.67L121.379 381.62C122.937 382.522 124.843 382.511 126.351 381.596C167.844 356.339 193.621 310.468 193.621 261.884V214.518C193.621 213.282 192.716 211.714 191.645 211.096L71.6934 141.842C71.2988 141.614 70.9468 141.558 70.7294 141.683C70.5094 141.81 70.3841 142.143 70.3841 142.598V189.963C70.3841 239.256 44.1628 285.684 1.95211 311.128ZM123.86 383.623C122.779 383.623 121.691 383.34 120.712 382.774L1.28544 313.823C0.462772 313.35 0.00677168 312.675 0.000105013 311.927C-0.00789499 311.172 0.441438 310.484 1.26277 309.988C43.0761 284.783 69.0508 238.792 69.0508 189.963V142.598C69.0508 141.654 69.4201 140.9 70.0628 140.528C70.7068 140.156 71.5428 140.215 72.3601 140.687L192.312 209.94C193.793 210.796 194.955 212.807 194.955 214.518V261.884C194.955 310.931 168.932 357.238 127.043 382.734C126.071 383.326 124.968 383.623 123.86 383.623" fill="#E1E1E1"/>
<path d="M143.013 201.01L175.151 219.566C176.746 220.487 178.039 222.632 178.039 224.36C178.039 226.087 176.746 226.74 175.151 225.82L143.013 207.263C141.418 206.343 140.126 204.198 140.126 202.47C140.126 200.743 141.418 200.09 143.013 201.01Z" fill="#E1E1E1"/>
<path d="M123.874 218.1C123.874 219.826 122.582 220.481 120.987 219.561L88.854 201.013C87.2593 200.093 85.9673 197.946 85.9673 196.22C85.9673 194.493 87.2593 193.84 88.854 194.76L120.987 213.306C122.582 214.228 123.874 216.373 123.874 218.1Z" fill="#E1E1E1"/>
<path d="M176.464 273.465C176.221 275.052 174.701 275.588 173.107 274.667L86.8278 224.855C85.2332 223.933 84.1612 221.901 84.3985 220.312C84.6358 218.721 86.0865 218.173 87.6812 219.093L173.988 268.92C175.581 269.841 176.708 271.879 176.464 273.465Z" fill="#E1E1E1"/>
<path d="M172.898 290.181C172.483 291.669 170.822 292.121 169.229 291.201L82.9474 241.374C81.3528 240.454 80.4234 238.509 80.8368 237.021C81.2514 235.534 82.8461 235.067 84.4408 235.987L170.734 285.814C172.329 286.734 173.313 288.693 172.898 290.181Z" fill="#E1E1E1"/>
<path d="M167.535 305.843C166.963 307.239 165.181 307.614 163.588 306.694L77.2948 256.879C75.7001 255.959 74.9041 254.094 75.4761 252.695C76.0468 251.295 77.7668 250.893 79.3614 251.814L165.653 301.641C167.248 302.561 168.107 304.449 167.535 305.843Z" fill="#E1E1E1"/>
<path d="M160.496 320.544C159.772 321.852 157.862 322.148 156.267 321.228L69.9884 271.427C68.3937 270.507 67.7124 268.713 68.4324 267.403C69.1537 266.091 71.007 265.76 72.6004 266.68L158.894 316.493C160.488 317.413 161.22 319.237 160.496 320.544Z" fill="#E1E1E1"/>
<path d="M110.671 316.8C109.748 317.994 107.688 318.2 106.093 317.28L57.7068 289.347C56.1134 288.426 55.5921 286.726 56.5174 285.531C57.4427 284.335 59.4601 284.094 61.0547 285.014L109.441 312.959C111.035 313.88 111.593 315.606 110.671 316.8Z" fill="#E1E1E1"/>
<path d="M93.0029 342.645C93.0029 342.645 67.6322 359.375 37.2229 360.537C43.4202 364.117 57.4056 365.601 68.2122 364.117C68.2122 364.117 66.7002 370.4 55.8162 378.431C55.8162 378.431 73.5402 383.209 105.399 349.803L93.0029 342.645Z" fill="#00DFBF"/>
<path d="M119.803 348.934C114.375 354.453 103.426 354.914 95.9444 350.596C88.463 346.277 87.2844 338.818 92.7124 333.302C98.139 327.789 108.088 326.341 115.571 330.656C123.052 334.97 125.231 343.416 119.803 348.934Z" fill="#00DFBF"/>
<g opacity="0.199997">
<g opacity="0.199997">
<path opacity="0.199997" d="M119.803 348.934C114.375 354.453 103.426 354.914 95.9444 350.596C88.463 346.277 87.2844 338.818 92.7124 333.302C98.139 327.789 108.088 326.341 115.571 330.656C123.052 334.97 125.231 343.416 119.803 348.934Z" fill="black"/>
</g>
</g>
<path d="M119.803 347.264C114.375 352.782 103.426 353.244 95.9444 348.925C88.463 344.606 87.2844 337.148 92.7124 331.632C98.139 326.118 108.088 324.67 115.571 328.985C123.052 333.3 125.231 341.745 119.803 347.264Z" fill="#00DFBF"/>
<path d="M107.226 347.826C103.883 347.826 100.587 346.986 97.9442 345.461C95.2962 343.932 93.6789 341.926 93.3922 339.816C93.0789 337.513 94.4002 335.62 95.5629 334.438C98.0109 331.95 101.88 330.465 105.914 330.465C108.672 330.465 111.32 331.152 113.572 332.45C116.47 334.121 118.41 336.672 118.763 339.274C119.026 341.194 118.399 342.988 116.951 344.46C114.846 346.6 111.302 347.826 107.226 347.826Z" fill="#00DFBF"/>
<g opacity="0.300003">
<g opacity="0.300003">
<path opacity="0.300003" d="M107.226 347.826C103.883 347.826 100.587 346.986 97.9442 345.461C95.2962 343.932 93.6789 341.926 93.3922 339.816C93.0789 337.513 94.4002 335.62 95.5629 334.438C98.0109 331.95 101.88 330.465 105.914 330.465C108.672 330.465 111.32 331.152 113.572 332.45C116.47 334.121 118.41 336.672 118.763 339.274C119.026 341.194 118.399 342.988 116.951 344.46C114.846 346.6 111.302 347.826 107.226 347.826Z" fill="black"/>
</g>
</g>
<path d="M113.572 334.131C111.321 332.832 108.672 332.145 105.913 332.145C101.88 332.145 98.0105 333.631 95.5625 336.119C94.6705 337.025 93.6918 338.353 93.4238 339.96C93.7638 342.017 95.3572 343.967 97.9438 345.46C100.586 346.987 103.882 347.825 107.225 347.825C111.301 347.825 114.845 346.6 116.95 344.459C117.973 343.419 118.577 342.216 118.757 340.925C118.392 338.332 116.457 335.795 113.572 334.131Z" fill="#00DFBF"/>
<g opacity="0.199997">
<g opacity="0.199997">
<path opacity="0.199997" d="M113.572 334.131C111.321 332.832 108.672 332.145 105.913 332.145C101.88 332.145 98.0105 333.631 95.5625 336.119C94.6705 337.025 93.6918 338.353 93.4238 339.96C93.7638 342.017 95.3572 343.967 97.9438 345.46C100.586 346.987 103.882 347.825 107.225 347.825C111.301 347.825 114.845 346.6 116.95 344.459C117.973 343.419 118.577 342.216 118.757 340.925C118.392 338.332 116.457 335.795 113.572 334.131Z" fill="black"/>
</g>
</g>
<path d="M169.948 303.924C169.948 309.467 165.454 313.96 159.912 313.96C154.368 313.96 149.874 309.467 149.874 303.924C149.874 298.381 154.368 293.888 159.912 293.888C165.454 293.888 169.948 298.381 169.948 303.924Z" fill="#1A2E35"/>
<path d="M183.944 485.848H176.875V473.745H183.944V485.848Z" fill="#FFAAA8"/>
<path d="M159.434 473.099L152.369 473.343L152.015 460.535L159.434 460.292V473.099Z" fill="#FFAAA8"/>
<path d="M183.481 370.019C183.481 376.77 184.354 425.472 184.354 425.472C184.518 427.415 186.339 430.995 185.946 438.456C185.41 448.592 184.247 479.796 184.247 479.796C184.247 479.796 180.815 481.802 176.375 479.951C176.375 479.951 170.138 438.491 168.871 428.447C167.766 419.682 165.89 395.87 165.89 395.87L162.058 424.486C162.058 424.486 163.361 429.714 162.934 435.72C162.603 440.367 159.881 469.132 159.881 469.132C159.881 469.132 156.554 471.39 151.719 469.756C151.719 469.756 148.146 428.748 148.065 424.486C147.971 419.626 150.415 370.019 150.415 370.019H183.481Z" fill="#2B454E"/>
<path d="M180.463 331.667C180.463 331.667 183.088 333.263 183.088 339.678V353.529L183.291 379.685C173.143 385.031 160.329 385.343 149.504 377.438C149.504 377.438 150.023 343.818 150.023 338.311C150.023 332.806 153.091 325.647 161.539 325.157L172.445 327.69L180.463 331.667Z" fill="white"/>
<path d="M150.08 360.571C153.362 346.801 154.436 333.031 154.998 329.477L145.923 343.986C145.923 343.986 143.91 355.253 142.88 361.219C141.976 366.463 138.955 375.902 137.22 380.026C136.914 380.757 135.396 381.747 134.682 382.089C132.763 383.003 131.91 384.071 130.4 385.33C129.218 386.315 128.287 386.487 128.386 386.855C128.512 387.327 129.183 388.146 130.523 387.898C131.195 387.773 132.095 387.361 133.22 386.81C133.22 386.81 132.219 388.925 130.108 390.986C127.246 393.777 126.919 395.654 131.984 396.278C135.158 396.669 137.916 394.998 141.106 388.27C142.024 386.333 143.466 383.271 144.235 380.665C146.24 373.877 149.087 364.735 150.08 360.571Z" fill="#FFAAA8"/>
<path d="M157.364 325.164C154.304 324.675 152.199 324.94 150.107 327.196C148.792 328.615 147.423 330.954 145.139 345.068C143.152 357.334 137.49 377.591 137.49 377.591C137.49 377.591 140.47 381.218 145.207 380.376L155.179 343.688L157.364 325.164Z" fill="#2B454E"/>
<path d="M161.932 325.759C161.932 325.759 158.108 328.793 157.073 333.281C156.039 337.767 155.872 387.865 155.872 387.865C155.872 387.865 150.553 386.883 148.063 384.927V339.145C148.063 332.588 149.537 322.608 161.932 325.759Z" fill="#2B454E"/>
<path d="M172.839 328.297C172.839 328.291 166.912 334.437 166.791 349.438C166.668 364.439 166.415 390.746 166.415 390.746C166.415 390.746 176.839 392.865 184.273 388.422C184.273 388.422 183.431 350.846 183.289 345.213C183.128 338.763 185.013 333.282 181.385 331.463C177.757 329.645 172.839 328.297 172.839 328.297Z" fill="#2B454E"/>
<path d="M177.259 311.06C177.259 311.06 175.634 318.7 174.982 319.956C174.329 321.211 172.982 321.568 172.982 321.568L173.095 316.194L177.259 311.06Z" fill="#1A2E35"/>
<path d="M175.218 300.114C175.218 300.114 176.97 299.814 178.336 301.21C179.674 302.58 178.926 306.864 177.26 311.061L174.196 311.413L175.218 300.114Z" fill="#1A2E35"/>
<path d="M173.278 311.415C173.891 311.78 174.768 310.601 175.526 309.808C176.283 309.016 178.756 307.933 179.99 310.532C181.247 313.181 178.9 316.681 176.954 317.292C173.599 318.345 173.095 316.193 173.095 316.193L172.839 328.296L161.211 335.964C161.211 335.964 160.459 331.753 161.923 327.976L161.932 324.292C161.932 324.292 158.892 324.755 157.41 324.525C154.942 324.144 153.388 322.197 152.64 319.525C151.439 315.236 150.982 311.772 152.002 303.335C153.12 294.087 163.876 293.992 169.684 297.647C175.492 301.303 173.278 311.415 173.278 311.415Z" fill="#FFAAA8"/>
<path d="M161.21 335.965L172.877 326.465L172.909 324.941C172.909 324.941 175.62 325.482 175.969 329.271L168.888 340.057L165.892 334.437L161.21 335.965Z" fill="#F0F0F0"/>
<path d="M161.932 324.292C161.932 324.292 159.411 324.628 158.303 326.464C157.196 328.3 155.18 335.964 155.18 335.964L158.951 333.052L161.211 335.964C160.973 333.627 161.192 330.977 161.923 327.976L161.932 324.292Z" fill="#F0F0F0"/>
<path d="M173.278 312.447C173.586 312.454 174.762 310.505 175.526 309.809C176.586 308.845 175.219 300.114 175.219 300.114C175.219 300.114 176.236 297.945 174.196 295.698C172.746 294.101 170.319 293.923 166.178 293.273C164.004 292.931 160.711 292.322 158.54 291.919C155.95 291.438 153.806 290.927 151.975 292.518C150.551 293.754 149.939 295.942 150.704 297.665C150.884 298.07 151.144 298.434 151.44 298.763C151.966 299.347 152.559 299.806 153.306 300.047C153.306 300.047 154.435 301.05 158.366 301.53C162.296 302.007 168.418 301.437 169.255 301.322C170.395 301.166 170.638 302.271 171.252 305.289C171.792 307.938 172.239 312.427 173.278 312.447Z" fill="#1A2E35"/>
<path d="M175.213 300.794L178.927 298.799C178.401 297.735 177.141 297.319 176.115 297.87C175.09 298.421 174.685 299.729 175.213 300.794Z" fill="#1A2E35"/>
<path d="M161.932 324.292C161.932 324.292 167.44 323.183 169.367 322.159C170.655 321.475 171.716 320.287 172.028 319.525C172.028 319.525 171.667 321.159 170.515 322.632C169.107 324.432 161.932 325.759 161.932 325.759V324.292Z" fill="#FF9090"/>
<path d="M163.256 310.038C163.256 310.672 163.751 311.183 164.36 311.182C164.969 311.179 165.463 310.666 165.463 310.031C165.463 309.399 164.969 308.887 164.36 308.888C163.751 308.89 163.256 309.404 163.256 310.038Z" fill="#1A2E35"/>
<path d="M164.427 305.871L166.788 307.175C167.136 306.496 166.889 305.653 166.237 305.293C165.585 304.933 164.775 305.192 164.427 305.871Z" fill="#1A2E35"/>
<path d="M162.431 317.662L159.911 318.607C160.16 319.33 160.927 319.703 161.623 319.442C162.319 319.182 162.68 318.385 162.431 317.662Z" fill="#FF9090"/>
<path d="M153.413 306.788L155.566 305.131C155.128 304.513 154.289 304.384 153.694 304.843C153.1 305.301 152.973 306.172 153.413 306.788Z" fill="#1A2E35"/>
<path d="M154.076 309.724C154.076 310.357 154.571 310.868 155.18 310.866C155.789 310.865 156.284 310.352 156.284 309.717C156.284 309.085 155.789 308.572 155.18 308.574C154.571 308.576 154.076 309.089 154.076 309.724Z" fill="#1A2E35"/>
<path d="M159.699 308.677L159.337 315.315L155.871 314.133L159.699 308.677Z" fill="#FF9090"/>
<path d="M176.875 482.358V481.346C176.199 481.642 174.627 487.638 171.822 490.196C169.593 492.23 166.55 494.579 165.777 496.846C164.973 499.204 170.014 500.506 172.097 500.138C174.517 499.71 178.713 498.004 179.766 496.424C180.819 494.844 181.313 492.514 182.169 491.355C183.023 490.198 184.997 488.904 185.459 487.564C185.714 486.83 185.411 485.216 185.054 483.854C184.727 482.604 184.371 481.228 183.945 481.346C183.943 481.498 183.945 482.116 183.945 482.116C183.431 482.686 182.013 483.251 180.41 483.312C179.375 483.351 176.867 483.147 176.875 482.358Z" fill="#1A2E35"/>
<path d="M152.294 471.162C151.927 471.175 151.627 471.691 150.818 472.569C149.839 473.629 148.239 474.77 146.659 475.561C144.013 476.886 138.866 478.925 136.537 479.973C135.081 480.63 135.15 482.387 136.654 483.387C138.158 484.387 141.79 485.109 146.15 484.134C148.525 483.602 151.618 481.409 153.574 481.526C155.531 481.645 159.194 481.617 160.639 480.621C162.083 479.625 161.506 477.498 161.098 475.67C160.653 473.677 160.094 470.566 159.434 470.702V471.39C158.585 472.677 154.198 473.199 152.331 472.253L152.294 471.162Z" fill="#1A2E35"/>
<path d="M165.89 395.869C165.89 395.869 160.24 394.279 156.046 390.225C156.046 390.225 157.945 393.783 163.594 397.092L162.386 422.036L165.89 395.869Z" fill="#1A2E35"/>
<path d="M164.621 334.851C164.228 333.891 162.84 333.449 161.535 333.427C160.4 333.407 159.475 334.345 159.535 335.478C159.588 336.491 159.753 337.761 160.211 338.665C160.211 338.665 161.857 338.27 163.157 338.929C163.157 338.929 164.323 337.355 164.621 334.851" fill="#1A2E35"/>
<path d="M160.21 338.665C160.21 338.665 157.75 358.837 157.817 360.026C157.882 361.214 160.389 368.199 161.673 368.199C163.085 368.199 165.464 361.923 165.53 360.934C165.596 359.945 163.157 338.927 163.157 338.927C162.29 338.157 161.077 338.158 160.21 338.665Z" fill="#1A2E35"/>
<path d="M176.675 447.794L171.495 444.803C170.976 444.503 170.555 443.774 170.555 443.174V413.754C170.555 413.154 170.976 412.424 171.496 412.123L206.683 391.808C207.203 391.507 208.045 391.507 208.564 391.808L213.744 394.798C214.263 395.099 214.685 395.827 214.685 396.428L214.684 425.848C214.684 426.448 214.263 427.178 213.744 427.478L178.556 447.794C178.036 448.094 177.195 448.094 176.675 447.794Z" fill="#00DFBF"/>
<path d="M170.555 413.753C170.555 413.452 170.66 413.12 170.831 412.826L178.499 417.253V447.821C177.975 448.09 177.176 448.082 176.675 447.793L171.495 444.802C170.975 444.502 170.555 443.774 170.555 443.173V413.753Z" fill="#FF9090"/>
<path d="M170.555 413.753C170.555 413.452 170.66 413.12 170.831 412.826L178.499 417.253V447.821C177.975 448.09 177.176 448.082 176.675 447.793L171.495 444.802C170.975 444.502 170.555 443.774 170.555 443.173V413.753Z" fill="#00DFBF"/>
<g opacity="0.199997">
<g opacity="0.199997">
<path opacity="0.199997" d="M170.555 413.753C170.555 413.452 170.66 413.12 170.831 412.826L178.499 417.253V447.821C177.975 448.09 177.176 448.082 176.675 447.793L171.495 444.802C170.975 444.502 170.555 443.774 170.555 443.173V413.753Z" fill="black"/>
</g>
</g>
<path d="M178.556 416.2L213.744 395.886C214.263 395.584 214.686 395.828 214.686 396.428L214.684 425.848C214.684 426.45 214.263 427.178 213.744 427.478L178.556 447.794C178.036 448.094 177.615 447.85 177.615 447.251V417.831C177.615 417.23 178.036 416.502 178.556 416.2Z" fill="#00DFBF"/>
<path d="M175.468 414.417C174.948 414.717 174.527 415.447 174.527 416.048V446.555L173.644 446.044V415.537C173.644 414.937 174.066 414.208 174.586 413.908L210.715 393.049L211.596 393.557L175.468 414.417Z" fill="#00DFBF"/>
<g opacity="0.300003">
<g opacity="0.300003">
<path opacity="0.300003" d="M175.468 414.417C174.948 414.717 174.527 415.447 174.527 416.048V446.555L173.644 446.044V415.537C173.644 414.937 174.066 414.208 174.586 413.908L210.715 393.049L211.596 393.557L175.468 414.417Z" fill="black"/>
</g>
</g>
<path d="M174.586 413.908L210.656 393.083L211.567 393.575L175.468 414.418C175.208 414.567 174.974 414.824 174.803 415.119L173.92 414.61C174.091 414.315 174.326 414.058 174.586 413.908Z" fill="#00DFBF"/>
<g opacity="0.199997">
<g opacity="0.199997">
<path opacity="0.199997" d="M174.586 413.908L210.656 393.083L211.567 393.575L175.468 414.418C175.208 414.567 174.974 414.824 174.803 415.119L173.92 414.61C174.091 414.315 174.326 414.058 174.586 413.908Z" fill="black"/>
</g>
</g>
<path d="M180.054 409.221L180.676 408.861C180.936 408.711 181.357 408.711 181.616 408.861L184.002 410.239L184.401 410.119V410.629C184.401 410.726 184.336 410.825 184.206 410.901L183.381 411.375C183.122 411.526 182.701 411.526 182.441 411.375L179.852 409.881C179.721 409.805 179.657 409.707 179.657 409.609V409.099L180.054 409.221Z" fill="#00DFBF"/>
<g opacity="0.199997">
<g opacity="0.199997">
<path opacity="0.199997" d="M180.054 409.221L180.676 408.861C180.936 408.711 181.357 408.711 181.616 408.861L184.002 410.239L184.401 410.119V410.629C184.401 410.726 184.336 410.825 184.206 410.901L183.381 411.375C183.122 411.526 182.701 411.526 182.441 411.375L179.852 409.881C179.721 409.805 179.657 409.707 179.657 409.609V409.099L180.054 409.221Z" fill="black"/>
</g>
</g>
<path d="M179.851 408.828L180.675 408.353C180.935 408.202 181.357 408.202 181.617 408.353L184.206 409.848C184.466 409.997 184.466 410.241 184.206 410.39L183.381 410.866C183.122 411.017 182.701 411.017 182.441 410.866L179.851 409.372C179.591 409.221 179.591 408.978 179.851 408.828Z" fill="#00DFBF"/>
<path d="M200.054 398.554L200.676 398.194C200.936 398.044 201.357 398.044 201.616 398.194L204.002 399.572L204.401 399.452V399.962C204.401 400.059 204.336 400.158 204.206 400.234L203.381 400.708C203.122 400.859 202.701 400.859 202.441 400.708L199.852 399.214C199.721 399.138 199.657 399.04 199.657 398.942V398.432L200.054 398.554Z" fill="#00DFBF"/>
<g opacity="0.199997">
<g opacity="0.199997">
<path opacity="0.199997" d="M200.054 398.554L200.676 398.194C200.936 398.044 201.357 398.044 201.616 398.194L204.002 399.572L204.401 399.452V399.962C204.401 400.059 204.336 400.158 204.206 400.234L203.381 400.708C203.122 400.859 202.701 400.859 202.441 400.708L199.852 399.214C199.721 399.138 199.657 399.04 199.657 398.942V398.432L200.054 398.554Z" fill="black"/>
</g>
</g>
<path d="M199.851 398.161L200.675 397.686C200.935 397.536 201.357 397.536 201.617 397.686L204.206 399.181C204.466 399.33 204.466 399.574 204.206 399.724L203.381 400.2C203.122 400.35 202.701 400.35 202.441 400.2L199.851 398.705C199.591 398.554 199.591 398.311 199.851 398.161Z" fill="#00DFBF"/>
<path d="M194.385 396.87V399.928L196.149 400.946V396.286C196.149 396.045 195.982 395.949 195.774 396.068L194.385 396.87Z" fill="#00DFBF"/>
<g opacity="0.300003">
<g opacity="0.300003">
<path opacity="0.300003" d="M194.385 396.87V399.928L196.149 400.946V396.286C196.149 396.045 195.982 395.949 195.774 396.068L194.385 396.87Z" fill="black"/>
</g>
</g>
<path d="M185.131 400.113V405.794L186.441 406.553L187.325 406.042V401.381C187.325 401.142 187.493 400.849 187.699 400.73L194.385 396.87L195.774 396.069C195.982 395.949 196.15 396.045 196.15 396.286V400.946L197.034 400.435V394.755C197.034 394.733 197.031 394.706 197.027 394.682C196.999 394.459 196.843 394.21 196.657 394.105L196.098 393.781C195.891 393.661 195.554 393.661 195.346 393.781L185.507 399.461C185.298 399.582 185.131 399.873 185.131 400.113Z" fill="#00DFBF"/>
<path d="M186.441 400.87V406.553L187.324 406.042V401.381C187.324 401.142 187.493 400.847 187.7 400.73L194.385 396.87L195.774 396.067C195.982 395.949 196.149 396.045 196.149 396.286V400.946L197.033 400.435V394.755C197.033 394.731 197.032 394.706 197.028 394.681C196.994 394.498 196.84 394.433 196.656 394.538L186.817 400.218C186.61 400.341 186.441 400.63 186.441 400.87Z" fill="#00DFBF"/>
<g opacity="0.199997">
<g opacity="0.199997">
<path opacity="0.199997" d="M186.441 400.87V406.553L187.324 406.042V401.381C187.324 401.142 187.493 400.847 187.7 400.73L194.385 396.87L195.774 396.067C195.982 395.949 196.149 396.045 196.149 396.286V400.946L197.033 400.435V394.755C197.033 394.731 197.032 394.706 197.028 394.681C196.994 394.498 196.84 394.433 196.656 394.538L186.817 400.218C186.61 400.341 186.441 400.63 186.441 400.87Z" fill="black"/>
</g>
</g>
<path d="M194.058 386.774C194.058 386.774 194.014 388.529 194.058 389.286C194.102 390.042 195.099 394.008 195.082 396.292C195.259 397.117 194.116 398.764 192.219 399.653C191.41 400.032 190 401.342 189.356 401.41C188.922 401.454 187.699 400.73 187.699 400.73L188.504 400.265C188.504 400.265 189.607 398.656 188.398 397.793L186.002 399.176C186.002 399.176 185.776 398.186 186.002 396.984C186.226 395.782 186.25 394.244 186.442 392.988C186.634 391.733 187.7 390.22 187.7 390.22L187.3 386.26L194.058 386.774Z" fill="#FFAAA8"/>
<path d="M179.168 330.465C179.168 330.465 183.29 331.954 185.132 333.427C186.617 334.614 195.248 359.361 195.582 361.587C195.916 363.815 194.641 387.254 194.641 387.254C194.641 387.254 191.413 389.731 186.802 387.759L185.418 364.259L177.985 344.914C177.985 344.914 175.193 336.823 179.168 330.465" fill="#2B454E"/>
</g>
<defs>
<clipPath id="clip0">
<rect width="487.051" height="508.538" fill="white"/>
</clipPath>
</defs>
</svg>
