<svg width="500" height="500" viewBox="0 0 500 500" fill="none" xmlns="http://www.w3.org/2000/svg">
<circle cx="250" cy="250" r="250" fill="url(#paint0_radial)"/>
<g clip-path="url(#clip0)">
<g opacity="0.100006">
<g opacity="0.100006">
<path opacity="0.100006" d="M358.212 453.345C358.212 468.617 316.026 481 263.986 481C211.947 481 169.76 468.617 169.76 453.345C169.76 438.071 211.947 425.69 263.986 425.69C316.026 425.69 358.212 438.071 358.212 453.345Z" fill="#38E1EC"/>
</g>
</g>
<g opacity="0.100006">
<g opacity="0.100006">
<path opacity="0.100006" d="M332.923 446.098C332.923 457.272 302.059 466.331 263.986 466.331C225.913 466.331 195.049 457.272 195.049 446.098C195.049 434.923 225.913 425.865 263.986 425.865C302.059 425.865 332.923 434.923 332.923 446.098Z" fill="#38E1EC"/>
</g>
</g>
<g opacity="0.100006">
<g opacity="0.100006">
<path opacity="0.100006" d="M315.605 444.645C315.605 453.012 292.494 459.795 263.986 459.795C235.478 459.795 212.367 453.012 212.367 444.645C212.367 436.277 235.478 429.494 263.986 429.494C292.494 429.494 315.605 436.277 315.605 444.645Z" fill="#38E1EC"/>
</g>
</g>
<path d="M398.528 319.412H120.369V313.387H398.528V319.412Z" fill="#2C65CD"/>
<path d="M350.731 299.62H172.152C169.224 299.62 166.851 297.297 166.851 294.432V178.582C166.851 175.716 169.224 173.392 172.152 173.392H350.731C353.658 173.392 356.032 175.716 356.032 178.582V294.432C356.032 297.297 353.658 299.62 350.731 299.62Z" fill="#2C65CD"/>
<path d="M350.731 173.393H172.152C169.224 173.393 166.851 175.716 166.851 178.581V286.701H356.032V178.581C356.032 175.716 353.658 173.393 350.731 173.393Z" fill="#2985D7"/>
<path d="M350.731 173.393H172.152C169.224 173.393 166.851 175.716 166.851 178.581V178.955C166.851 176.09 169.224 173.767 172.152 173.767H350.731C353.658 173.767 356.032 176.09 356.032 178.955V178.581C356.032 175.716 353.658 173.393 350.731 173.393Z" fill="#56AFED"/>
<path d="M348.68 282.421H174.204V181.347H348.68V282.421Z" fill="#1C0929"/>
<path d="M296.971 196.628H198.286C197.614 196.628 197.066 196.091 197.066 195.433C197.066 194.777 197.614 194.239 198.286 194.239H296.971C297.642 194.239 298.191 194.777 298.191 195.433C298.191 196.091 297.642 196.628 296.971 196.628Z" fill="#8EFDFF"/>
<path d="M244.35 189.327H181.504C180.643 189.327 179.938 188.638 179.938 187.794C179.938 186.951 180.643 186.262 181.504 186.262H244.35C245.211 186.262 245.916 186.951 245.916 187.794C245.916 188.638 245.211 189.327 244.35 189.327Z" fill="#38E1EC"/>
<path d="M187.494 196.628H181.158C180.487 196.628 179.938 196.091 179.938 195.433C179.938 194.777 180.487 194.239 181.158 194.239H187.494C188.166 194.239 188.715 194.777 188.715 195.433C188.715 196.091 188.166 196.628 187.494 196.628Z" fill="#38E1EC"/>
<path d="M232.533 203.176H181.72C181.302 203.176 180.961 202.842 180.961 202.434C180.961 202.025 181.302 201.691 181.72 201.691H232.533C232.949 201.691 233.292 202.025 233.292 202.434C233.292 202.842 232.949 203.176 232.533 203.176Z" fill="#E1FB09"/>
<path d="M232.533 209.223H181.72C181.302 209.223 180.961 208.889 180.961 208.48C180.961 208.072 181.302 207.738 181.72 207.738H232.533C232.949 207.738 233.292 208.072 233.292 208.48C233.292 208.889 232.949 209.223 232.533 209.223Z" fill="#E1FB09"/>
<path d="M232.533 215.271H181.72C181.302 215.271 180.961 214.937 180.961 214.528C180.961 214.12 181.302 213.786 181.72 213.786H232.533C232.949 213.786 233.292 214.12 233.292 214.528C233.292 214.937 232.949 215.271 232.533 215.271Z" fill="#E1FB09"/>
<path d="M232.533 221.317H181.72C181.302 221.317 180.961 220.983 180.961 220.575C180.961 220.167 181.302 219.833 181.72 219.833H232.533C232.949 219.833 233.292 220.167 233.292 220.575C233.292 220.983 232.949 221.317 232.533 221.317Z" fill="#E1FB09"/>
<path d="M189.472 227.364H181.72C181.302 227.364 180.961 227.03 180.961 226.623C180.961 226.214 181.302 225.88 181.72 225.88H189.472C189.888 225.88 190.231 226.214 190.231 226.623C190.231 227.03 189.888 227.364 189.472 227.364Z" fill="#E1FB09"/>
<path d="M203.004 227.364H195.252C194.834 227.364 194.493 227.03 194.493 226.623C194.493 226.214 194.834 225.88 195.252 225.88H203.004C203.421 225.88 203.763 226.214 203.763 226.623C203.763 227.03 203.421 227.364 203.004 227.364Z" fill="#E1FB09"/>
<path d="M216.536 227.364H208.785C208.367 227.364 208.026 227.03 208.026 226.623C208.026 226.214 208.367 225.88 208.785 225.88H216.536C216.953 225.88 217.295 226.214 217.295 226.623C217.295 227.03 216.953 227.364 216.536 227.364Z" fill="#E1FB09"/>
<path d="M230.069 227.364H222.317C221.899 227.364 221.558 227.03 221.558 226.623C221.558 226.214 221.899 225.88 222.317 225.88H230.069C230.485 225.88 230.827 226.214 230.827 226.623C230.827 227.03 230.485 227.364 230.069 227.364Z" fill="#E1FB09"/>
<path d="M243.601 227.364H235.849C235.431 227.364 235.09 227.03 235.09 226.623C235.09 226.214 235.431 225.88 235.849 225.88H243.601C244.018 225.88 244.36 226.214 244.36 226.623C244.36 227.03 244.018 227.364 243.601 227.364Z" fill="#E1FB09"/>
<path d="M257.133 227.364H249.381C248.964 227.364 248.622 227.03 248.622 226.623C248.622 226.214 248.964 225.88 249.381 225.88H257.133C257.55 225.88 257.892 226.214 257.892 226.623C257.892 227.03 257.55 227.364 257.133 227.364Z" fill="#E1FB09"/>
<path d="M232.533 233.412H181.72C181.302 233.412 180.961 233.078 180.961 232.669C180.961 232.261 181.302 231.928 181.72 231.928H232.533C232.949 231.928 233.292 232.261 233.292 232.669C233.292 233.078 232.949 233.412 232.533 233.412Z" fill="#E1FB09"/>
<path d="M337.027 213.304H274.704C274.122 213.304 273.647 212.838 273.647 212.269C273.647 211.7 274.122 211.235 274.704 211.235H337.027C337.61 211.235 338.085 211.7 338.085 212.269C338.085 212.838 337.61 213.304 337.027 213.304Z" fill="#FF6C27"/>
<path d="M337.027 222.353H274.704C274.122 222.353 273.647 221.887 273.647 221.318C273.647 220.749 274.122 220.282 274.704 220.282H337.027C337.61 220.282 338.085 220.749 338.085 221.318C338.085 221.887 337.61 222.353 337.027 222.353Z" fill="#FF49A6"/>
<path d="M337.027 230.826H274.704C274.122 230.826 273.647 230.36 273.647 229.792C273.647 229.221 274.122 228.756 274.704 228.756H337.027C337.61 228.756 338.085 229.221 338.085 229.792C338.085 230.36 337.61 230.826 337.027 230.826Z" fill="#FF49A6"/>
<path d="M337.027 239.299H274.704C274.122 239.299 273.647 238.833 273.647 238.264C273.647 237.695 274.122 237.23 274.704 237.23H337.027C337.61 237.23 338.085 237.695 338.085 238.264C338.085 238.833 337.61 239.299 337.027 239.299Z" fill="#FF49A6"/>
<path d="M337.027 247.772H274.704C274.122 247.772 273.647 247.307 273.647 246.738C273.647 246.168 274.122 245.702 274.704 245.702H337.027C337.61 245.702 338.085 246.168 338.085 246.738C338.085 247.307 337.61 247.772 337.027 247.772Z" fill="#FF49A6"/>
<path d="M306.727 256.246H274.703C274.123 256.246 273.646 255.781 273.646 255.212C273.646 254.642 274.123 254.177 274.703 254.177H306.727C307.309 254.177 307.784 254.642 307.784 255.212C307.784 255.781 307.309 256.246 306.727 256.246Z" fill="#FF49A6"/>
<path d="M327.664 262.014H295.641C295.06 262.014 294.584 261.548 294.584 260.979C294.584 260.41 295.06 259.944 295.641 259.944H327.664C328.247 259.944 328.722 260.41 328.722 260.979C328.722 261.548 328.247 262.014 327.664 262.014Z" fill="#FF49A6"/>
<path d="M327.664 267.987H295.641C295.06 267.987 294.584 267.522 294.584 266.953C294.584 266.384 295.06 265.917 295.641 265.917H327.664C328.247 265.917 328.722 266.384 328.722 266.953C328.722 267.522 328.247 267.987 327.664 267.987Z" fill="#FF49A6"/>
<path d="M204.529 267.987H189.602C189.022 267.987 188.545 267.522 188.545 266.953C188.545 266.384 189.022 265.917 189.602 265.917H204.529C205.111 265.917 205.586 266.384 205.586 266.953C205.586 267.522 205.111 267.987 204.529 267.987Z" fill="#FF49A6"/>
<path d="M204.529 263.048H189.602C189.022 263.048 188.545 262.582 188.545 262.013C188.545 261.443 189.022 260.978 189.602 260.978H204.529C205.111 260.978 205.586 261.443 205.586 262.013C205.586 262.582 205.111 263.048 204.529 263.048Z" fill="#FF49A6"/>
<path d="M204.529 258.109H189.602C189.022 258.109 188.545 257.644 188.545 257.075C188.545 256.506 189.022 256.04 189.602 256.04H204.529C205.111 256.04 205.586 256.506 205.586 257.075C205.586 257.644 205.111 258.109 204.529 258.109Z" fill="#FF49A6"/>
<path d="M204.529 253.171H189.602C189.022 253.171 188.545 252.706 188.545 252.136C188.545 251.567 189.022 251.101 189.602 251.101H204.529C205.111 251.101 205.586 251.567 205.586 252.136C205.586 252.706 205.111 253.171 204.529 253.171Z" fill="#FF49A6"/>
<path d="M218.627 253.171H214.095C213.512 253.171 213.037 252.706 213.037 252.136C213.037 251.567 213.512 251.101 214.095 251.101H218.627C219.209 251.101 219.684 251.567 219.684 252.136C219.684 252.706 219.209 253.171 218.627 253.171Z" fill="#FF49A6"/>
<path d="M218.627 264.091H214.095C213.512 264.091 213.037 263.625 213.037 263.056C213.037 262.487 213.512 262.022 214.095 262.022H218.627C219.209 262.022 219.684 262.487 219.684 263.056C219.684 263.625 219.209 264.091 218.627 264.091Z" fill="#FF49A6"/>
<g opacity="0.169998">
<g opacity="0.169998">
<path opacity="0.169998" d="M348.68 245.449V227.315L292.376 282.421H310.905L348.68 245.449Z" fill="#56AFED"/>
</g>
<g opacity="0.169998">
<path opacity="0.169998" d="M251.742 282.421L348.68 187.544V181.347H305.568L202.299 282.421H251.742Z" fill="#56AFED"/>
</g>
<g opacity="0.169998">
<path opacity="0.169998" d="M174.203 225.303V266.149L260.847 181.346H219.115L174.203 225.303Z" fill="#56AFED"/>
</g>
</g>
<path d="M271.718 264.064H252.332V249.782H271.718V264.064Z" fill="#FFBF99"/>
<path d="M252.333 260.978C252.333 260.978 260.939 264.751 271.719 260.978V265.13L266.39 266.084L262.025 266.951L252.333 263.818V260.978Z" fill="#FB9E78"/>
<path d="M285.104 362.844H238.816C233.824 362.844 229.737 358.844 229.737 353.958V345.191C229.737 340.304 233.824 336.305 238.816 336.305H285.104C290.098 336.305 294.182 340.304 294.182 345.191V353.958C294.182 358.844 290.098 362.844 285.104 362.844Z" fill="#C2FDEC"/>
<path d="M293.904 352.566C260.65 362.166 230.016 352.494 230.001 352.49C231.22 358.376 236.564 362.844 242.925 362.844H280.996C287.329 362.844 292.655 358.415 293.904 352.566Z" fill="#A5DAEC"/>
<path d="M265.165 207.487L278.701 194.239C278.701 194.239 282.099 200.418 278.222 207.487L283.805 202.022C283.805 202.022 286.319 209.391 281.223 213.427L285.832 208.915C285.832 208.915 288.733 217.294 278.039 223.72L265.165 207.487Z" fill="#38E1EC"/>
<path d="M276.239 221.45L280.504 221.998C280.514 221.989 280.526 221.981 280.536 221.971C280.57 221.646 281.662 210.09 268.104 204.61L265.165 207.487L276.239 221.45Z" fill="#00CDEC"/>
<path d="M272.249 235.679C272.249 238.931 274.942 241.566 278.265 241.566C281.587 241.566 284.282 238.931 284.282 235.679C284.282 232.426 281.587 229.791 278.265 229.791C274.942 229.791 272.249 232.426 272.249 235.679Z" fill="#FFBF99"/>
<path d="M239.9 235.679C239.9 238.931 242.593 241.566 245.915 241.566C249.239 241.566 251.932 238.931 251.932 235.679C251.932 232.426 249.239 229.791 245.915 229.791C242.593 229.791 239.9 232.426 239.9 235.679Z" fill="#FFBF99"/>
<path d="M262.026 258.246C251.745 258.246 243.333 250.013 243.333 239.951V225.536C243.333 215.475 251.745 207.242 262.026 207.242C272.307 207.242 280.719 215.475 280.719 225.536V239.951C280.719 250.013 272.307 258.246 262.026 258.246Z" fill="#38E1EC"/>
<path d="M247.148 237.111V241.567L249.446 239.318L251.346 241.177L253.154 239.407L254.83 241.048V235.922L254.24 239.056L253.168 237.917L251.352 239.962L249.408 237.881L248.009 239.375L247.148 237.111Z" fill="#00BDEC"/>
<path d="M255.944 228.988V234.703L258.891 231.818L261.327 234.202L263.645 231.932L265.795 234.036V227.464L265.038 231.481L263.663 230.023L261.335 232.644L258.842 229.976L257.048 231.892L255.944 228.988Z" fill="#00BDEC"/>
<path d="M270.575 242.518V246.082L272.414 244.283L273.931 245.77L275.378 244.355L276.718 245.666V241.568L276.246 244.074L275.389 243.163L273.937 244.799L272.383 243.136L271.263 244.329L270.575 242.518Z" fill="#00BDEC"/>
<path d="M258.088 256.042V260.815L259.451 259.481L260.939 260.936L262.343 259.563L263.789 260.979V256.042H258.088Z" fill="#38E1EC"/>
<path d="M263.076 255.686L263.789 259.725L264.919 258.618L266.152 259.825L267.315 258.687L268.513 259.859V255.77L263.076 255.686Z" fill="#38E1EC"/>
<path d="M253.363 255.77V259.725L254.494 258.618L255.726 259.825L256.889 258.687L258.088 259.859L258.525 255.686L253.363 255.77Z" fill="#38E1EC"/>
<path d="M249.975 212.572L245.795 208.481V212.572H241.857L244.808 215.46H241.857L245.05 218.586H249.975V212.572Z" fill="#38E1EC"/>
<path d="M218.473 300.637L216.375 313.393H228.687V299.044L219.97 297.261" fill="#FFBF99"/>
<path d="M226.455 303.234H218.045L218.474 300.637L226.455 303.234Z" fill="#E4A379"/>
<path d="M240.273 267.861C231.457 272.083 223.614 273.374 213.714 299.087L228.703 303.965C228.703 303.965 238.571 279.927 240.273 267.861Z" fill="#0C3DA9"/>
<path d="M304.556 300.637L306.653 313.393H294.342V299.044L303.058 297.261" fill="#FFBF99"/>
<path d="M296.573 303.234H304.984L304.556 300.637L296.573 303.234Z" fill="#E4A379"/>
<path d="M282.755 267.861C291.571 272.083 299.416 273.374 309.315 299.087L294.327 303.965C294.327 303.965 284.458 279.927 282.755 267.861Z" fill="#0C3DA9"/>
<path d="M266.333 352.49H256.658C240.168 352.49 229.93 344.847 229.93 327.089L226.676 292.401C226.676 276.261 240.168 263.056 256.658 263.056H266.333C282.823 263.056 296.314 276.261 296.314 292.401L291.187 324.995C291.187 345.487 282.823 352.49 266.333 352.49Z" fill="#2C65CD"/>
<path d="M286.002 270.337C266.797 273.276 241.218 270.764 237.012 270.315C232.704 273.994 229.477 278.841 227.858 284.35L230.841 284.654L242.978 286.328L258.525 288.717L272.867 289.605L289.35 287.828L294.651 282.876C292.921 277.985 289.909 273.68 286.002 270.337Z" fill="#1751BD"/>
<path d="M239.012 441.275C239.012 443.884 242.76 443.488 247.384 443.488C252.008 443.488 255.756 443.884 255.756 441.275C255.756 438.666 252.008 436.552 247.384 436.552C242.76 436.552 239.012 438.666 239.012 441.275Z" fill="#2C65CD"/>
<path d="M233.672 362.844L247.219 440.031C247.219 440.031 251.062 441.44 255.728 440.031V381.428L233.672 362.844Z" fill="#C2FDEC"/>
<path d="M255.727 382.723L255.006 381.427L254.208 381.316L236.352 379.509L238.983 393.106C241.176 393.215 251.086 388.742 255.573 399.964L255.727 399.186V382.723Z" fill="#A5DAEC"/>
<path d="M284.941 441.275C284.941 443.884 281.193 443.488 276.569 443.488C271.946 443.488 268.198 443.884 268.198 441.275C268.198 438.666 271.946 436.552 276.569 436.552C281.193 436.552 284.941 438.666 284.941 441.275Z" fill="#2C65CD"/>
<path d="M290.281 362.844L276.734 440.031C276.734 440.031 272.892 441.44 268.226 440.031V381.428L290.281 362.844Z" fill="#C2FDEC"/>
<path d="M268.226 382.723L268.947 381.427L269.745 381.316L287.602 379.509L284.969 393.106C282.778 393.215 272.868 388.742 268.379 399.964L268.226 399.186V382.723Z" fill="#A5DAEC"/>
<path d="M264.108 379.578V429.418C264.108 430.213 263.442 430.864 262.63 430.864H261.291C260.478 430.864 259.812 430.213 259.812 429.418V379.578C259.812 378.783 260.478 378.132 261.291 378.132H262.63C263.442 378.132 264.108 378.783 264.108 379.578Z" fill="#2989E2"/>
<path d="M261.961 402.259C258.086 402.259 254.916 399.156 254.916 395.365V383.575C254.916 379.784 258.086 376.682 261.961 376.682H263.357C266.464 376.682 269.004 379.168 269.004 382.209V395.365C269.004 399.156 265.835 402.259 261.961 402.259Z" fill="#23B5FE"/>
<g opacity="0.649994">
<g opacity="0.649994">
<path opacity="0.649994" d="M269.004 383.771C264.692 381.83 259.261 381.83 254.948 383.771C254.949 382.135 254.949 380.499 254.948 378.865C259.261 376.924 264.692 376.924 269.004 378.865V383.771Z" fill="#2C65CD"/>
</g>
</g>
<path d="M229.713 363.816H220.77C208.837 363.816 199.128 354.313 199.128 342.634C199.128 331.34 208.206 322.083 219.596 321.483C219.723 321.462 219.853 321.453 219.987 321.453H220.77C222.103 321.453 223.184 322.51 223.184 323.814C223.184 325.118 222.103 326.177 220.77 326.177C211.498 326.177 203.955 333.558 203.955 342.634C203.955 351.708 211.498 359.092 220.77 359.092H229.713C231.047 359.092 232.126 360.15 232.126 361.454C232.126 362.758 231.047 363.816 229.713 363.816Z" fill="#2C65CD"/>
<path d="M223.049 326.994H215.264C213.045 326.994 211.23 325.218 211.23 323.046C211.23 320.875 213.045 319.098 215.264 319.098H223.049C225.267 319.098 227.083 320.875 227.083 323.046C227.083 325.218 225.267 326.994 223.049 326.994Z" fill="#38E1EC"/>
<path d="M215.263 319.552H223.048C225.189 319.552 226.935 321.208 227.059 323.273C227.063 323.197 227.082 323.124 227.082 323.046C227.082 320.876 225.267 319.099 223.048 319.099H215.263C213.045 319.099 211.229 320.876 211.229 323.046C211.229 323.124 211.248 323.197 211.253 323.273C211.376 321.208 213.124 319.552 215.263 319.552Z" fill="#5CFDFE"/>
<path d="M293.17 363.816H302.113C314.047 363.816 323.755 354.313 323.755 342.634C323.755 331.34 314.675 322.083 303.287 321.483C303.16 321.462 303.029 321.453 302.896 321.453H302.113C300.78 321.453 299.7 322.51 299.7 323.814C299.7 325.118 300.78 326.177 302.113 326.177C311.386 326.177 318.928 333.558 318.928 342.634C318.928 351.708 311.386 359.092 302.113 359.092H293.17C291.836 359.092 290.756 360.15 290.756 361.454C290.756 362.758 291.836 363.816 293.17 363.816Z" fill="#2C65CD"/>
<path d="M299.834 326.994H307.619C309.838 326.994 311.653 325.218 311.653 323.046C311.653 320.875 309.838 319.098 307.619 319.098H299.834C297.616 319.098 295.8 320.875 295.8 323.046C295.8 325.218 297.616 326.994 299.834 326.994Z" fill="#38E1EC"/>
<path d="M307.619 319.552H299.834C297.695 319.552 295.947 321.208 295.824 323.273C295.82 323.197 295.8 323.124 295.8 323.046C295.8 320.876 297.616 319.099 299.834 319.099H307.619C309.838 319.099 311.653 320.876 311.653 323.046C311.653 323.124 311.634 323.197 311.629 323.273C311.506 321.208 309.758 319.552 307.619 319.552Z" fill="#5CFDFE"/>
<path d="M296.884 376.139H227.037C221.702 376.139 217.337 371.866 217.337 366.644C217.337 361.422 221.702 357.15 227.037 357.15H296.884C302.219 357.15 306.585 361.422 306.585 366.644C306.585 371.866 302.219 376.139 296.884 376.139Z" fill="#38E1EC"/>
<path d="M227.037 358.038H296.883C302.065 358.038 306.321 362.071 306.561 367.088C306.568 366.94 306.585 366.793 306.585 366.643C306.585 361.421 302.219 357.149 296.883 357.149H227.037C221.702 357.149 217.336 361.421 217.336 366.643C217.336 366.793 217.352 366.94 217.359 367.088C217.6 362.071 221.855 358.038 227.037 358.038Z" fill="#7EFDEC"/>
<path d="M273.796 348.648H248.599C238.537 348.648 230.304 340.59 230.304 330.742L225.73 291.991C225.73 282.142 233.963 274.085 244.026 274.085H279.896C289.957 274.085 298.19 282.142 298.19 291.991L292.093 330.742C292.093 340.59 283.859 348.648 273.796 348.648Z" fill="#38E1EC"/>
<path d="M244.026 274.838H279.896C289.776 274.838 297.874 282.613 298.163 292.218L298.191 291.991C298.191 282.142 289.958 274.085 279.896 274.085H244.026C233.964 274.085 225.73 282.142 225.73 291.991L225.754 292.266C226.019 282.638 234.127 274.838 244.026 274.838Z" fill="#5CFDFE"/>
<path d="M292.773 379.716H231.148C228.788 379.716 226.857 377.827 226.857 375.516C226.857 373.207 228.788 371.316 231.148 371.316H292.773C295.133 371.316 297.064 373.207 297.064 375.516C297.064 377.827 295.133 379.716 292.773 379.716Z" fill="#2C65CD"/>
<path d="M277.689 387.971H246.232C244.607 387.971 243.278 386.669 243.278 385.08V382.462C243.278 380.872 244.607 379.571 246.232 379.571H277.689C279.313 379.571 280.642 380.872 280.642 382.462V385.08C280.642 386.669 279.313 387.971 277.689 387.971Z" fill="#2C65CD"/>
<path d="M231.147 371.585H292.773C295.087 371.585 296.976 373.404 297.05 375.65C297.052 375.605 297.064 375.562 297.064 375.516C297.064 373.206 295.132 371.316 292.773 371.316H231.147C228.788 371.316 226.856 373.206 226.856 375.516C226.856 375.562 226.869 375.605 226.87 375.65C226.946 373.404 228.834 371.585 231.147 371.585Z" fill="#25A6F3"/>
<path d="M289.039 381.993H234.882C233.701 381.993 232.734 381.047 232.734 379.89C232.734 378.734 233.701 377.788 234.882 377.788H289.039C290.22 377.788 291.187 378.734 291.187 379.89C291.187 381.047 290.22 381.993 289.039 381.993Z" fill="#2989E2"/>
<path d="M234.882 377.925H289.039C290.196 377.925 291.142 378.835 291.179 379.958C291.181 379.935 291.187 379.915 291.187 379.89C291.187 378.734 290.22 377.788 289.039 377.788H234.882C233.701 377.788 232.735 378.734 232.735 379.89C232.735 379.915 232.741 379.935 232.741 379.958C232.78 378.835 233.724 377.925 234.882 377.925Z" fill="#20C0FF"/>
<path d="M258.054 434.129V427.6C258.054 425.497 259.812 423.776 261.96 423.776C264.11 423.776 265.867 425.497 265.867 427.6V434.129" fill="#23B5FE"/>
<path d="M232.744 441.213C232.163 441.213 231.608 440.887 231.353 440.335C231.008 439.584 231.348 438.699 232.115 438.361C251.58 429.758 273.909 429.758 293.372 438.361C294.14 438.699 294.481 439.584 294.134 440.335C293.789 441.085 292.888 441.424 292.118 441.081C273.451 432.832 252.038 432.832 233.371 441.081C233.167 441.171 232.954 441.213 232.744 441.213Z" fill="#2989E2"/>
<path d="M267.267 435.805H257.265C256.309 435.805 255.527 435.04 255.527 434.104V432.565C255.527 431.631 256.309 430.864 257.265 430.864H267.267C268.222 430.864 269.004 431.631 269.004 432.565V434.104C269.004 435.04 268.222 435.805 267.267 435.805Z" fill="#2C65CD"/>
<path d="M262.263 446.579C261.673 446.579 261.19 446.107 261.19 445.529V434.385C261.19 433.806 261.673 433.334 262.263 433.334C262.853 433.334 263.336 433.806 263.336 434.385V445.529C263.336 446.107 262.853 446.579 262.263 446.579Z" fill="#2989E2"/>
<path d="M262.266 453.346C260.666 453.346 259.356 452.064 259.356 450.498V445.114C259.356 443.548 260.666 442.267 262.266 442.267C263.866 442.267 265.176 443.548 265.176 445.114V450.498C265.176 452.064 263.866 453.346 262.266 453.346Z" fill="#38E1EC"/>
<path d="M289.887 442.893C289.887 445.862 292.346 448.268 295.378 448.268C298.412 448.268 300.87 445.862 300.87 442.893C300.87 439.925 298.412 437.519 295.378 437.519C292.346 437.519 289.887 439.925 289.887 442.893Z" fill="#38E1EC"/>
<path d="M295.379 437.655C298.387 437.655 300.825 440.026 300.863 442.962C300.865 442.938 300.87 442.917 300.87 442.893C300.87 439.925 298.413 437.518 295.379 437.518C292.345 437.518 289.887 439.925 289.887 442.893C289.887 442.917 289.893 442.938 289.893 442.962C289.933 440.026 292.37 437.655 295.379 437.655Z" fill="#85FDFF"/>
<path d="M292.104 442.892C292.104 444.663 293.569 446.098 295.379 446.098C297.187 446.098 298.654 444.663 298.654 442.892C298.654 441.122 297.187 439.688 295.379 439.688C293.569 439.688 292.104 441.122 292.104 442.892Z" fill="#29BDDF"/>
<path d="M294.064 442.892C294.064 443.603 294.653 444.18 295.379 444.18C296.104 444.18 296.693 443.603 296.693 442.892C296.693 442.183 296.104 441.606 295.379 441.606C294.653 441.606 294.064 442.183 294.064 442.892Z" fill="#2989E2"/>
<path d="M295.379 441.674C296.093 441.674 296.667 442.233 296.686 442.928C296.687 442.915 296.693 442.905 296.693 442.893C296.693 442.182 296.104 441.607 295.379 441.607C294.653 441.607 294.064 442.182 294.064 442.893C294.064 442.905 294.071 442.915 294.071 442.928C294.09 442.233 294.664 441.674 295.379 441.674Z" fill="#6BFDFF"/>
<path d="M225.726 442.893C225.726 445.862 228.185 448.268 231.218 448.268C234.252 448.268 236.71 445.862 236.71 442.893C236.71 439.925 234.252 437.519 231.218 437.519C228.185 437.519 225.726 439.925 225.726 442.893Z" fill="#38E1EC"/>
<path d="M231.218 437.655C234.228 437.655 236.664 440.026 236.703 442.962C236.704 442.938 236.71 442.917 236.71 442.893C236.71 439.925 234.252 437.518 231.218 437.518C228.185 437.518 225.726 439.925 225.726 442.893C225.726 442.917 225.734 442.938 225.734 442.962C225.773 440.026 228.209 437.655 231.218 437.655Z" fill="#85FDFF"/>
<path d="M227.943 442.892C227.943 444.663 229.409 446.098 231.218 446.098C233.027 446.098 234.493 444.663 234.493 442.892C234.493 441.122 233.027 439.688 231.218 439.688C229.409 439.688 227.943 441.122 227.943 442.892Z" fill="#29BDDF"/>
<path d="M229.903 442.892C229.903 443.603 230.492 444.18 231.218 444.18C231.944 444.18 232.533 443.603 232.533 442.892C232.533 442.183 231.944 441.606 231.218 441.606C230.492 441.606 229.903 442.183 229.903 442.892Z" fill="#2989E2"/>
<path d="M231.218 441.674C231.932 441.674 232.506 442.233 232.526 442.928C232.526 442.915 232.532 442.905 232.532 442.893C232.532 442.182 231.944 441.607 231.218 441.607C230.492 441.607 229.904 442.182 229.904 442.893C229.904 442.905 229.91 442.915 229.91 442.928C229.93 442.233 230.504 441.674 231.218 441.674Z" fill="#6BFDFF"/>
<path d="M271.684 316.246H252.237C247.31 316.246 243.278 312.3 243.278 307.478C243.278 302.655 247.31 298.709 252.237 298.709H271.684C276.611 298.709 280.643 302.655 280.643 307.478C280.643 312.3 276.611 316.246 271.684 316.246Z" fill="#2C65CD"/>
<path d="M271.684 298.71H252.237C247.31 298.71 243.278 302.656 243.278 307.478C243.278 307.527 243.284 307.575 243.285 307.624C243.366 302.867 247.359 298.999 252.237 298.999H271.684C276.561 298.999 280.554 302.867 280.635 307.624C280.636 307.575 280.643 307.527 280.643 307.478C280.643 302.656 276.611 298.71 271.684 298.71Z" fill="#2985EA"/>
<path d="M263.285 375.517H260.636C259.025 375.517 257.708 374.227 257.708 372.651V308.204C257.708 306.629 259.025 305.339 260.636 305.339H263.285C264.896 305.339 266.213 306.629 266.213 308.204V372.651C266.213 374.227 264.896 375.517 263.285 375.517Z" fill="#1534AB"/>
<path d="M264.698 311.521H259.223C258.891 311.521 258.619 311.255 258.619 310.932V310.304C258.619 309.981 258.891 309.714 259.223 309.714H264.698C265.029 309.714 265.301 309.981 265.301 310.304V310.932C265.301 311.255 265.029 311.521 264.698 311.521Z" fill="#0F71D3"/>
<path d="M264.698 311.43H259.223C258.891 311.43 258.619 311.164 258.619 310.839V310.304C258.619 309.98 258.891 309.714 259.223 309.714H264.698C265.029 309.714 265.301 309.98 265.301 310.304V310.839C265.301 311.164 265.029 311.43 264.698 311.43Z" fill="#152867"/>
<path d="M264.698 316.495H259.223C258.891 316.495 258.619 316.229 258.619 315.904V315.278C258.619 314.953 258.891 314.688 259.223 314.688H264.698C265.029 314.688 265.301 314.953 265.301 315.278V315.904C265.301 316.229 265.029 316.495 264.698 316.495Z" fill="#0F71D3"/>
<path d="M264.698 316.403H259.223C258.891 316.403 258.619 316.137 258.619 315.814V315.278C258.619 314.954 258.891 314.689 259.223 314.689H264.698C265.029 314.689 265.301 314.954 265.301 315.278V315.814C265.301 316.137 265.029 316.403 264.698 316.403Z" fill="#152867"/>
<path d="M264.698 321.221H259.223C258.891 321.221 258.619 320.955 258.619 320.63V320.003C258.619 319.679 258.891 319.413 259.223 319.413H264.698C265.029 319.413 265.301 319.679 265.301 320.003V320.63C265.301 320.955 265.029 321.221 264.698 321.221Z" fill="#0F71D3"/>
<path d="M264.698 321.128H259.223C258.891 321.128 258.619 320.862 258.619 320.538V320.003C258.619 319.678 258.891 319.412 259.223 319.412H264.698C265.029 319.412 265.301 319.678 265.301 320.003V320.538C265.301 320.862 265.029 321.128 264.698 321.128Z" fill="#152867"/>
<path d="M264.698 325.945H259.223C258.891 325.945 258.619 325.68 258.619 325.356V324.729C258.619 324.404 258.891 324.138 259.223 324.138H264.698C265.029 324.138 265.301 324.404 265.301 324.729V325.356C265.301 325.68 265.029 325.945 264.698 325.945Z" fill="#0F71D3"/>
<path d="M264.698 325.854H259.223C258.891 325.854 258.619 325.587 258.619 325.263V324.729C258.619 324.404 258.891 324.138 259.223 324.138H264.698C265.029 324.138 265.301 324.404 265.301 324.729V325.263C265.301 325.587 265.029 325.854 264.698 325.854Z" fill="#152867"/>
<path d="M264.698 330.67H259.223C258.891 330.67 258.619 330.404 258.619 330.08V329.454C258.619 329.129 258.891 328.863 259.223 328.863H264.698C265.029 328.863 265.301 329.129 265.301 329.454V330.08C265.301 330.404 265.029 330.67 264.698 330.67Z" fill="#0F71D3"/>
<path d="M264.698 330.579H259.223C258.891 330.579 258.619 330.313 258.619 329.988V329.454C258.619 329.129 258.891 328.863 259.223 328.863H264.698C265.029 328.863 265.301 329.129 265.301 329.454V329.988C265.301 330.313 265.029 330.579 264.698 330.579Z" fill="#152867"/>
<path d="M264.698 335.396H259.223C258.891 335.396 258.619 335.129 258.619 334.806V334.179C258.619 333.854 258.891 333.588 259.223 333.588H264.698C265.029 333.588 265.301 333.854 265.301 334.179V334.806C265.301 335.129 265.029 335.396 264.698 335.396Z" fill="#0F71D3"/>
<path d="M264.698 335.305H259.223C258.891 335.305 258.619 335.039 258.619 334.714V334.18C258.619 333.855 258.891 333.589 259.223 333.589H264.698C265.029 333.589 265.301 333.855 265.301 334.18V334.714C265.301 335.039 265.029 335.305 264.698 335.305Z" fill="#152867"/>
<path d="M264.698 340.121H259.223C258.891 340.121 258.619 339.855 258.619 339.531V338.904C258.619 338.58 258.891 338.314 259.223 338.314H264.698C265.029 338.314 265.301 338.58 265.301 338.904V339.531C265.301 339.855 265.029 340.121 264.698 340.121Z" fill="#0F71D3"/>
<path d="M264.698 340.03H259.223C258.891 340.03 258.619 339.764 258.619 339.44V338.904C258.619 338.581 258.891 338.315 259.223 338.315H264.698C265.029 338.315 265.301 338.581 265.301 338.904V339.44C265.301 339.764 265.029 340.03 264.698 340.03Z" fill="#152867"/>
<path d="M264.698 344.847H259.223C258.891 344.847 258.619 344.581 258.619 344.256V343.629C258.619 343.306 258.891 343.04 259.223 343.04H264.698C265.029 343.04 265.301 343.306 265.301 343.629V344.256C265.301 344.581 265.029 344.847 264.698 344.847Z" fill="#0F71D3"/>
<path d="M264.698 344.754H259.223C258.891 344.754 258.619 344.489 258.619 344.164V343.629C258.619 343.305 258.891 343.039 259.223 343.039H264.698C265.029 343.039 265.301 343.305 265.301 343.629V344.164C265.301 344.489 265.029 344.754 264.698 344.754Z" fill="#152867"/>
<path d="M264.698 349.572H259.223C258.891 349.572 258.619 349.306 258.619 348.982V348.355C258.619 348.031 258.891 347.765 259.223 347.765H264.698C265.029 347.765 265.301 348.031 265.301 348.355V348.982C265.301 349.306 265.029 349.572 264.698 349.572Z" fill="#0F71D3"/>
<path d="M264.698 349.479H259.223C258.891 349.479 258.619 349.214 258.619 348.89V348.355C258.619 348.031 258.891 347.765 259.223 347.765H264.698C265.029 347.765 265.301 348.031 265.301 348.355V348.89C265.301 349.214 265.029 349.479 264.698 349.479Z" fill="#152867"/>
<path d="M264.698 354.298H259.223C258.891 354.298 258.619 354.032 258.619 353.707V353.08C258.619 352.756 258.891 352.491 259.223 352.491H264.698C265.029 352.491 265.301 352.756 265.301 353.08V353.707C265.301 354.032 265.029 354.298 264.698 354.298Z" fill="#0F71D3"/>
<path d="M264.698 354.205H259.223C258.891 354.205 258.619 353.939 258.619 353.615V353.08C258.619 352.756 258.891 352.49 259.223 352.49H264.698C265.029 352.49 265.301 352.756 265.301 353.08V353.615C265.301 353.939 265.029 354.205 264.698 354.205Z" fill="#152867"/>
<path d="M264.698 359.022H259.223C258.891 359.022 258.619 358.756 258.619 358.432V357.805C258.619 357.48 258.891 357.214 259.223 357.214H264.698C265.029 357.214 265.301 357.48 265.301 357.805V358.432C265.301 358.756 265.029 359.022 264.698 359.022Z" fill="#0F71D3"/>
<path d="M264.698 358.931H259.223C258.891 358.931 258.619 358.665 258.619 358.341V357.806C258.619 357.481 258.891 357.215 259.223 357.215H264.698C265.029 357.215 265.301 357.481 265.301 357.806V358.341C265.301 358.665 265.029 358.931 264.698 358.931Z" fill="#152867"/>
<path d="M264.698 363.747H259.223C258.891 363.747 258.619 363.482 258.619 363.157V362.531C258.619 362.206 258.891 361.94 259.223 361.94H264.698C265.029 361.94 265.301 362.206 265.301 362.531V363.157C265.301 363.482 265.029 363.747 264.698 363.747Z" fill="#0F71D3"/>
<path d="M264.698 363.656H259.223C258.891 363.656 258.619 363.39 258.619 363.066V362.531C258.619 362.207 258.891 361.941 259.223 361.941H264.698C265.029 361.941 265.301 362.207 265.301 362.531V363.066C265.301 363.39 265.029 363.656 264.698 363.656Z" fill="#152867"/>
<path d="M264.698 368.473H259.223C258.891 368.473 258.619 368.208 258.619 367.883V367.256C258.619 366.932 258.891 366.666 259.223 366.666H264.698C265.029 366.666 265.301 366.932 265.301 367.256V367.883C265.301 368.208 265.029 368.473 264.698 368.473Z" fill="#0F71D3"/>
<path d="M264.698 368.381H259.223C258.891 368.381 258.619 368.115 258.619 367.79V367.256C258.619 366.931 258.891 366.665 259.223 366.665H264.698C265.029 366.665 265.301 366.931 265.301 367.256V367.79C265.301 368.115 265.029 368.381 264.698 368.381Z" fill="#152867"/>
<path d="M350.392 297.266C348.358 297.266 346.705 298.885 346.705 300.875C346.705 302.863 348.358 304.482 350.392 304.482C352.425 304.482 354.078 302.863 354.078 300.875C354.078 298.885 352.425 297.266 350.392 297.266ZM350.392 306.001C347.504 306.001 345.154 303.701 345.154 300.875C345.154 298.047 347.504 295.747 350.392 295.747C353.279 295.747 355.63 298.047 355.63 300.875C355.63 303.701 353.279 306.001 350.392 306.001Z" fill="#3AD0EC"/>
<path d="M350.276 293.645V303.945C350.276 308.519 346.453 312.26 341.781 312.26C337.11 312.26 333.287 308.519 333.287 303.945V293.645H350.276Z" fill="#38E1EC"/>
<path d="M349.447 313.393H334.117C333.597 313.393 333.172 312.977 333.172 312.468V312.052C333.172 311.543 333.597 311.127 334.117 311.127H349.447C349.966 311.127 350.391 311.543 350.391 312.052V312.468C350.391 312.977 349.966 313.393 349.447 313.393Z" fill="#3AD0EC"/>
<path d="M95.4632 131.109H205.834C206.006 130.13 206.093 129.134 206.093 128.142C206.093 118.612 198.172 110.86 188.436 110.86C183.682 110.86 179.222 112.685 175.876 116.002L175.157 116.712L174.827 115.765C170.554 103.536 158.809 95.318 145.602 95.318C130.434 95.318 117.623 105.934 115.141 120.56L114.956 121.645L114.104 120.929C112.039 119.195 109.412 118.239 106.703 118.239C100.428 118.239 95.3257 123.233 95.3257 129.373C95.3257 129.953 95.3719 130.534 95.4632 131.109ZM206.876 132.349H94.4157L94.3128 131.852C94.1449 131.038 94.0588 130.204 94.0588 129.373C94.0588 122.55 99.7301 116.999 106.703 116.999C109.354 116.999 111.938 117.823 114.082 119.336C117.078 104.639 130.167 94.079 145.602 94.079C159.021 94.079 170.989 102.227 175.692 114.455C179.185 111.331 183.673 109.62 188.436 109.62C198.87 109.62 207.36 117.929 207.36 128.142C207.36 129.385 207.232 130.633 206.979 131.852L206.876 132.349Z" fill="#1C2898"/>
<path d="M146.765 104.893C146.507 104.893 146.264 104.992 146.082 105.171L135.862 115.173C135.576 115.453 135.499 115.838 135.652 116.202C135.807 116.568 136.14 116.786 136.544 116.786H140.501V124.131C140.501 124.759 141.024 125.27 141.667 125.27H151.863C152.504 125.27 153.027 124.759 153.027 124.131V116.786H156.984C157.388 116.786 157.721 116.568 157.876 116.203C158.031 115.838 157.953 115.453 157.668 115.173L147.446 105.171C147.264 104.992 147.022 104.893 146.765 104.893ZM151.863 126.51H141.667C140.325 126.51 139.236 125.442 139.236 124.131V118.025H136.544C135.625 118.025 134.834 117.508 134.483 116.677C134.13 115.846 134.316 114.933 134.967 114.298L145.187 104.294C146.028 103.47 147.5 103.468 148.341 104.294L158.563 114.298C159.213 114.933 159.398 115.846 159.047 116.677C158.694 117.508 157.904 118.025 156.984 118.025H154.293V124.131C154.293 125.442 153.203 126.51 151.863 126.51" fill="#1C2898"/>
<path d="M282.492 86.1799H327.734C327.805 85.7782 327.84 85.3704 327.84 84.9636C327.84 81.0576 324.594 77.88 320.603 77.88C318.654 77.88 316.825 78.6279 315.454 79.9871L315.159 80.2789L315.024 79.8905C313.272 74.8771 308.458 71.5095 303.044 71.5095C296.827 71.5095 291.576 75.8603 290.559 81.8558L290.483 82.3007L290.133 82.0069C289.287 81.2959 288.209 80.9045 287.1 80.9045C284.527 80.9045 282.435 82.952 282.435 85.469C282.435 85.7063 282.455 85.9447 282.492 86.1799ZM328.161 86.6885H282.064L282.022 86.484C281.951 86.1501 281.917 85.8091 281.917 85.469C281.917 82.6716 284.242 80.396 287.1 80.396C288.187 80.396 289.245 80.734 290.124 81.3545C291.352 75.3291 296.718 71.0009 303.044 71.0009C308.544 71.0009 313.451 74.3408 315.379 79.3532C316.81 78.0721 318.649 77.3715 320.603 77.3715C324.88 77.3715 328.359 80.7771 328.359 84.9636C328.359 85.4731 328.306 85.9847 328.203 86.484L328.161 86.6885Z" fill="#1C2898"/>
<path d="M303.521 75.4341C303.415 75.4341 303.316 75.4741 303.241 75.5471L299.052 79.6482C298.935 79.7623 298.904 79.9195 298.967 80.0695C299.029 80.2194 299.167 80.3088 299.332 80.3088H300.955V83.32C300.955 83.5768 301.169 83.7864 301.431 83.7864H305.611C305.873 83.7864 306.087 83.5768 306.087 83.32V80.3088H307.71C307.876 80.3088 308.012 80.2194 308.076 80.0695C308.138 79.9195 308.107 79.7623 307.99 79.6482L303.801 75.5471C303.726 75.4741 303.627 75.4341 303.521 75.4341ZM305.611 84.2949H301.431C300.881 84.2949 300.435 83.8573 300.435 83.32V80.8163H299.332C298.954 80.8163 298.631 80.6047 298.487 80.2636C298.342 79.9236 298.419 79.5496 298.685 79.2887L302.874 75.1885C303.22 74.8505 303.822 74.8495 304.168 75.1885L308.357 79.2887C308.623 79.5496 308.7 79.9236 308.555 80.2636C308.411 80.6047 308.088 80.8163 307.71 80.8163H306.607V83.32C306.607 83.8573 306.161 84.2949 305.611 84.2949Z" fill="#1C2898"/>
<path d="M344.818 356.704H423.523C423.647 356.006 423.709 355.296 423.709 354.588C423.709 347.793 418.06 342.265 411.117 342.265C407.728 342.265 404.546 343.567 402.161 345.932L401.649 346.439L401.413 345.764C398.366 337.042 389.991 331.182 380.573 331.182C369.756 331.182 360.621 338.752 358.851 349.182L358.719 349.957L358.111 349.445C356.64 348.207 354.766 347.526 352.834 347.526C348.36 347.526 344.721 351.089 344.721 355.467C344.721 355.879 344.753 356.295 344.818 356.704ZM424.266 357.588H344.072L343.999 357.234C343.878 356.653 343.818 356.059 343.818 355.467C343.818 350.602 347.861 346.643 352.834 346.643C354.725 346.643 356.566 347.23 358.096 348.309C360.233 337.829 369.566 330.299 380.573 330.299C390.142 330.299 398.676 336.109 402.029 344.828C404.521 342.6 407.721 341.382 411.117 341.382C418.558 341.382 424.612 347.306 424.612 354.588C424.612 355.476 424.521 356.365 424.341 357.234L424.266 357.588Z" fill="#1C2898"/>
<path d="M381.402 338.011C381.218 338.011 381.045 338.08 380.915 338.208L373.627 345.342C373.423 345.541 373.369 345.815 373.478 346.075C373.588 346.336 373.825 346.491 374.114 346.491H376.935V351.73C376.935 352.177 377.309 352.541 377.766 352.541H385.038C385.494 352.541 385.868 352.177 385.868 351.73V346.491H388.69C388.978 346.491 389.215 346.336 389.326 346.076C389.436 345.815 389.38 345.541 389.177 345.342L381.889 338.208C381.759 338.08 381.585 338.011 381.402 338.011ZM385.038 353.425H377.766C376.811 353.425 376.033 352.665 376.033 351.73V347.375H374.114C373.458 347.375 372.895 347.007 372.643 346.414C372.392 345.82 372.525 345.17 372.989 344.716L380.276 337.583C380.877 336.996 381.926 336.995 382.526 337.583L389.816 344.716C390.279 345.17 390.411 345.82 390.16 346.414C389.908 347.007 389.345 347.375 388.69 347.375H386.77V351.73C386.77 352.665 385.993 353.425 385.038 353.425Z" fill="#1C2898"/>
<g opacity="0.300003">
<path opacity="0.300003" d="M224.653 122.472H67.9995V121.727H224.653V122.472Z" fill="#38E1EC"/>
</g>
<g opacity="0.300003">
<g opacity="0.300003">
<path opacity="0.300003" d="M216.762 215.271H75.8898C71.5326 215.271 67.9995 211.812 67.9995 207.548V121.727H224.653V207.548C224.653 211.812 221.119 215.271 216.762 215.271Z" fill="#38E1EC"/>
</g>
</g>
<g opacity="0.300003">
<path opacity="0.300003" d="M165.418 170.694H82.0009V141.387H165.418V170.694Z" fill="#38E1EC"/>
</g>
<g opacity="0.300003">
<path opacity="0.300003" d="M111.334 185.248H82.0019V176.156H111.334V185.248Z" fill="#38E1EC"/>
</g>
<g opacity="0.300003">
<path opacity="0.300003" d="M165.418 185.248H115.736V176.156H165.418V185.248Z" fill="#38E1EC"/>
</g>
<g opacity="0.300003">
<path opacity="0.300003" d="M216.361 154.073H170.952V141.386H216.361V154.073Z" fill="#38E1EC"/>
</g>
<g opacity="0.300003">
<path opacity="0.300003" d="M216.361 203.398H82.0019V190.711H216.361V203.398Z" fill="#38E1EC"/>
</g>
<g opacity="0.300003">
<path opacity="0.300003" d="M216.361 186.261H170.952V157.389H216.361V186.261Z" fill="#38E1EC"/>
</g>
<g opacity="0.300003">
<path opacity="0.300003" d="M224.653 137.021H67.9995V121.726H224.653V137.021Z" fill="#38E1EC"/>
</g>
<g opacity="0.300003">
<g opacity="0.300003">
<path opacity="0.300003" d="M77.5339 128.99C77.5339 130.741 76.0833 132.162 74.2926 132.162C72.5029 132.162 71.0523 130.741 71.0523 128.99C71.0523 127.238 72.5029 125.817 74.2926 125.817C76.0833 125.817 77.5339 127.238 77.5339 128.99Z" fill="#38E1EC"/>
</g>
</g>
<path d="M74.2927 132.161C72.5146 132.161 71.0734 130.757 71.0556 129.02C71.0556 129.032 71.0524 129.042 71.0524 129.053C71.0524 130.841 72.503 132.289 74.2927 132.289C76.0834 132.289 77.534 130.841 77.534 129.053C77.534 129.042 77.5309 129.032 77.5309 129.02C77.5131 130.757 76.0719 132.161 74.2927 132.161Z" fill="#38E1EC"/>
<g opacity="0.300003">
<g opacity="0.300003">
<path opacity="0.300003" d="M85.2428 128.99C85.2428 130.741 83.7922 132.162 82.0015 132.162C80.2118 132.162 78.7612 130.741 78.7612 128.99C78.7612 127.238 80.2118 125.817 82.0015 125.817C83.7922 125.817 85.2428 127.238 85.2428 128.99Z" fill="#38E1EC"/>
</g>
</g>
<path d="M82.0017 132.161C80.2236 132.161 78.7824 130.757 78.7646 129.02C78.7646 129.032 78.7614 129.042 78.7614 129.053C78.7614 130.841 80.212 132.289 82.0017 132.289C83.7924 132.289 85.2431 130.841 85.2431 129.053C85.2431 129.042 85.2399 129.032 85.2399 129.02C85.2221 130.757 83.7809 132.161 82.0017 132.161Z" fill="#38E1EC"/>
<g opacity="0.300003">
<g opacity="0.300003">
<path opacity="0.300003" d="M92.8919 128.99C92.8919 130.741 91.4413 132.162 89.6516 132.162C87.8609 132.162 86.4103 130.741 86.4103 128.99C86.4103 127.238 87.8609 125.817 89.6516 125.817C91.4413 125.817 92.8919 127.238 92.8919 128.99Z" fill="#38E1EC"/>
</g>
</g>
<path d="M89.6512 132.161C87.872 132.161 86.4319 130.757 86.414 129.02C86.414 129.032 86.4098 129.042 86.4098 129.053C86.4098 130.841 87.8615 132.289 89.6512 132.289C91.4409 132.289 92.8915 130.841 92.8915 129.053C92.8915 129.042 92.8883 129.032 92.8883 129.02C92.8705 130.757 91.4304 132.161 89.6512 132.161Z" fill="#38E1EC"/>
<g opacity="0.660004">
<path opacity="0.660004" d="M224.653 137.021H67.9995V136.726H224.653V137.021Z" fill="#38E1EC"/>
</g>
<path d="M76.8626 128.989C76.8626 130.378 75.7122 131.504 74.293 131.504C72.8739 131.504 71.7235 130.378 71.7235 128.989C71.7235 127.6 72.8739 126.474 74.293 126.474C75.7122 126.474 76.8626 127.6 76.8626 128.989Z" fill="#38E1EC"/>
<path d="M84.5715 128.989C84.5715 130.378 83.421 131.504 82.0019 131.504C80.5828 131.504 79.4323 130.378 79.4323 128.989C79.4323 127.6 80.5828 126.474 82.0019 126.474C83.421 126.474 84.5715 127.6 84.5715 128.989Z" fill="#E1FB09"/>
<path d="M92.221 128.989C92.221 130.378 91.0705 131.504 89.6514 131.504C88.2323 131.504 87.0818 130.378 87.0818 128.989C87.0818 127.6 88.2323 126.474 89.6514 126.474C91.0705 126.474 92.221 127.6 92.221 128.989Z" fill="#FF49A6"/>
<g opacity="0.300003">
<g opacity="0.300003">
<path opacity="0.300003" d="M74.2927 209.223C72.8799 209.223 71.7231 208.091 71.7231 206.708V141.723C71.7231 140.34 72.8799 139.208 74.2927 139.208C75.7066 139.208 76.8623 140.34 76.8623 141.723V206.708C76.8623 208.091 75.7066 209.223 74.2927 209.223Z" fill="#38E1EC"/>
</g>
</g>
<path d="M74.1118 159.759C73.5471 159.759 73.0853 159.307 73.0853 158.754V142.392C73.0853 141.839 73.5471 141.387 74.1118 141.387C74.6766 141.387 75.1384 141.839 75.1384 142.392V158.754C75.1384 159.307 74.6766 159.759 74.1118 159.759Z" fill="#38E1EC"/>
<path d="M85.2428 145.575H120.369" stroke="#34F9EC" stroke-width="1.33333" stroke-miterlimit="10" stroke-linecap="round" stroke-linejoin="round"/>
<path d="M123.71 145.575H129.422" stroke="#34F9EC" stroke-width="1.33333" stroke-miterlimit="10" stroke-linecap="round" stroke-linejoin="round"/>
<path d="M135.72 145.575H160.65" stroke="#34F9EC" stroke-width="1.33333" stroke-miterlimit="10" stroke-linecap="round" stroke-linejoin="round"/>
<path d="M85.2428 149.102H127.716" stroke="#34F9EC" stroke-width="1.33333" stroke-miterlimit="10" stroke-linecap="round" stroke-linejoin="round"/>
<path d="M131.915 148.459H149.181" stroke="#34F9EC" stroke-width="1.33333" stroke-miterlimit="10" stroke-linecap="round" stroke-linejoin="round"/>
<path d="M152.384 148.459H161.174" stroke="#34F9EC" stroke-width="1.33333" stroke-miterlimit="10" stroke-linecap="round" stroke-linejoin="round"/>
<path d="M87.0813 153.468H137.295" stroke="#34F9EC" stroke-width="1.33333" stroke-miterlimit="10" stroke-linecap="round" stroke-linejoin="round"/>
<path d="M143.199 153.468H156.78" stroke="#34F9EC" stroke-width="1.33333" stroke-miterlimit="10" stroke-linecap="round" stroke-linejoin="round"/>
<path d="M161.174 157.39H122.337" stroke="#34F9EC" stroke-width="1.33333" stroke-miterlimit="10" stroke-linecap="round" stroke-linejoin="round"/>
<path d="M139 162.714H85.2432" stroke="#34F9EC" stroke-width="1.33333" stroke-miterlimit="10" stroke-linecap="round" stroke-linejoin="round"/>
<path d="M122.337 166.053H162.093" stroke="#34F9EC" stroke-width="1.33333" stroke-miterlimit="10" stroke-linecap="round" stroke-linejoin="round"/>
<path d="M126.567 167.722H93.8655" stroke="#34F9EC" stroke-width="1.33333" stroke-miterlimit="10" stroke-linecap="round" stroke-linejoin="round"/>
<path d="M85.2428 157.39H99.5066" stroke="#34F9EC" stroke-width="1.33333" stroke-miterlimit="10" stroke-linecap="round" stroke-linejoin="round"/>
<path d="M108.167 178.252H98.3262" stroke="#34F9EC" stroke-width="1.33333" stroke-miterlimit="10" stroke-linecap="round" stroke-linejoin="round"/>
<path d="M107.248 182.49H84.5494" stroke="#34F9EC" stroke-width="1.33333" stroke-miterlimit="10" stroke-linecap="round" stroke-linejoin="round"/>
<path d="M118.27 178.252H122.337" stroke="#34F9EC" stroke-width="1.33333" stroke-miterlimit="10" stroke-linecap="round" stroke-linejoin="round"/>
<path d="M125.683 178.252H129.75" stroke="#34F9EC" stroke-width="1.33333" stroke-miterlimit="10" stroke-linecap="round" stroke-linejoin="round"/>
<path d="M133.096 178.252H137.164" stroke="#34F9EC" stroke-width="1.33333" stroke-miterlimit="10" stroke-linecap="round" stroke-linejoin="round"/>
<path d="M140.509 178.252H144.577" stroke="#34F9EC" stroke-width="1.33333" stroke-miterlimit="10" stroke-linecap="round" stroke-linejoin="round"/>
<path d="M147.923 178.252H151.99" stroke="#34F9EC" stroke-width="1.33333" stroke-miterlimit="10" stroke-linecap="round" stroke-linejoin="round"/>
<path d="M155.336 178.252H159.403" stroke="#34F9EC" stroke-width="1.33333" stroke-miterlimit="10" stroke-linecap="round" stroke-linejoin="round"/>
<path d="M118.27 181.347H120.894" stroke="#34F9EC" stroke-width="1.33333" stroke-miterlimit="10" stroke-linecap="round" stroke-linejoin="round"/>
<path d="M124.371 181.347H126.995" stroke="#34F9EC" stroke-width="1.33333" stroke-miterlimit="10" stroke-linecap="round" stroke-linejoin="round"/>
<path d="M130.472 181.347H133.096" stroke="#34F9EC" stroke-width="1.33333" stroke-miterlimit="10" stroke-linecap="round" stroke-linejoin="round"/>
<path d="M136.573 181.347H139.197" stroke="#34F9EC" stroke-width="1.33333" stroke-miterlimit="10" stroke-linecap="round" stroke-linejoin="round"/>
<path d="M142.674 181.347H145.298" stroke="#34F9EC" stroke-width="1.33333" stroke-miterlimit="10" stroke-linecap="round" stroke-linejoin="round"/>
<path d="M148.775 181.347H151.4" stroke="#34F9EC" stroke-width="1.33333" stroke-miterlimit="10" stroke-linecap="round" stroke-linejoin="round"/>
<path d="M154.876 181.347H157.501" stroke="#34F9EC" stroke-width="1.33333" stroke-miterlimit="10" stroke-linecap="round" stroke-linejoin="round"/>
<path d="M87.7583 193.951L84.8697 196.778L87.646 199.495" stroke="#34F9EC" stroke-width="1.33333" stroke-miterlimit="10" stroke-linecap="round" stroke-linejoin="round"/>
<path d="M90.647 193.951L87.7583 196.778L90.5347 199.495" stroke="#34F9EC" stroke-width="1.33333" stroke-miterlimit="10" stroke-linecap="round" stroke-linejoin="round"/>
<path d="M178.539 144.958L175.651 147.786L178.427 150.502" stroke="#34F9EC" stroke-width="1.33333" stroke-miterlimit="10" stroke-linecap="round" stroke-linejoin="round"/>
<path d="M174.203 160.684H197.066" stroke="#34F9EC" stroke-width="1.33333" stroke-miterlimit="10" stroke-linecap="round" stroke-linejoin="round"/>
<path d="M174.203 163.422H183.186" stroke="#34F9EC" stroke-width="1.33333" stroke-miterlimit="10" stroke-linecap="round" stroke-linejoin="round"/>
<path d="M174.203 167.722H183.186" stroke="#34F9EC" stroke-width="1.33333" stroke-miterlimit="10" stroke-linecap="round" stroke-linejoin="round"/>
<path d="M174.203 172.021H183.186" stroke="#34F9EC" stroke-width="1.33333" stroke-miterlimit="10" stroke-linecap="round" stroke-linejoin="round"/>
<path d="M174.203 176.322H183.186" stroke="#34F9EC" stroke-width="1.33333" stroke-miterlimit="10" stroke-linecap="round" stroke-linejoin="round"/>
<path d="M209.852 166.053H203.762" stroke="#34F9EC" stroke-width="1.33333" stroke-miterlimit="10" stroke-linecap="round" stroke-linejoin="round"/>
<path d="M209.852 168.498H203.762" stroke="#34F9EC" stroke-width="1.33333" stroke-miterlimit="10" stroke-linecap="round" stroke-linejoin="round"/>
<path d="M209.852 170.944H203.762" stroke="#34F9EC" stroke-width="1.33333" stroke-miterlimit="10" stroke-linecap="round" stroke-linejoin="round"/>
<path d="M209.852 173.391H203.762" stroke="#34F9EC" stroke-width="1.33333" stroke-miterlimit="10" stroke-linecap="round" stroke-linejoin="round"/>
<path d="M209.852 175.837H203.762" stroke="#34F9EC" stroke-width="1.33333" stroke-miterlimit="10" stroke-linecap="round" stroke-linejoin="round"/>
<path d="M209.852 178.283H203.762" stroke="#34F9EC" stroke-width="1.33333" stroke-miterlimit="10" stroke-linecap="round" stroke-linejoin="round"/>
<path d="M209.852 180.729H203.762" stroke="#34F9EC" stroke-width="1.33333" stroke-miterlimit="10" stroke-linecap="round" stroke-linejoin="round"/>
<path d="M209.852 183.175H203.762" stroke="#34F9EC" stroke-width="1.33333" stroke-miterlimit="10" stroke-linecap="round" stroke-linejoin="round"/>
<path d="M97.8024 193.951H159.404" stroke="#34F9EC" stroke-width="1.33333" stroke-miterlimit="10" stroke-linecap="round" stroke-linejoin="round"/>
<path d="M97.8024 196.724H135.13" stroke="#34F9EC" stroke-width="1.33333" stroke-miterlimit="10" stroke-linecap="round" stroke-linejoin="round"/>
<path d="M97.8024 200.625H135.13" stroke="#34F9EC" stroke-width="1.33333" stroke-miterlimit="10" stroke-linecap="round" stroke-linejoin="round"/>
<g opacity="0.300003">
<g opacity="0.300003">
<path opacity="0.300003" d="M191.238 293.232H132.948C128.59 293.232 125.058 289.774 125.058 285.509V225.153H199.128V285.509C199.128 289.774 195.595 293.232 191.238 293.232Z" fill="#38E1EC"/>
</g>
</g>
<g opacity="0.300003">
<path opacity="0.300003" d="M195.957 260.79H135.248V239.461H195.957V260.79Z" fill="#38E1EC"/>
</g>
<g opacity="0.300003">
<path opacity="0.300003" d="M156.595 271.383H135.248V264.766H156.595V271.383Z" fill="#38E1EC"/>
</g>
<g opacity="0.300003">
<path opacity="0.300003" d="M195.957 271.383H159.799V264.766H195.957V271.383Z" fill="#38E1EC"/>
</g>
<g opacity="0.300003">
<path opacity="0.300003" d="M199.128 236.285H125.058V225.154H199.128V236.285Z" fill="#38E1EC"/>
</g>
<g opacity="0.300003">
<g opacity="0.300003">
<path opacity="0.300003" d="M131.996 230.439C131.996 231.714 130.94 232.747 129.638 232.747C128.335 232.747 127.279 231.714 127.279 230.439C127.279 229.164 128.335 228.13 129.638 228.13C130.94 228.13 131.996 229.164 131.996 230.439Z" fill="#38E1EC"/>
</g>
</g>
<path d="M129.638 232.747C128.343 232.747 127.295 231.726 127.281 230.461C127.281 230.47 127.279 230.478 127.279 230.486C127.279 231.787 128.335 232.841 129.638 232.841C130.94 232.841 131.996 231.787 131.996 230.486C131.996 230.478 131.994 230.47 131.994 230.461C131.98 231.726 130.932 232.747 129.638 232.747Z" fill="#38E1EC"/>
<g opacity="0.300003">
<g opacity="0.300003">
<path opacity="0.300003" d="M137.607 230.439C137.607 231.714 136.551 232.747 135.248 232.747C133.946 232.747 132.89 231.714 132.89 230.439C132.89 229.164 133.946 228.13 135.248 228.13C136.551 228.13 137.607 229.164 137.607 230.439Z" fill="#38E1EC"/>
</g>
</g>
<path d="M135.248 232.747C133.954 232.747 132.905 231.726 132.892 230.461C132.892 230.47 132.89 230.478 132.89 230.486C132.89 231.787 133.946 232.841 135.248 232.841C136.551 232.841 137.607 231.787 137.607 230.486C137.607 230.478 137.605 230.47 137.605 230.461C137.591 231.726 136.542 232.747 135.248 232.747Z" fill="#38E1EC"/>
<g opacity="0.300003">
<g opacity="0.300003">
<path opacity="0.300003" d="M143.174 230.439C143.174 231.714 142.118 232.747 140.814 232.747C139.513 232.747 138.456 231.714 138.456 230.439C138.456 229.164 139.513 228.13 140.814 228.13C142.118 228.13 143.174 229.164 143.174 230.439Z" fill="#38E1EC"/>
</g>
</g>
<path d="M140.815 232.747C139.521 232.747 138.472 231.726 138.458 230.461C138.458 230.47 138.456 230.478 138.456 230.486C138.456 231.787 139.512 232.841 140.815 232.841C142.117 232.841 143.174 231.787 143.174 230.486C143.174 230.478 143.171 230.47 143.171 230.461C143.159 231.726 142.109 232.747 140.815 232.747Z" fill="#38E1EC"/>
<g opacity="0.660004">
<path opacity="0.660004" d="M199.128 236.285H125.058V236.07H199.128V236.285Z" fill="#38E1EC"/>
</g>
<path d="M131.508 230.439C131.508 231.45 130.671 232.27 129.637 232.27C128.604 232.27 127.768 231.45 127.768 230.439C127.768 229.428 128.604 228.608 129.637 228.608C130.671 228.608 131.508 229.428 131.508 230.439Z" fill="#38E1EC"/>
<path d="M137.118 230.439C137.118 231.45 136.281 232.27 135.248 232.27C134.215 232.27 133.378 231.45 133.378 230.439C133.378 229.428 134.215 228.608 135.248 228.608C136.281 228.608 137.118 229.428 137.118 230.439Z" fill="#E1FB09"/>
<path d="M142.685 230.439C142.685 231.45 141.848 232.27 140.815 232.27C139.782 232.27 138.945 231.45 138.945 230.439C138.945 229.428 139.782 228.608 140.815 228.608C141.848 228.608 142.685 229.428 142.685 230.439Z" fill="#FF49A6"/>
<g opacity="0.300003">
<g opacity="0.300003">
<path opacity="0.300003" d="M129.846 288.831H129.429C128.515 288.831 127.768 288.099 127.768 287.204V239.502C127.768 238.608 128.515 237.876 129.429 237.876H129.846C130.76 237.876 131.508 238.608 131.508 239.502V287.204C131.508 288.099 130.76 288.831 129.846 288.831Z" fill="#38E1EC"/>
</g>
</g>
<path d="M129.589 252.832H129.423C129.058 252.832 128.759 252.539 128.759 252.182V240.111C128.759 239.754 129.058 239.461 129.423 239.461H129.589C129.954 239.461 130.253 239.754 130.253 240.111V252.182C130.253 252.539 129.954 252.832 129.589 252.832Z" fill="#38E1EC"/>
<path d="M137.607 242.51H163.17" stroke="#34F9EC" stroke-width="1.33333" stroke-miterlimit="10" stroke-linecap="round" stroke-linejoin="round"/>
<path d="M165.603 242.51H169.759" stroke="#34F9EC" stroke-width="1.33333" stroke-miterlimit="10" stroke-linecap="round" stroke-linejoin="round"/>
<path d="M174.343 242.51H192.487" stroke="#34F9EC" stroke-width="1.33333" stroke-miterlimit="10" stroke-linecap="round" stroke-linejoin="round"/>
<path d="M137.607 245.076H168.518" stroke="#34F9EC" stroke-width="1.33333" stroke-miterlimit="10" stroke-linecap="round" stroke-linejoin="round"/>
<path d="M171.574 244.608H184.14" stroke="#34F9EC" stroke-width="1.33333" stroke-miterlimit="10" stroke-linecap="round" stroke-linejoin="round"/>
<path d="M186.47 244.608H192.868" stroke="#34F9EC" stroke-width="1.33333" stroke-miterlimit="10" stroke-linecap="round" stroke-linejoin="round"/>
<path d="M138.945 248.254H175.489" stroke="#34F9EC" stroke-width="1.33333" stroke-miterlimit="10" stroke-linecap="round" stroke-linejoin="round"/>
<path d="M179.786 248.254H189.67" stroke="#34F9EC" stroke-width="1.33333" stroke-miterlimit="10" stroke-linecap="round" stroke-linejoin="round"/>
<path d="M192.868 251.108H164.603" stroke="#34F9EC" stroke-width="1.33333" stroke-miterlimit="10" stroke-linecap="round" stroke-linejoin="round"/>
<path d="M176.731 254.982H137.607" stroke="#34F9EC" stroke-width="1.33333" stroke-miterlimit="10" stroke-linecap="round" stroke-linejoin="round"/>
<path d="M164.603 257.412H193.536" stroke="#34F9EC" stroke-width="1.33333" stroke-miterlimit="10" stroke-linecap="round" stroke-linejoin="round"/>
<path d="M167.681 258.627H143.882" stroke="#34F9EC" stroke-width="1.33333" stroke-miterlimit="10" stroke-linecap="round" stroke-linejoin="round"/>
<path d="M137.607 251.108H147.988" stroke="#34F9EC" stroke-width="1.33333" stroke-miterlimit="10" stroke-linecap="round" stroke-linejoin="round"/>
<path d="M154.29 266.291H147.128" stroke="#34F9EC" stroke-width="1.33333" stroke-miterlimit="10" stroke-linecap="round" stroke-linejoin="round"/>
<path d="M153.622 269.375H137.102" stroke="#34F9EC" stroke-width="1.33333" stroke-miterlimit="10" stroke-linecap="round" stroke-linejoin="round"/>
<path d="M161.643 266.291H164.603" stroke="#34F9EC" stroke-width="1.33333" stroke-miterlimit="10" stroke-linecap="round" stroke-linejoin="round"/>
<path d="M167.038 266.291H169.998" stroke="#34F9EC" stroke-width="1.33333" stroke-miterlimit="10" stroke-linecap="round" stroke-linejoin="round"/>
<path d="M172.433 266.291H175.393" stroke="#34F9EC" stroke-width="1.33333" stroke-miterlimit="10" stroke-linecap="round" stroke-linejoin="round"/>
<path d="M177.829 266.291H180.789" stroke="#34F9EC" stroke-width="1.33333" stroke-miterlimit="10" stroke-linecap="round" stroke-linejoin="round"/>
<path d="M183.224 266.291H186.184" stroke="#34F9EC" stroke-width="1.33333" stroke-miterlimit="10" stroke-linecap="round" stroke-linejoin="round"/>
<path d="M188.619 266.291H191.579" stroke="#34F9EC" stroke-width="1.33333" stroke-miterlimit="10" stroke-linecap="round" stroke-linejoin="round"/>
<path d="M161.643 268.543H163.553" stroke="#34F9EC" stroke-width="1.33333" stroke-miterlimit="10" stroke-linecap="round" stroke-linejoin="round"/>
<path d="M166.083 268.543H167.993" stroke="#34F9EC" stroke-width="1.33333" stroke-miterlimit="10" stroke-linecap="round" stroke-linejoin="round"/>
<path d="M170.523 268.543H172.433" stroke="#34F9EC" stroke-width="1.33333" stroke-miterlimit="10" stroke-linecap="round" stroke-linejoin="round"/>
<path d="M174.964 268.543H176.873" stroke="#34F9EC" stroke-width="1.33333" stroke-miterlimit="10" stroke-linecap="round" stroke-linejoin="round"/>
<path d="M179.404 268.543H181.313" stroke="#34F9EC" stroke-width="1.33333" stroke-miterlimit="10" stroke-linecap="round" stroke-linejoin="round"/>
<path d="M183.845 268.543H185.754" stroke="#34F9EC" stroke-width="1.33333" stroke-miterlimit="10" stroke-linecap="round" stroke-linejoin="round"/>
<path d="M188.285 268.543H190.194" stroke="#34F9EC" stroke-width="1.33333" stroke-miterlimit="10" stroke-linecap="round" stroke-linejoin="round"/>
<path d="M139.438 277.717L137.335 279.774L139.356 281.752" stroke="#34F9EC" stroke-width="1.33333" stroke-miterlimit="10" stroke-linecap="round" stroke-linejoin="round"/>
<path d="M141.54 277.717L139.438 279.774L141.458 281.752" stroke="#34F9EC" stroke-width="1.33333" stroke-miterlimit="10" stroke-linecap="round" stroke-linejoin="round"/>
<path d="M146.747 277.717H191.579" stroke="#34F9EC" stroke-width="1.33333" stroke-miterlimit="10" stroke-linecap="round" stroke-linejoin="round"/>
<path d="M146.747 279.734H173.914" stroke="#34F9EC" stroke-width="1.33333" stroke-miterlimit="10" stroke-linecap="round" stroke-linejoin="round"/>
<path d="M146.747 282.574H173.914" stroke="#34F9EC" stroke-width="1.33333" stroke-miterlimit="10" stroke-linecap="round" stroke-linejoin="round"/>
<g opacity="0.300003">
<g opacity="0.300003">
<path opacity="0.300003" d="M384.73 291.496H341.451C337.092 291.496 333.56 288.039 333.56 283.774V262.137H392.621V283.774C392.621 288.039 389.088 291.496 384.73 291.496Z" fill="#38E1EC"/>
</g>
</g>
<g opacity="0.300003">
<path opacity="0.300003" d="M373.972 283.448H339.654V270.693H373.972V283.448Z" fill="#38E1EC"/>
</g>
<g opacity="0.300003">
<path opacity="0.300003" d="M392.621 268.794H333.56V262.137H392.621V268.794Z" fill="#38E1EC"/>
</g>
<g opacity="0.300003">
<g opacity="0.300003">
<path opacity="0.300003" d="M337.71 265.298C337.71 266.06 337.077 266.679 336.298 266.679C335.519 266.679 334.888 266.06 334.888 265.298C334.888 264.536 335.519 263.917 336.298 263.917C337.077 263.917 337.71 264.536 337.71 265.298Z" fill="#38E1EC"/>
</g>
</g>
<path d="M336.298 266.679C335.525 266.679 334.897 266.068 334.89 265.312C334.89 265.317 334.887 265.322 334.887 265.326C334.887 266.104 335.519 266.734 336.298 266.734C337.077 266.734 337.71 266.104 337.71 265.326C337.71 265.322 337.708 265.317 337.708 265.312C337.701 266.068 337.073 266.679 336.298 266.679Z" fill="#38E1EC"/>
<g opacity="0.300003">
<g opacity="0.300003">
<path opacity="0.300003" d="M341.065 265.298C341.065 266.06 340.433 266.679 339.654 266.679C338.875 266.679 338.243 266.06 338.243 265.298C338.243 264.536 338.875 263.917 339.654 263.917C340.433 263.917 341.065 264.536 341.065 265.298Z" fill="#38E1EC"/>
</g>
</g>
<path d="M339.654 266.679C338.88 266.679 338.253 266.068 338.245 265.312C338.245 265.317 338.243 265.322 338.243 265.326C338.243 266.104 338.875 266.734 339.654 266.734C340.433 266.734 341.065 266.104 341.065 265.326C341.065 265.322 341.063 265.317 341.063 265.312C341.055 266.068 340.428 266.679 339.654 266.679Z" fill="#38E1EC"/>
<g opacity="0.300003">
<g opacity="0.300003">
<path opacity="0.300003" d="M344.394 265.298C344.394 266.06 343.761 266.679 342.982 266.679C342.204 266.679 341.573 266.06 341.573 265.298C341.573 264.536 342.204 263.917 342.982 263.917C343.761 263.917 344.394 264.536 344.394 265.298Z" fill="#38E1EC"/>
</g>
</g>
<path d="M342.983 266.679C342.209 266.679 341.581 266.068 341.574 265.312C341.574 265.317 341.572 265.322 341.572 265.326C341.572 266.104 342.204 266.734 342.983 266.734C343.761 266.734 344.394 266.104 344.394 265.326C344.394 265.322 344.392 265.317 344.392 265.312C344.385 266.068 343.757 266.679 342.983 266.679Z" fill="#38E1EC"/>
<g opacity="0.660004">
<path opacity="0.660004" d="M392.621 268.794H333.56V268.665H392.621V268.794Z" fill="#38E1EC"/>
</g>
<path d="M337.418 265.297C337.418 265.903 336.916 266.393 336.299 266.393C335.681 266.393 335.18 265.903 335.18 265.297C335.18 264.693 335.681 264.203 336.299 264.203C336.916 264.203 337.418 264.693 337.418 265.297Z" fill="#38E1EC"/>
<path d="M340.773 265.297C340.773 265.903 340.271 266.393 339.655 266.393C339.036 266.393 338.536 265.903 338.536 265.297C338.536 264.693 339.036 264.203 339.655 264.203C340.271 264.203 340.773 264.693 340.773 265.297Z" fill="#E1FB09"/>
<path d="M344.101 265.297C344.101 265.903 343.6 266.393 342.983 266.393C342.366 266.393 341.864 265.903 341.864 265.297C341.864 264.693 342.366 264.203 342.983 264.203C343.6 264.203 344.101 264.693 344.101 265.297Z" fill="#FF49A6"/>
<g opacity="0.300003">
<g opacity="0.300003">
<path opacity="0.300003" d="M336.298 288.864C335.683 288.864 335.18 288.372 335.18 287.77V270.841C335.18 270.238 335.683 269.745 336.298 269.745C336.914 269.745 337.417 270.238 337.417 270.841V287.77C337.417 288.372 336.914 288.864 336.298 288.864Z" fill="#38E1EC"/>
</g>
</g>
<path d="M336.22 278.689C335.975 278.689 335.773 278.493 335.773 278.252V271.131C335.773 270.89 335.975 270.694 336.22 270.694C336.465 270.694 336.666 270.89 336.666 271.131V278.252C336.666 278.493 336.465 278.689 336.22 278.689Z" fill="#38E1EC"/>
<path d="M351.739 272.062H340.934C340.833 272.062 340.751 271.981 340.751 271.881C340.751 271.782 340.833 271.701 340.934 271.701H351.739C351.84 271.701 351.922 271.782 351.922 271.881C351.922 271.981 351.84 272.062 351.739 272.062Z" fill="#34F9EC"/>
<path d="M354.042 272.062H352.588C352.488 272.062 352.406 271.981 352.406 271.881C352.406 271.782 352.488 271.701 352.588 271.701H354.042C354.144 271.701 354.226 271.782 354.226 271.881C354.226 271.981 354.144 272.062 354.042 272.062Z" fill="#34F9EC"/>
<path d="M368.746 272.062H355.645C355.543 272.062 355.461 271.981 355.461 271.881C355.461 271.782 355.543 271.701 355.645 271.701H368.746C368.848 271.701 368.93 271.782 368.93 271.881C368.93 271.981 368.848 272.062 368.746 272.062Z" fill="#34F9EC"/>
<path d="M353.608 272.958H340.935C340.833 272.958 340.751 272.878 340.751 272.779C340.751 272.679 340.833 272.599 340.935 272.599H353.608C353.71 272.599 353.792 272.679 353.792 272.779C353.792 272.878 353.71 272.958 353.608 272.958Z" fill="#34F9EC"/>
<path d="M365.829 272.795H354.677C354.575 272.795 354.493 272.715 354.493 272.615C354.493 272.516 354.575 272.435 354.677 272.435H365.829C365.931 272.435 366.013 272.516 366.013 272.615C366.013 272.715 365.931 272.795 365.829 272.795Z" fill="#34F9EC"/>
<path d="M368.88 272.795H366.644C366.542 272.795 366.46 272.715 366.46 272.615C366.46 272.516 366.542 272.435 366.644 272.435H368.88C368.981 272.435 369.063 272.516 369.063 272.615C369.063 272.715 368.981 272.795 368.88 272.795Z" fill="#34F9EC"/>
<path d="M356.045 274.069H341.402C341.3 274.069 341.218 273.989 341.218 273.889C341.218 273.79 341.3 273.709 341.402 273.709H356.045C356.147 273.709 356.229 273.79 356.229 273.889C356.229 273.989 356.147 274.069 356.045 274.069Z" fill="#34F9EC"/>
<path d="M367.761 274.069H364.307C364.206 274.069 364.124 273.989 364.124 273.889C364.124 273.79 364.206 273.709 364.307 273.709H367.761C367.863 273.709 367.945 273.79 367.945 273.889C367.945 273.989 367.863 274.069 367.761 274.069Z" fill="#34F9EC"/>
<path d="M368.88 275.066H352.239C352.139 275.066 352.057 274.986 352.057 274.886C352.057 274.787 352.139 274.706 352.239 274.706H368.88C368.981 274.706 369.063 274.787 369.063 274.886C369.063 274.986 368.981 275.066 368.88 275.066Z" fill="#34F9EC"/>
<path d="M356.479 276.421H340.934C340.833 276.421 340.752 276.34 340.752 276.241C340.752 276.142 340.833 276.061 340.934 276.061H356.479C356.58 276.061 356.662 276.142 356.662 276.241C356.662 276.34 356.58 276.421 356.479 276.421Z" fill="#34F9EC"/>
<path d="M369.113 277.271H352.24C352.138 277.271 352.056 277.19 352.056 277.09C352.056 276.991 352.138 276.91 352.24 276.91H369.113C369.215 276.91 369.297 276.991 369.297 277.09C369.297 277.19 369.215 277.271 369.113 277.271Z" fill="#34F9EC"/>
<path d="M347.772 277.695H343.127C343.026 277.695 342.943 277.615 342.943 277.515C342.943 277.416 343.026 277.335 343.127 277.335H347.772C347.873 277.335 347.955 277.416 347.955 277.515C347.955 277.615 347.873 277.695 347.772 277.695Z" fill="#34F9EC"/>
<path d="M344.562 275.066H340.935C340.833 275.066 340.751 274.986 340.751 274.886C340.751 274.787 340.833 274.706 340.935 274.706H344.562C344.664 274.706 344.746 274.787 344.746 274.886C344.746 274.986 344.664 275.066 344.562 275.066Z" fill="#34F9EC"/>
<g opacity="0.300003">
<g opacity="0.300003">
<path opacity="0.300003" d="M406.959 246.816H317.431C313.074 246.816 309.54 243.359 309.54 239.094V97.2279H414.85V239.094C414.85 243.359 411.317 246.816 406.959 246.816Z" fill="#38E1EC"/>
</g>
</g>
<g opacity="0.300003">
<path opacity="0.300003" d="M406.959 188.323H323.542V116.887H406.959V188.323Z" fill="#38E1EC"/>
</g>
<g opacity="0.300003">
<path opacity="0.300003" d="M352.875 216.795H323.543V207.703H352.875V216.795Z" fill="#38E1EC"/>
</g>
<g opacity="0.300003">
<path opacity="0.300003" d="M406.959 216.795H357.277V207.703H406.959V216.795Z" fill="#38E1EC"/>
</g>
<g opacity="0.300003">
<path opacity="0.300003" d="M406.959 234.945H323.542V222.258H406.959V234.945Z" fill="#38E1EC"/>
</g>
<g opacity="0.300003">
<path opacity="0.300003" d="M414.849 112.522H309.54V97.2274H414.849V112.522Z" fill="#38E1EC"/>
</g>
<g opacity="0.300003">
<g opacity="0.300003">
<path opacity="0.300003" d="M319.074 104.49C319.074 106.242 317.624 107.662 315.834 107.662C314.043 107.662 312.593 106.242 312.593 104.49C312.593 102.738 314.043 101.318 315.834 101.318C317.624 101.318 319.074 102.738 319.074 104.49Z" fill="#38E1EC"/>
</g>
</g>
<path d="M315.834 107.662C314.055 107.662 312.615 106.258 312.596 104.521C312.596 104.532 312.593 104.543 312.593 104.554C312.593 106.341 314.043 107.79 315.834 107.79C317.624 107.79 319.074 106.341 319.074 104.554C319.074 104.543 319.071 104.532 319.071 104.521C319.053 106.258 317.612 107.662 315.834 107.662Z" fill="#38E1EC"/>
<g opacity="0.300003">
<g opacity="0.300003">
<path opacity="0.300003" d="M326.784 104.49C326.784 106.242 325.332 107.662 323.542 107.662C321.753 107.662 320.301 106.242 320.301 104.49C320.301 102.738 321.753 101.318 323.542 101.318C325.332 101.318 326.784 102.738 326.784 104.49Z" fill="#38E1EC"/>
</g>
</g>
<path d="M323.542 107.662C321.764 107.662 320.323 106.258 320.305 104.521C320.304 104.532 320.301 104.543 320.301 104.554C320.301 106.341 321.753 107.79 323.542 107.79C325.332 107.79 326.784 106.341 326.784 104.554C326.784 104.543 326.781 104.532 326.781 104.521C326.762 106.258 325.32 107.662 323.542 107.662Z" fill="#38E1EC"/>
<g opacity="0.300003">
<g opacity="0.300003">
<path opacity="0.300003" d="M334.433 104.49C334.433 106.242 332.982 107.662 331.191 107.662C329.402 107.662 327.951 106.242 327.951 104.49C327.951 102.738 329.402 101.318 331.191 101.318C332.982 101.318 334.433 102.738 334.433 104.49Z" fill="#38E1EC"/>
</g>
</g>
<path d="M331.191 107.662C329.413 107.662 327.972 106.258 327.954 104.521C327.954 104.532 327.951 104.543 327.951 104.554C327.951 106.341 329.402 107.79 331.191 107.79C332.982 107.79 334.433 106.341 334.433 104.554C334.433 104.543 334.43 104.532 334.43 104.521C334.411 106.258 332.971 107.662 331.191 107.662Z" fill="#38E1EC"/>
<g opacity="0.660004">
<path opacity="0.660004" d="M414.849 112.522H309.54V112.227H414.849V112.522Z" fill="#38E1EC"/>
</g>
<path d="M318.403 104.49C318.403 105.879 317.252 107.005 315.834 107.005C314.414 107.005 313.264 105.879 313.264 104.49C313.264 103.101 314.414 101.975 315.834 101.975C317.252 101.975 318.403 103.101 318.403 104.49Z" fill="#38E1EC"/>
<path d="M326.112 104.49C326.112 105.879 324.962 107.005 323.543 107.005C322.124 107.005 320.973 105.879 320.973 104.49C320.973 103.101 322.124 101.975 323.543 101.975C324.962 101.975 326.112 103.101 326.112 104.49Z" fill="#E1FB09"/>
<path d="M333.761 104.49C333.761 105.879 332.611 107.005 331.192 107.005C329.773 107.005 328.622 105.879 328.622 104.49C328.622 103.101 329.773 101.975 331.192 101.975C332.611 101.975 333.761 103.101 333.761 104.49Z" fill="#FF49A6"/>
<g opacity="0.300003">
<g opacity="0.300003">
<path opacity="0.300003" d="M315.834 240.77C314.42 240.77 313.264 239.637 313.264 238.255V117.224C313.264 115.84 314.42 114.709 315.834 114.709C317.247 114.709 318.402 115.84 318.402 117.224V238.255C318.402 239.637 317.247 240.77 315.834 240.77Z" fill="#38E1EC"/>
</g>
</g>
<path d="M315.653 135.259C315.088 135.259 314.625 134.807 314.625 134.254V117.892C314.625 117.34 315.088 116.887 315.653 116.887C316.217 116.887 316.679 117.34 316.679 117.892V134.254C316.679 134.807 316.217 135.259 315.653 135.259Z" fill="#38E1EC"/>
<path d="M326.784 121.076H361.909" stroke="#34F9EC" stroke-width="1.33333" stroke-miterlimit="10" stroke-linecap="round" stroke-linejoin="round"/>
<path d="M365.251 121.076H370.962" stroke="#34F9EC" stroke-width="1.33333" stroke-miterlimit="10" stroke-linecap="round" stroke-linejoin="round"/>
<path d="M377.261 121.076H402.19" stroke="#34F9EC" stroke-width="1.33333" stroke-miterlimit="10" stroke-linecap="round" stroke-linejoin="round"/>
<path d="M326.784 124.602H369.257" stroke="#34F9EC" stroke-width="1.33333" stroke-miterlimit="10" stroke-linecap="round" stroke-linejoin="round"/>
<path d="M373.456 123.959H390.722" stroke="#34F9EC" stroke-width="1.33333" stroke-miterlimit="10" stroke-linecap="round" stroke-linejoin="round"/>
<path d="M393.924 123.959H402.715" stroke="#34F9EC" stroke-width="1.33333" stroke-miterlimit="10" stroke-linecap="round" stroke-linejoin="round"/>
<path d="M328.622 128.968H378.835" stroke="#34F9EC" stroke-width="1.33333" stroke-miterlimit="10" stroke-linecap="round" stroke-linejoin="round"/>
<path d="M384.739 128.968H398.32" stroke="#34F9EC" stroke-width="1.33333" stroke-miterlimit="10" stroke-linecap="round" stroke-linejoin="round"/>
<path d="M402.715 132.89H363.877" stroke="#34F9EC" stroke-width="1.33333" stroke-miterlimit="10" stroke-linecap="round" stroke-linejoin="round"/>
<path d="M380.541 138.214H326.784" stroke="#34F9EC" stroke-width="1.33333" stroke-miterlimit="10" stroke-linecap="round" stroke-linejoin="round"/>
<path d="M363.877 141.553H403.633" stroke="#34F9EC" stroke-width="1.33333" stroke-miterlimit="10" stroke-linecap="round" stroke-linejoin="round"/>
<path d="M360.698 151.42H327.997" stroke="#34F9EC" stroke-width="1.33333" stroke-miterlimit="10" stroke-linecap="round" stroke-linejoin="round"/>
<path d="M326.784 132.89H341.047" stroke="#34F9EC" stroke-width="1.33333" stroke-miterlimit="10" stroke-linecap="round" stroke-linejoin="round"/>
<path d="M349.707 209.799H339.866" stroke="#34F9EC" stroke-width="1.33333" stroke-miterlimit="10" stroke-linecap="round" stroke-linejoin="round"/>
<path d="M348.789 214.036H326.09" stroke="#34F9EC" stroke-width="1.33333" stroke-miterlimit="10" stroke-linecap="round" stroke-linejoin="round"/>
<path d="M359.81 209.799H363.877" stroke="#34F9EC" stroke-width="1.33333" stroke-miterlimit="10" stroke-linecap="round" stroke-linejoin="round"/>
<path d="M367.223 209.799H371.291" stroke="#34F9EC" stroke-width="1.33333" stroke-miterlimit="10" stroke-linecap="round" stroke-linejoin="round"/>
<path d="M374.636 209.799H378.704" stroke="#34F9EC" stroke-width="1.33333" stroke-miterlimit="10" stroke-linecap="round" stroke-linejoin="round"/>
<path d="M382.05 209.799H386.117" stroke="#34F9EC" stroke-width="1.33333" stroke-miterlimit="10" stroke-linecap="round" stroke-linejoin="round"/>
<path d="M389.463 209.799H393.53" stroke="#34F9EC" stroke-width="1.33333" stroke-miterlimit="10" stroke-linecap="round" stroke-linejoin="round"/>
<path d="M396.876 209.799H400.943" stroke="#34F9EC" stroke-width="1.33333" stroke-miterlimit="10" stroke-linecap="round" stroke-linejoin="round"/>
<path d="M359.81 212.893H362.434" stroke="#34F9EC" stroke-width="1.33333" stroke-miterlimit="10" stroke-linecap="round" stroke-linejoin="round"/>
<path d="M365.911 212.893H368.535" stroke="#34F9EC" stroke-width="1.33333" stroke-miterlimit="10" stroke-linecap="round" stroke-linejoin="round"/>
<path d="M372.012 212.893H374.636" stroke="#34F9EC" stroke-width="1.33333" stroke-miterlimit="10" stroke-linecap="round" stroke-linejoin="round"/>
<path d="M378.113 212.893H380.738" stroke="#34F9EC" stroke-width="1.33333" stroke-miterlimit="10" stroke-linecap="round" stroke-linejoin="round"/>
<path d="M384.214 212.893H386.839" stroke="#34F9EC" stroke-width="1.33333" stroke-miterlimit="10" stroke-linecap="round" stroke-linejoin="round"/>
<path d="M390.316 212.893H392.94" stroke="#34F9EC" stroke-width="1.33333" stroke-miterlimit="10" stroke-linecap="round" stroke-linejoin="round"/>
<path d="M396.417 212.893H399.041" stroke="#34F9EC" stroke-width="1.33333" stroke-miterlimit="10" stroke-linecap="round" stroke-linejoin="round"/>
<path d="M329.299 225.497L326.41 228.325L329.187 231.041" stroke="#34F9EC" stroke-width="1.33333" stroke-miterlimit="10" stroke-linecap="round" stroke-linejoin="round"/>
<path d="M332.188 225.497L329.299 228.325L332.075 231.041" stroke="#34F9EC" stroke-width="1.33333" stroke-miterlimit="10" stroke-linecap="round" stroke-linejoin="round"/>
<path d="M356.203 157.895L349.708 164.253L355.95 170.363" stroke="#34F9EC" stroke-width="1.33333" stroke-miterlimit="10" stroke-linecap="round" stroke-linejoin="round"/>
<path d="M362.699 157.895L356.203 164.253L362.447 170.363" stroke="#34F9EC" stroke-width="1.33333" stroke-miterlimit="10" stroke-linecap="round" stroke-linejoin="round"/>
<path d="M339.343 225.497H400.944" stroke="#34F9EC" stroke-width="1.33333" stroke-miterlimit="10" stroke-linecap="round" stroke-linejoin="round"/>
<path d="M339.343 228.27H376.671" stroke="#34F9EC" stroke-width="1.33333" stroke-miterlimit="10" stroke-linecap="round" stroke-linejoin="round"/>
<path d="M339.343 232.172H376.671" stroke="#34F9EC" stroke-width="1.33333" stroke-miterlimit="10" stroke-linecap="round" stroke-linejoin="round"/>
<path d="M367.223 160.948C367.223 167.899 372.981 173.533 380.081 173.533C387.183 173.533 392.94 167.899 392.94 160.948C392.94 153.998 387.183 148.363 380.081 148.363C372.981 148.363 367.223 153.998 367.223 160.948Z" stroke="#34F9EC" stroke-width="1.33333" stroke-miterlimit="10" stroke-linecap="round" stroke-linejoin="round"/>
<path d="M374.933 164.13C374.933 166.913 377.238 169.17 380.081 169.17C382.926 169.17 385.232 166.913 385.232 164.13H374.933Z" stroke="#34F9EC" stroke-width="1.33333" stroke-miterlimit="10" stroke-linecap="round" stroke-linejoin="round"/>
<path d="M372.436 158.885C372.436 157.535 373.552 156.441 374.933 156.441C376.312 156.441 377.43 157.535 377.43 158.885" stroke="#34F9EC" stroke-width="1.33333" stroke-miterlimit="10" stroke-linecap="round" stroke-linejoin="round"/>
<path d="M382.733 158.885C382.733 157.535 383.851 156.441 385.231 156.441C386.61 156.441 387.729 157.535 387.729 158.885" stroke="#34F9EC" stroke-width="1.33333" stroke-miterlimit="10" stroke-linecap="round" stroke-linejoin="round"/>
<path d="M390.925 173.117H401.527" stroke="#34F9EC" stroke-width="1.33333" stroke-miterlimit="10" stroke-linecap="round" stroke-linejoin="round"/>
<path d="M414.849 258.801C411.968 258.801 409.623 261.096 409.623 263.916C409.623 266.737 411.968 269.032 414.849 269.032C417.732 269.032 420.077 266.737 420.077 263.916C420.077 261.096 417.732 258.801 414.849 258.801ZM414.849 270.156C411.334 270.156 408.476 267.357 408.476 263.916C408.476 260.477 411.334 257.678 414.849 257.678C418.365 257.678 421.224 260.477 421.224 263.916C421.224 267.357 418.365 270.156 414.849 270.156Z" fill="#1C2898"/>
<path d="M102.806 231.391C99.9233 231.391 97.5795 233.685 97.5795 236.506C97.5795 239.327 99.9233 241.622 102.806 241.622C105.688 241.622 108.033 239.327 108.033 236.506C108.033 233.685 105.688 231.391 102.806 231.391ZM102.806 242.745C99.2904 242.745 96.4311 239.947 96.4311 236.506C96.4311 233.067 99.2904 230.268 102.806 230.268C106.321 230.268 109.18 233.067 109.18 236.506C109.18 239.947 106.321 242.745 102.806 242.745Z" fill="#1C2898"/>
<path d="M242.619 121.944L229.316 108.926L230.801 107.473L244.103 120.492L242.619 121.944Z" fill="#1C2898"/>
<path d="M230.801 121.944L229.317 120.492L242.619 107.473L244.103 108.926L230.801 121.944Z" fill="#1C2898"/>
<path d="M144.611 366.645L156.595 378.374L168.579 366.645L156.595 354.915L144.611 366.645ZM156.595 381.279L141.643 366.645L156.595 352.009L171.547 366.645L156.595 381.279Z" fill="#1C2898"/>
<path d="M94.4961 274.888L106.48 286.617L118.464 274.888L106.48 263.158L94.4961 274.888ZM106.48 289.522L91.5276 274.888L106.48 260.252L121.432 274.888L106.48 289.522Z" fill="#1C2898"/>
<path d="M406.609 293.646L412.6 299.511L418.593 293.646L412.6 287.781L406.609 293.646ZM412.6 300.964L405.125 293.646L412.6 286.328L420.077 293.646L412.6 300.964Z" fill="#1C2898"/>
<path d="M443.313 228.439L434.52 219.833L443.313 211.226L444.231 212.125L436.357 219.833L444.231 227.541L443.313 228.439Z" fill="#1C2898"/>
<path d="M450.082 228.439L441.288 219.833L450.082 211.226L451 212.125L443.124 219.833L451 227.541L450.082 228.439Z" fill="#1C2898"/>
<path d="M287.841 162.681L279.047 154.075L287.841 145.468L288.759 146.366L280.884 154.075L288.759 161.782L287.841 162.681Z" fill="#1C2898"/>
<path d="M294.609 162.681L285.815 154.075L294.609 145.468L295.528 146.366L287.652 154.075L295.528 161.782L294.609 162.681Z" fill="#1C2898"/>
<path d="M247.148 142.067C247.037 142.067 246.926 142.109 246.841 142.192L240.703 148.2C240.513 148.385 240.583 148.601 240.609 148.663C240.634 148.725 240.741 148.926 241.01 148.926H243.532V153.478C243.532 153.778 243.781 154.021 244.087 154.021H250.21C250.516 154.021 250.765 153.778 250.765 153.478V148.926H253.287C253.556 148.926 253.663 148.725 253.688 148.663C253.714 148.601 253.784 148.385 253.593 148.2L247.456 142.192C247.371 142.109 247.26 142.067 247.148 142.067ZM250.21 155.049H244.087C243.202 155.049 242.483 154.344 242.483 153.478V149.953H241.01C240.398 149.953 239.872 149.609 239.639 149.055C239.405 148.503 239.528 147.895 239.96 147.473L246.099 141.465C246.676 140.899 247.619 140.898 248.198 141.465L254.335 147.473C254.768 147.896 254.892 148.503 254.658 149.056C254.424 149.609 253.899 149.953 253.287 149.953H251.814V153.478C251.814 154.344 251.095 155.049 250.21 155.049" fill="#1C2898"/>
<path d="M434.52 174.726C434.409 174.726 434.297 174.768 434.213 174.85L428.074 180.858C427.884 181.044 427.954 181.259 427.981 181.321C428.006 181.383 428.113 181.584 428.382 181.584H430.904V186.136C430.904 186.436 431.152 186.68 431.458 186.68H437.582C437.887 186.68 438.136 186.436 438.136 186.136V181.584H440.659C440.927 181.584 441.033 181.383 441.058 181.321C441.086 181.259 441.155 181.044 440.965 180.858L434.828 174.85C434.743 174.768 434.63 174.726 434.52 174.726ZM437.582 187.707H431.458C430.573 187.707 429.854 187.002 429.854 186.136V182.611H428.382C427.77 182.611 427.244 182.267 427.011 181.714C426.776 181.161 426.9 180.554 427.332 180.131L433.471 174.123C434.048 173.557 434.989 173.556 435.57 174.123L441.707 180.131C442.14 180.555 442.263 181.161 442.029 181.715C441.795 182.267 441.271 182.611 440.659 182.611H439.186V186.136C439.186 187.002 438.467 187.707 437.582 187.707" fill="#1C2898"/>
</g>
<defs>
<radialGradient id="paint0_radial" cx="0" cy="0" r="1" gradientUnits="userSpaceOnUse" gradientTransform="translate(250 250) rotate(90) scale(250)">
<stop stop-color="#202BC5"/>
<stop offset="1" stop-color="#25273D"/>
</radialGradient>
<clipPath id="clip0">
<rect width="383" height="410" fill="white" transform="translate(68 71)"/>
</clipPath>
</defs>
</svg>
