<svg width="722" height="196" viewBox="0 0 722 196" fill="none" xmlns="http://www.w3.org/2000/svg">
<rect width="196" height="196" rx="98" fill="#333333"/>
<path d="M84.392 135L79.748 119.34H62.144L57.392 135H45.296L68.084 67.284H73.916L96.704 135H84.392ZM71 89.856L64.736 110.592H77.156L71 89.856ZM101.996 135V67.716H122.516C130.58 67.716 136.556 69.3 140.444 72.468C144.332 75.636 146.276 79.704 146.276 84.672C146.276 87.552 145.448 90.396 143.792 93.204C142.208 96.012 139.868 98.028 136.772 99.252C140.444 100.836 143.36 103.104 145.52 106.056C147.752 108.936 148.868 112.104 148.868 115.56C148.868 121.392 146.672 126.108 142.28 129.708C137.96 133.236 131.336 135 122.408 135H101.996ZM114.2 94.608H121.544C126.296 94.608 129.536 93.816 131.264 92.232C133.064 90.576 133.964 88.416 133.964 85.752C133.964 83.304 133.064 81.324 131.264 79.812C129.464 78.3 126.584 77.544 122.624 77.544H114.2V94.608ZM114.2 124.956H123.704C127.52 124.956 130.544 124.128 132.776 122.472C135.08 120.816 136.232 118.404 136.232 115.236C136.232 111.996 135.152 109.368 132.992 107.352C130.904 105.336 127.196 104.328 121.868 104.328H114.2V124.956Z" fill="#00F1B7"/>
<path d="M276.392 135L271.748 119.34H254.144L249.392 135H237.296L260.084 67.284H265.916L288.704 135H276.392ZM263 89.856L256.736 110.592H269.156L263 89.856ZM320.132 136.296C317.468 136.296 314.948 135.72 312.572 134.568C310.196 133.416 308.18 131.724 306.524 129.492L304.472 135H295.184V62.532H308.468V63.504C308.036 63.936 307.748 64.44 307.604 65.016C307.532 65.52 307.496 66.348 307.496 67.5V90.396C309.008 88.308 310.916 86.652 313.22 85.428C315.596 84.132 318.08 83.52 320.672 83.592C326.792 83.664 331.688 85.824 335.36 90.072C339.104 94.248 340.976 100.584 340.976 109.08C340.976 115.2 340.004 120.276 338.06 124.308C336.116 128.34 333.56 131.364 330.392 133.38C327.224 135.324 323.804 136.296 320.132 136.296ZM317.648 126.792C320.672 126.792 323.264 125.568 325.424 123.12C327.656 120.6 328.772 116.28 328.772 110.16C328.772 104.688 327.8 100.44 325.856 97.416C323.984 94.32 321.32 92.772 317.864 92.772C314.696 92.772 312.176 94.284 310.304 97.308C308.504 100.26 307.604 104.364 307.604 109.62C307.604 115.164 308.396 119.412 309.98 122.364C311.636 125.316 314.192 126.792 317.648 126.792ZM353.072 135V125.388H365.384V94.392H353.72V84.78H377.696V125.388H388.928V135H353.072ZM371 76.464C368.84 76.464 367.004 75.744 365.492 74.304C364.052 72.864 363.332 71.136 363.332 69.12C363.332 67.032 364.052 65.304 365.492 63.936C366.932 62.496 368.768 61.776 371 61.776C373.016 61.776 374.78 62.496 376.292 63.936C377.876 65.376 378.668 67.104 378.668 69.12C378.668 71.136 377.876 72.864 376.292 74.304C374.78 75.744 373.016 76.464 371 76.464ZM425.972 136.188C421.364 136.188 417.116 135.576 413.228 134.352C409.34 133.128 405.884 131.076 402.86 128.196L408.26 118.26L408.692 117.396L409.556 117.936C409.772 118.44 409.988 119.016 410.204 119.664C410.42 120.24 410.96 120.924 411.824 121.716C413.624 123.228 415.64 124.416 417.872 125.28C420.176 126.144 422.948 126.576 426.188 126.576C429.212 126.576 431.552 126.072 433.208 125.064C434.864 124.056 435.692 122.724 435.692 121.068C435.692 119.412 434.756 118.08 432.884 117.072C431.084 116.064 428.096 114.948 423.92 113.724C418.448 112.284 414.092 110.34 410.852 107.892C407.612 105.444 405.992 102.168 405.992 98.064C405.992 93.96 407.756 90.54 411.284 87.804C414.884 84.996 419.708 83.592 425.756 83.592C434.036 83.592 440.768 86.148 445.952 91.26L440.012 99.576L439.256 100.44L438.5 99.792C438.428 99.216 438.248 98.676 437.96 98.172C437.744 97.668 437.204 96.984 436.34 96.12C434.9 95.112 433.244 94.356 431.372 93.852C429.572 93.276 427.772 92.988 425.972 92.988C423.524 92.988 421.4 93.384 419.6 94.176C417.872 94.968 417.008 96.192 417.008 97.848C417.008 99.288 417.944 100.512 419.816 101.52C421.688 102.528 424.892 103.608 429.428 104.76C435.476 106.272 439.868 108.288 442.604 110.808C445.34 113.256 446.708 116.424 446.708 120.312C446.708 123.192 445.916 125.856 444.332 128.304C442.748 130.68 440.408 132.588 437.312 134.028C434.288 135.468 430.508 136.188 425.972 136.188ZM457.94 62.532H471.116V63.504C470.756 63.936 470.504 64.44 470.36 65.016C470.288 65.52 470.252 66.348 470.252 67.5V91.368C472.052 88.776 474.284 86.832 476.948 85.536C479.612 84.24 482.276 83.592 484.94 83.592C489.764 83.592 493.652 85.248 496.604 88.56C499.556 91.8 501.032 97.164 501.032 104.652V135H488.72V104.868C488.72 100.476 488.072 97.416 486.776 95.688C485.552 93.888 483.86 92.988 481.7 92.988C478.604 92.988 475.904 94.176 473.6 96.552C471.368 98.856 470.252 102.06 470.252 106.164V135H457.94V62.532ZM535.268 136.188C530.444 136.188 526.124 135.18 522.308 133.164C518.564 131.148 515.612 128.196 513.452 124.308C511.292 120.42 510.212 115.74 510.212 110.268C510.212 104.652 511.256 99.864 513.344 95.904C515.504 91.944 518.348 88.92 521.876 86.832C525.476 84.672 529.472 83.592 533.864 83.592C537.752 83.592 541.316 84.492 544.556 86.292C547.868 88.092 550.496 90.828 552.44 94.5C554.456 98.1 555.464 102.6 555.464 108C555.464 108.72 555.428 109.584 555.356 110.592C555.356 111.6 555.32 112.464 555.248 113.184H521.984C522.128 116.352 522.884 118.944 524.252 120.96C525.62 122.904 527.312 124.344 529.328 125.28C531.344 126.216 533.504 126.684 535.808 126.684C538.04 126.684 540.164 126.324 542.18 125.604C544.196 124.884 546.068 123.66 547.796 121.932L554.06 127.98C551.612 130.86 548.804 132.948 545.636 134.244C542.468 135.54 539.012 136.188 535.268 136.188ZM522.2 104.004H543.584C543.584 100.476 542.684 97.776 540.884 95.904C539.084 94.032 536.564 93.096 533.324 93.096C530.516 93.096 528.068 93.996 525.98 95.796C523.892 97.524 522.632 100.26 522.2 104.004ZM582.032 112.212L578.036 116.208V135H565.616V62.532H578.9V63.504C578.468 63.936 578.216 64.44 578.144 65.016C578.072 65.52 578.036 66.348 578.036 67.5V102.924L597.26 84.348C598.34 84.564 599.6 84.744 601.04 84.888C602.48 85.032 603.668 85.104 604.604 85.104H610.436L590.456 104.652L613.136 134.892L599.204 135.432L582.032 112.212ZM671.996 135V67.716H692.516C700.58 67.716 706.556 69.3 710.444 72.468C714.332 75.636 716.276 79.704 716.276 84.672C716.276 87.552 715.448 90.396 713.792 93.204C712.208 96.012 709.868 98.028 706.772 99.252C710.444 100.836 713.36 103.104 715.52 106.056C717.752 108.936 718.868 112.104 718.868 115.56C718.868 121.392 716.672 126.108 712.28 129.708C707.96 133.236 701.336 135 692.408 135H671.996ZM684.2 94.608H691.544C696.296 94.608 699.536 93.816 701.264 92.232C703.064 90.576 703.964 88.416 703.964 85.752C703.964 83.304 703.064 81.324 701.264 79.812C699.464 78.3 696.584 77.544 692.624 77.544H684.2V94.608ZM684.2 124.956H693.704C697.52 124.956 700.544 124.128 702.776 122.472C705.08 120.816 706.232 118.404 706.232 115.236C706.232 111.996 705.152 109.368 702.992 107.352C700.904 105.336 697.196 104.328 691.868 104.328H684.2V124.956Z" fill="black"/>
</svg>
