<svg width="100" height="100" viewBox="0 0 100 100" fill="none" xmlns="http://www.w3.org/2000/svg">
<g clip-path="url(#clip0)">
<path d="M94.7683 38.0315C98.9016 32.9773 100.709 26.4134 99.7467 19.9556C97.8788 7.20928 86.0317 -1.60957 73.2852 0.258373C67.5385 1.1006 62.3124 4.05633 58.6298 8.54761C55.7228 12.2606 50.904 13.9165 46.3288 12.7746C42.4817 11.7058 38.4594 11.4179 34.4992 11.9282C21.1103 13.736 10.5448 24.2051 8.61412 37.5767C7.78542 43.5462 8.78573 49.6268 11.4832 55.0161C5.04901 55.109 -0.0916478 60.4002 0.00123922 66.8342C0.0847542 72.6243 4.40796 77.4744 10.1503 78.2204L11.9481 96.6595C11.9481 98.5 13.4399 99.9918 15.2803 99.9918H25.0022C25.975 99.991 26.8991 99.5648 27.5314 98.8255C28.1895 98.0397 28.4588 96.9994 28.2645 95.9931L23.8093 78.332H24.6423C26.4851 78.342 28.3253 78.4745 30.1506 78.7286C36.1306 91.6928 49.1047 99.9945 63.3817 99.9918C64.4813 99.9918 65.592 99.9424 66.7139 99.8435C84.3897 98.0984 98.3186 84.0163 99.87 66.3225C100.523 58.4706 98.6096 50.6188 94.4167 43.948C93.2532 42.1046 93.3946 39.7243 94.7683 38.0315ZM10.007 74.8331C5.49803 73.9176 2.58521 69.5203 3.50075 65.0113C4.16637 61.7329 6.72868 59.1706 10.007 58.505V74.8331ZM25.0022 96.6595L15.272 96.4929L13.5059 78.332H20.3687L25.0022 96.6595ZM13.3393 74.9998V58.3384H16.6715V74.9998H13.3393ZM24.6373 74.9998H20.0038V58.3384H24.6373C29.4727 58.3401 34.2764 57.5603 38.8628 56.0291L46.662 53.43V79.9082L38.8628 77.309C34.2764 75.7781 29.4727 74.9981 24.6373 74.9998ZM96.5377 66.0543C95.0659 84.3695 79.0256 98.0237 60.7104 96.5521C49.5823 95.6578 39.6446 89.2419 34.2493 79.4683C35.4456 79.7532 36.6352 80.0781 37.8098 80.468L56.1373 86.5761C56.3054 86.6323 56.4816 86.6615 56.6588 86.6627C57.5789 86.6627 58.3249 85.9167 58.3249 84.9966V76.6659C62.0056 76.6659 64.9895 73.6821 64.9895 70.0014V63.3368C64.9895 59.6561 62.0056 56.6723 58.3249 56.6723V48.3416C58.3251 47.4215 57.5793 46.6752 56.6592 46.675C56.4801 46.675 56.3022 46.7038 56.1323 46.7604L37.8048 52.8685C33.5593 54.2847 29.113 55.0065 24.6373 55.0061H15.2803C12.2848 49.8788 11.1 43.8934 11.9164 38.0115C13.9299 23.4364 27.3777 13.253 41.9529 15.2663C43.1262 15.4283 44.2875 15.6687 45.429 15.9852C51.277 17.485 57.4596 15.3994 61.204 10.6636C68.1795 2.11153 80.7669 0.833398 89.3192 7.80867C97.8715 14.784 99.1496 27.3716 92.1741 35.9239C89.9001 38.7236 89.6622 42.6609 91.5827 45.7141C95.3931 51.7788 97.1319 58.9165 96.5377 66.0543ZM49.9943 81.0195V52.3186L54.9927 50.6525V82.6856L49.9943 81.0195ZM58.3249 73.3336V60.0045C60.1654 60.0045 61.6572 61.4963 61.6572 63.3368V70.0014C61.6572 71.8418 60.1652 73.3336 58.3249 73.3336Z" fill="#00F1B7"/>
<path d="M30.0006 68.3347H23.3361V71.667H30.0006V68.3347Z" fill="#00F1B7"/>
<path d="M30.0006 61.6704H23.3361V65.0027H30.0006V61.6704Z" fill="#00F1B7"/>
<path d="M84.7036 22.4249C84.5816 22.242 84.4248 22.085 84.2417 21.963L74.2449 15.2984C73.4795 14.7877 72.4448 14.9941 71.9342 15.7597C71.7515 16.0336 71.6541 16.3554 71.6541 16.6846V30.0137C71.6538 30.6283 71.9919 31.1931 72.5338 31.4832C73.0759 31.7734 73.7336 31.7413 74.2449 31.3999L84.2417 24.7354C85.0073 24.2249 85.2141 23.1905 84.7036 22.4249ZM74.9863 26.8997V19.7986L80.3179 23.3492L74.9863 26.8997Z" fill="#00F1B7"/>
<path d="M76.6524 8.354C68.3709 8.354 61.6572 15.0675 61.6572 23.3492C61.6664 31.627 68.3747 38.3353 76.6524 38.3444C84.9342 38.3444 91.6477 31.6307 91.6477 23.3492C91.6477 15.0677 84.934 8.354 76.6524 8.354ZM76.6524 35.0122C70.2112 35.0122 64.9895 29.7905 64.9895 23.3492C64.9968 16.9111 70.2143 11.6936 76.6524 11.6863C83.0937 11.6863 88.3154 16.9079 88.3154 23.3492C88.3154 29.7905 83.0937 35.0122 76.6524 35.0122Z" fill="#00F1B7"/>
<path d="M43.3297 30.0138H41.6635C40.7434 30.0138 39.9974 29.2678 39.9974 28.3476V23.3492C39.9974 20.5887 37.7596 18.3508 34.999 18.3508C32.2384 18.3508 30.0006 20.5887 30.0006 23.3492V28.3476C30.0006 29.2678 29.2546 30.0138 28.3345 30.0138C28.3345 29.0937 27.5884 28.3476 26.6683 28.3476H20.0038C19.0837 28.3476 18.3376 29.0937 18.3376 30.0138V48.3413C18.3376 49.2614 19.0837 50.0074 20.0038 50.0074H26.6683C27.5884 50.0074 28.3345 49.2614 28.3345 48.3413H43.3297C46.0902 48.3413 48.3281 46.1034 48.3281 43.3429V35.0122C48.3281 32.2518 46.0902 30.0138 43.3297 30.0138ZM25.0022 46.6751H21.6699V31.6799H25.0022V46.6751ZM44.9958 43.3429C44.9958 44.263 44.2498 45.009 43.3297 45.009H28.3345V33.3461C31.095 33.3461 33.3329 31.1082 33.3329 28.3476V23.3492C33.3329 22.4291 34.0789 21.6831 34.999 21.6831C35.9191 21.6831 36.6651 22.4291 36.6651 23.3492V28.3476C36.6651 31.1082 38.903 33.3461 41.6635 33.3461H43.3297C44.2498 33.3461 44.9958 34.0921 44.9958 35.0122V43.3429Z" fill="#00F1B7"/>
<path d="M91.8476 60.5075L91.1378 59.7944C89.4496 58.1172 86.8153 57.8569 84.8315 59.1713L83.0304 60.3726L81.2293 59.1713C79.2458 57.8556 76.6106 58.116 74.923 59.7944L74.2099 60.5075C72.2586 62.4594 72.2586 65.6234 74.2099 67.5752L81.8508 75.2145C82.5014 75.8649 83.5561 75.8649 84.2067 75.2145L91.8476 67.5752C93.7989 65.6234 93.7989 62.4594 91.8476 60.5075ZM89.4946 65.2181C89.4942 65.2185 89.4938 65.2189 89.4934 65.2193L83.0304 71.6806L76.5691 65.226C75.9187 64.5754 75.9187 63.5207 76.5691 62.8701L77.2806 62.1586C77.8423 61.5967 78.7224 61.5097 79.3832 61.9504L82.1074 63.7665C82.6672 64.1401 83.397 64.1401 83.9568 63.7665L86.6826 61.9504C87.3428 61.5101 88.2219 61.5965 88.7836 62.157V62.1503L89.4934 62.8618C90.1444 63.5122 90.145 64.567 89.4946 65.2181Z" fill="#00F1B7"/>
<path d="M65.0434 44.6067L63.3755 51.2708L66.6065 52.0794L68.2744 45.4153L65.0434 44.6067Z" fill="#00F1B7"/>
<path d="M74.2393 50.1828L67.5752 53.5149L69.0654 56.4953L75.7295 53.1632L74.2393 50.1828Z" fill="#00F1B7"/>
<path d="M66.5977 82.925L63.3667 83.7327L65.0325 90.3967L68.2636 89.589L66.5977 82.925Z" fill="#00F1B7"/>
<path d="M69.0645 78.5062L67.5743 81.4866L74.2385 84.8186L75.7287 81.8383L69.0645 78.5062Z" fill="#00F1B7"/>
<path d="M1.67639 45.009H5.00866C5.00866 22.3995 18.4161 8.354 39.9975 8.354V5.02173C16.36 5.02173 1.67639 20.3502 1.67639 45.009Z" fill="#00F1B7"/>
</g>
<defs>
<clipPath id="clip0">
<rect width="100" height="100" fill="white"/>
</clipPath>
</defs>
</svg>
