<svg width="100" height="101" viewBox="0 0 100 101" fill="none" xmlns="http://www.w3.org/2000/svg">
<g clip-path="url(#clip0)">
<path d="M97.9166 96.5161H2.0834C0.933398 96.5161 0 97.4493 0 98.5993C0 99.7493 0.933398 100.683 2.0834 100.683H97.9168C99.0668 100.683 100 99.7493 100 98.5993C100 97.4493 99.0666 96.5161 97.9166 96.5161Z" fill="#00F1B7"/>
<path d="M18.75 71.5161H6.25002C5.10002 71.5161 4.16663 72.4495 4.16663 73.5995V98.5995C4.16663 99.7493 5.10002 100.683 6.25002 100.683H18.75C19.9 100.683 20.8334 99.7493 20.8334 98.5993V73.5993C20.8334 72.4493 19.9 71.5161 18.75 71.5161ZM16.6666 96.5161H8.33342V75.6827H16.6668V96.5161H16.6666Z" fill="#00F1B7"/>
<path d="M43.75 50.6826H31.25C30.1 50.6826 29.1666 51.616 29.1666 52.766V98.5994C29.1666 99.7494 30.1 100.683 31.25 100.683H43.75C44.9 100.683 45.8334 99.7494 45.8334 98.5994V52.766C45.8334 51.616 44.9 50.6826 43.75 50.6826ZM41.6666 96.516H33.3332V54.8492H41.6666V96.516Z" fill="#00F1B7"/>
<path d="M68.75 59.0161H56.25C55.1 59.0161 54.1666 59.9495 54.1666 61.0995V98.5995C54.1666 99.7495 55.1 100.683 56.25 100.683H68.75C69.9 100.683 70.8334 99.7495 70.8334 98.5995V61.0995C70.8334 59.9493 69.9 59.0161 68.75 59.0161ZM66.6666 96.5161H58.3332V63.1827H66.6666V96.5161Z" fill="#00F1B7"/>
<path d="M93.75 34.0161H81.25C80.1 34.0161 79.1666 34.9495 79.1666 36.0995V98.5995C79.1666 99.7495 80.1 100.683 81.25 100.683H93.75C94.9 100.683 95.8334 99.7495 95.8334 98.5995V36.0995C95.8334 34.9493 94.9 34.0161 93.75 34.0161ZM91.6666 96.5161H83.3332V38.1827H91.6666V96.5161Z" fill="#00F1B7"/>
<path d="M12.5 38.1826C7.90413 38.1826 4.16663 41.9201 4.16663 46.516C4.16663 51.1119 7.90413 54.8494 12.5 54.8494C17.0959 54.8494 20.8334 51.1119 20.8334 46.516C20.8334 41.9201 17.0959 38.1826 12.5 38.1826ZM12.5 50.6826C10.2 50.6826 8.33342 48.8117 8.33342 46.516C8.33342 44.2201 10.2 42.3494 12.5 42.3494C14.8 42.3494 16.6666 44.2203 16.6666 46.516C16.6666 48.8117 14.8 50.6826 12.5 50.6826Z" fill="#00F1B7"/>
<path d="M37.5 17.3491C32.9041 17.3491 29.1666 21.0866 29.1666 25.6825C29.1666 30.2784 32.9041 34.0159 37.5 34.0159C42.0959 34.0159 45.8334 30.2784 45.8334 25.6825C45.8334 21.0866 42.0959 17.3491 37.5 17.3491ZM37.5 29.8491C35.2 29.8491 33.3334 27.9782 33.3334 25.6825C33.3334 23.3866 35.2 21.5159 37.5 21.5159C39.8 21.5159 41.6666 23.3868 41.6666 25.6825C41.6666 27.9784 39.8 29.8491 37.5 29.8491Z" fill="#00F1B7"/>
<path d="M62.5 25.6826C57.9041 25.6826 54.1666 29.4201 54.1666 34.016C54.1666 38.6119 57.9041 42.3494 62.5 42.3494C67.0959 42.3494 70.8334 38.6119 70.8334 34.016C70.8334 29.4201 67.0959 25.6826 62.5 25.6826ZM62.5 38.1826C60.2 38.1826 58.3334 36.3117 58.3334 34.016C58.3334 31.7201 60.2 29.8494 62.5 29.8494C64.8 29.8494 66.6666 31.7203 66.6666 34.016C66.6666 36.3117 64.8 38.1826 62.5 38.1826Z" fill="#00F1B7"/>
<path d="M87.5 0.682617C82.9041 0.682617 79.1666 4.42012 79.1666 9.01602C79.1666 13.6119 82.9041 17.3494 87.5 17.3494C92.0959 17.3494 95.8334 13.6119 95.8334 9.01602C95.8334 4.42012 92.0959 0.682617 87.5 0.682617ZM87.5 13.1826C85.2 13.1826 83.3334 11.3117 83.3334 9.01602C83.3334 6.72012 85.2 4.84941 87.5 4.84941C89.8 4.84941 91.6666 6.72031 91.6666 9.01602C91.6666 11.3117 89.8 13.1826 87.5 13.1826Z" fill="#00F1B7"/>
<path d="M84.5584 11.9575C83.7459 11.145 82.425 11.145 81.6125 11.9575L65.4459 28.1241C64.6334 28.9366 64.6334 30.2575 65.4459 31.07C65.8543 31.4741 66.3875 31.6784 66.9209 31.6784C67.45 31.6784 67.9834 31.4784 68.3918 31.07L84.5584 14.9034C85.3709 14.0909 85.3709 12.77 84.5584 11.9575Z" fill="#00F1B7"/>
<path d="M57.4625 29.2075L44.0791 25.3909C42.9582 25.0659 41.8207 25.7159 41.5082 26.8243C41.1916 27.9327 41.8332 29.0827 42.9373 29.3993L56.3207 33.2159C56.5123 33.27 56.7041 33.295 56.8916 33.295C57.8 33.295 58.6332 32.6991 58.8957 31.7825C59.2125 30.6784 58.5709 29.5241 57.4625 29.2075Z" fill="#00F1B7"/>
<path d="M34.25 28.2786C33.5334 27.3786 32.225 27.2327 31.325 27.9452L15.6166 40.4702C14.7166 41.1911 14.5666 42.4993 15.2875 43.3993C15.7 43.9159 16.3084 44.1827 16.9166 44.1827C17.3707 44.1827 17.8291 44.0327 18.2125 43.7327L33.9209 31.2077C34.8209 30.4868 34.9709 29.1786 34.25 28.2786Z" fill="#00F1B7"/>
</g>
<defs>
<clipPath id="clip0">
<rect width="100" height="100" fill="white" transform="translate(0 0.682617)"/>
</clipPath>
</defs>
</svg>
