<svg width="100" height="100" viewBox="0 0 100 100" fill="none" xmlns="http://www.w3.org/2000/svg">
<path d="M57.8125 32.8125V29.6875C47.4734 29.6875 39.0625 38.0984 39.0625 48.4375H42.1875C42.1875 39.8219 49.1969 32.8125 57.8125 32.8125Z" fill="#00F1B7"/>
<path d="M60.6547 33.0704C61.6265 33.2501 62.5812 33.522 63.4937 33.8782L64.6328 30.9688C63.5344 30.5392 62.3875 30.2142 61.2218 29.9985L60.6547 33.0704Z" fill="#00F1B7"/>
<path d="M92.1875 59.375C92.1875 55.0672 88.6828 51.5625 84.375 51.5625V54.6875C86.9594 54.6875 89.0625 56.7906 89.0625 59.375C89.0625 61.9594 86.9594 64.0625 84.375 64.0625H79.6875V67.1875H84.375C88.6828 67.1875 92.1875 63.6828 92.1875 59.375Z" fill="#00F1B7"/>
<path d="M73.4375 64.0625H76.5625V67.1875H73.4375V64.0625Z" fill="#00F1B7"/>
<path d="M67.1875 64.0625H70.3125V67.1875H67.1875V64.0625Z" fill="#00F1B7"/>
<path d="M84.375 73.4375C92.1281 73.4375 98.4375 67.1281 98.4375 59.375C98.4375 51.6219 92.1281 45.3125 84.375 45.3125C83.7766 45.3125 83.1891 45.3625 82.6094 45.4359C81.1219 32.9688 70.5688 23.4375 57.8125 23.4375C56.6156 23.4375 55.4484 23.5516 54.2953 23.7141C52.1766 10.9813 41.2141 1.5625 28.125 1.5625C13.4781 1.5625 1.5625 13.4781 1.5625 28.125C1.5625 35.1984 4.35938 41.8766 9.29219 46.8359C4.71406 49.1578 1.5625 53.9 1.5625 59.375C1.5625 67.1281 7.87188 73.4375 15.625 73.4375H26.5625V90.625C26.5625 91.486 25.8609 92.1875 25 92.1875H16.9C16.2531 90.3735 14.5344 89.0625 12.5 89.0625C9.91563 89.0625 7.8125 91.1656 7.8125 93.75C7.8125 96.3344 9.91563 98.4375 12.5 98.4375C14.5344 98.4375 16.2531 97.1266 16.9 95.3125H25C27.5844 95.3125 29.6875 93.2094 29.6875 90.625V73.4375H35.9375V81.5375C34.1234 82.1844 32.8125 83.9031 32.8125 85.9375C32.8125 88.5219 34.9156 90.625 37.5 90.625C40.0844 90.625 42.1875 88.5219 42.1875 85.9375C42.1875 83.9031 40.8766 82.1844 39.0625 81.5375V73.4375H48.4375V89.35C46.6234 89.9969 45.3125 91.7156 45.3125 93.75C45.3125 96.3344 47.4156 98.4375 50 98.4375C52.5844 98.4375 54.6875 96.3344 54.6875 93.75C54.6875 91.7156 53.3766 89.9969 51.5625 89.35V73.4375H60.9375V81.5375C59.1234 82.1844 57.8125 83.9031 57.8125 85.9375C57.8125 88.5219 59.9156 90.625 62.5 90.625C65.0844 90.625 67.1875 88.5219 67.1875 85.9375C67.1875 83.9031 65.8766 82.1844 64.0625 81.5375V73.4375H70.3125V90.625C70.3125 93.2094 72.4156 95.3125 75 95.3125H83.1C83.7469 97.1266 85.4656 98.4375 87.5 98.4375C90.0844 98.4375 92.1875 96.3344 92.1875 93.75C92.1875 91.1656 90.0844 89.0625 87.5 89.0625C85.4656 89.0625 83.7469 90.3735 83.1 92.1875H75C74.1391 92.1875 73.4375 91.486 73.4375 90.625V73.4375H84.375ZM12.5 95.3125C11.6391 95.3125 10.9375 94.611 10.9375 93.75C10.9375 92.8891 11.6391 92.1875 12.5 92.1875C13.3609 92.1875 14.0625 92.8891 14.0625 93.75C14.0625 94.611 13.3609 95.3125 12.5 95.3125ZM37.5 87.5C36.6391 87.5 35.9375 86.7985 35.9375 85.9375C35.9375 85.0766 36.6391 84.375 37.5 84.375C38.3609 84.375 39.0625 85.0766 39.0625 85.9375C39.0625 86.7985 38.3609 87.5 37.5 87.5ZM50 95.3125C49.1391 95.3125 48.4375 94.611 48.4375 93.75C48.4375 92.8891 49.1391 92.1875 50 92.1875C50.8609 92.1875 51.5625 92.8891 51.5625 93.75C51.5625 94.611 50.8609 95.3125 50 95.3125ZM62.5 87.5C61.6391 87.5 60.9375 86.7985 60.9375 85.9375C60.9375 85.0766 61.6391 84.375 62.5 84.375C63.3609 84.375 64.0625 85.0766 64.0625 85.9375C64.0625 86.7985 63.3609 87.5 62.5 87.5ZM87.5 92.1875C88.361 92.1875 89.0625 92.8891 89.0625 93.75C89.0625 94.611 88.361 95.3125 87.5 95.3125C86.6391 95.3125 85.9375 94.611 85.9375 93.75C85.9375 92.8891 86.6391 92.1875 87.5 92.1875ZM34.3219 39.9656C32.8547 39.3797 31.2844 39.0625 29.6875 39.0625H18.5203C17.7797 36.1531 17.3453 32.9688 17.2391 29.6875H39.0266C39 30.5141 38.9563 31.3344 38.8875 32.1484C36.9188 34.4328 35.3672 37.0766 34.3219 39.9656ZM4.77344 29.6875H14.1141C14.2125 32.9422 14.6141 36.1172 15.3031 39.0625H7.42813C5.90469 36.1828 4.99375 33.0031 4.77344 29.6875ZM28.125 4.6875C31.6125 4.6875 34.7719 8.41719 36.7906 14.0625H19.4594C21.4781 8.41719 24.6375 4.6875 28.125 4.6875ZM37.7484 17.1875C38.4703 20.0328 38.9141 23.2156 39.0234 26.5625H17.225C17.3344 23.2156 17.7781 20.0328 18.5 17.1875H37.7484ZM14.1031 26.5625H4.76719C4.99063 23.1953 5.91094 20.0188 7.4125 17.1875H15.2781C14.6063 20.0625 14.2016 23.2203 14.1031 26.5625ZM40.9719 17.1875H48.8703C50.0219 19.3797 50.8203 21.7891 51.2328 24.3453C47.8797 25.2625 44.8031 26.8453 42.1672 28.9672C42.1734 28.6859 42.1875 28.4063 42.1875 28.125C42.1875 24.2 41.7484 20.5094 40.9719 17.1875ZM46.8891 14.0625H40.1C39.0672 10.8859 37.7016 8.15781 36.0688 6.08125C40.4094 7.63594 44.1641 10.4234 46.8891 14.0625ZM20.1594 6.11094C18.5375 8.18438 17.1781 10.9016 16.15 14.0625H9.42031C12.1328 10.4625 15.8484 7.67656 20.1594 6.11094ZM9.39219 42.1875H21.4469C20.3234 43.1766 19.3734 44.3547 18.6625 45.6844C17.6656 45.4641 16.6563 45.3125 15.625 45.3125C14.5875 45.3125 13.5797 45.4328 12.6063 45.6469C11.4141 44.5906 10.3328 43.4375 9.39219 42.1875ZM4.6875 59.375C4.6875 53.3438 9.59375 48.4375 15.625 48.4375C16.2766 48.4375 16.9188 48.5078 17.5516 48.6203C17.3219 49.5656 17.1875 50.5469 17.1875 51.5625H20.3125C20.3125 46.3922 24.5172 42.1875 29.6875 42.1875C30.9844 42.1875 32.2578 42.4609 33.4328 42.9734C33.0375 44.7344 32.8125 46.5594 32.8125 48.4375H35.9375C35.9375 36.375 45.75 26.5625 57.8125 26.5625C69.1016 26.5625 78.4141 35.0938 79.5469 46.1844C74.1672 48.1609 70.3125 53.3203 70.3125 59.375H73.4375C73.4375 53.3438 78.3438 48.4375 84.375 48.4375C90.4063 48.4375 95.3125 53.3438 95.3125 59.375C95.3125 65.4063 90.4063 70.3125 84.375 70.3125H15.625C9.59375 70.3125 4.6875 65.4063 4.6875 59.375Z" fill="#00F1B7"/>
<path d="M59.375 54.6875C56.7906 54.6875 54.6875 56.7906 54.6875 59.375C54.6875 61.9594 56.7906 64.0625 59.375 64.0625C61.9594 64.0625 64.0625 61.9594 64.0625 59.375C64.0625 56.7906 61.9594 54.6875 59.375 54.6875ZM59.375 60.9375C58.5141 60.9375 57.8125 60.2359 57.8125 59.375C57.8125 58.5141 58.5141 57.8125 59.375 57.8125C60.2359 57.8125 60.9375 58.5141 60.9375 59.375C60.9375 60.2359 60.2359 60.9375 59.375 60.9375Z" fill="#00F1B7"/>
<path d="M46.875 54.6875C44.2906 54.6875 42.1875 56.7906 42.1875 59.375C42.1875 61.9594 44.2906 64.0625 46.875 64.0625C49.4594 64.0625 51.5625 61.9594 51.5625 59.375C51.5625 56.7906 49.4594 54.6875 46.875 54.6875ZM46.875 60.9375C46.0141 60.9375 45.3125 60.2359 45.3125 59.375C45.3125 58.5141 46.0141 57.8125 46.875 57.8125C47.7359 57.8125 48.4375 58.5141 48.4375 59.375C48.4375 60.2359 47.7359 60.9375 46.875 60.9375Z" fill="#00F1B7"/>
<path d="M34.375 54.6875C31.7906 54.6875 29.6875 56.7906 29.6875 59.375C29.6875 61.9594 31.7906 64.0625 34.375 64.0625C36.9594 64.0625 39.0625 61.9594 39.0625 59.375C39.0625 56.7906 36.9594 54.6875 34.375 54.6875ZM34.375 60.9375C33.5141 60.9375 32.8125 60.2359 32.8125 59.375C32.8125 58.5141 33.5141 57.8125 34.375 57.8125C35.2359 57.8125 35.9375 58.5141 35.9375 59.375C35.9375 60.2359 35.2359 60.9375 34.375 60.9375Z" fill="#00F1B7"/>
<path d="M79.6875 31.25H82.8125C82.8125 26.0797 78.6078 21.875 73.4375 21.875V25C76.8844 25 79.6875 27.8031 79.6875 31.25Z" fill="#00F1B7"/>
<path d="M85.9375 31.25H89.0625C89.0625 22.6344 82.0531 15.625 73.4375 15.625V18.75C80.3297 18.75 85.9375 24.3578 85.9375 31.25Z" fill="#00F1B7"/>
<path d="M92.1875 31.25H95.3125C95.3125 19.1875 85.5 9.375 73.4375 9.375V12.5C83.7766 12.5 92.1875 20.9109 92.1875 31.25Z" fill="#00F1B7"/>
</svg>
