<svg width="120" height="120" viewBox="0 0 120 120" fill="none" xmlns="http://www.w3.org/2000/svg">
<g clip-path="url(#clip0)">
<path d="M81.4074 42.4903C80.4616 42.0246 79.9711 40.9606 80.2311 39.9396C80.4321 39.1566 79.9606 38.3594 79.1777 38.1584C78.3957 37.9574 77.5984 38.4289 77.3974 39.2109C77.0631 40.5187 77.2565 41.9055 77.9337 43.0723C77.828 43.4447 77.627 43.7838 77.3498 44.0543C76.7726 44.6191 76.7621 45.5459 77.327 46.1241C77.8918 46.7013 78.8176 46.7118 79.3958 46.1469C79.7006 45.8478 79.9663 45.5126 80.1882 45.1478C80.915 45.4497 81.7503 45.1221 82.0789 44.4067C82.4076 43.6905 82.1104 42.8437 81.4074 42.4894V42.4903Z" fill="#00F1B7"/>
<path d="M77.5622 32.538C78.3452 32.7389 79.1424 32.2675 79.3434 31.4845C79.5444 30.7025 79.0729 29.9053 78.2909 29.7043C75.8792 29.088 73.3417 30.0624 71.9635 32.1351C71.9511 32.1541 71.9397 32.1732 71.9273 32.1932C70.9453 32.4065 69.9223 32.1008 69.2194 31.3835C68.8546 31.0045 68.3154 30.8511 67.8059 30.9797C67.2963 31.1092 66.8953 31.5007 66.7553 32.0074C66.6153 32.5141 66.7572 33.0571 67.1277 33.4295C68.1488 34.4753 69.528 35.0983 70.9881 35.1735C70.9538 36.2289 71.2034 37.2747 71.713 38.2005C72.1035 38.9082 72.9931 39.1654 73.7008 38.7749C74.4085 38.3843 74.6657 37.4938 74.2752 36.7861C73.8247 35.9698 73.7904 34.9878 74.1828 34.142C74.5752 33.2971 75.3467 32.6885 76.2602 32.5046C76.6917 32.417 77.1365 32.4284 77.5622 32.538Z" fill="#00F1B7"/>
<path d="M39.8132 45.1478C40.0341 45.5126 40.3008 45.8488 40.6047 46.1479C41.1828 46.7127 42.1096 46.7022 42.6744 46.1241C43.2393 45.5459 43.2288 44.6201 42.6506 44.0553C42.3734 43.7838 42.1725 43.4447 42.0677 43.0723C42.7449 41.9055 42.9373 40.5187 42.6039 39.2118C42.403 38.4289 41.6057 37.9574 40.8228 38.1584C40.0398 38.3594 39.5684 39.1566 39.7693 39.9395C40.0303 40.9606 39.5398 42.0245 38.594 42.4903C37.8606 42.8265 37.5386 43.6943 37.8748 44.4286C38.212 45.1621 39.0797 45.484 39.8132 45.1478Z" fill="#00F1B7"/>
<path d="M44.8775 32.5379C45.8529 32.2883 46.8873 32.5579 47.6178 33.2513C48.3474 33.9447 48.6694 34.9648 48.4703 35.9516C48.4113 36.244 48.3084 36.5269 48.1646 36.7879C47.774 37.4956 48.0312 38.3862 48.7389 38.7767C49.4466 39.1672 50.3362 38.91 50.7268 38.2023C51.2363 37.2765 51.4868 36.2307 51.4516 35.1753C52.9118 35.1001 54.291 34.4772 55.312 33.4313C55.6826 33.0579 55.8245 32.516 55.6845 32.0093C55.5444 31.5025 55.1434 31.1101 54.6339 30.9815C54.1243 30.852 53.5852 31.0063 53.2204 31.3854C52.9137 31.6997 52.5384 31.9407 52.1231 32.0883C51.6069 32.274 51.0487 32.3112 50.5115 32.194C50.4991 32.175 50.4877 32.1559 50.4753 32.1369C49.097 30.0643 46.5596 29.0889 44.1489 29.7052C43.3659 29.9062 42.8944 30.7043 43.0954 31.4863C43.2964 32.2693 44.0936 32.7408 44.8766 32.5398L44.8775 32.5379Z" fill="#00F1B7"/>
<path d="M107.362 47.8794C108.105 51.0455 111.102 53.1524 114.332 52.7781C117.563 52.4047 120 49.6682 120 46.4164C120 43.1646 117.563 40.429 114.332 40.0557C111.102 39.6813 108.105 41.7882 107.362 44.9534H94.1784C94.7337 42.9474 94.5328 40.8062 93.6155 38.9374H95.1604C98.7428 38.9336 101.646 36.0304 101.65 32.4481C101.652 30.4812 103.246 28.8877 105.213 28.8849H106.253C106.996 32.0519 109.995 34.1597 113.226 33.7854C116.457 33.412 118.896 30.6755 118.896 27.4218C118.896 24.1691 116.457 21.4326 113.226 21.0582C109.995 20.6849 106.996 22.7918 106.253 25.9588H105.213C101.631 25.9636 98.7275 28.8658 98.7237 32.4481C98.7209 34.415 97.1273 36.0095 95.1604 36.0114H91.24C91.0695 35.878 90.8942 35.7475 90.7104 35.6256C90.4094 35.4285 90.097 35.2494 89.7741 35.0913C90.7314 31.2937 89.6474 27.2713 86.9119 24.4682C84.1754 21.6659 80.1797 20.4858 76.3602 21.3526C76.6431 18.5675 75.3677 15.8529 73.0436 14.2918C70.7196 12.7306 67.724 12.5773 65.2532 13.8927C62.7815 15.208 61.2356 17.7779 61.2318 20.5772V41.4854C60.8898 41.4653 60.546 41.4539 60.2012 41.4511C60.1336 41.4511 60.0669 41.4511 59.9983 41.4511C59.5868 41.4511 59.1773 41.4653 58.7696 41.4882V20.5772C58.7829 17.7664 57.2399 15.1776 54.7606 13.8517C52.2812 12.5258 49.2723 12.6801 46.9416 14.2527C44.6108 15.8243 43.3402 18.557 43.6412 21.3526C39.8208 20.4791 35.8203 21.6564 33.0828 24.4615C30.3444 27.2656 29.2634 31.2928 30.2282 35.0913C29.9053 35.2494 29.592 35.4285 29.2919 35.6256C29.1081 35.7475 28.9328 35.878 28.7614 36.0114H24.8409C22.8741 36.0095 21.2796 34.415 21.2777 32.4481C21.2739 28.8658 18.3707 25.9636 14.7884 25.9588H13.7482C13.0053 22.7927 10.0078 20.6868 6.77697 21.0601C3.54707 21.4345 1.10965 24.17 1.10965 27.4218C1.10965 30.6736 3.54707 33.4101 6.77697 33.7835C10.0078 34.1578 13.0053 32.0509 13.7482 28.8849H14.7884C16.7553 28.8877 18.3488 30.4812 18.3516 32.4481C18.3554 36.0304 21.2586 38.9336 24.8409 38.9374H26.3859C25.4677 40.8062 25.2677 42.9474 25.823 44.9534H12.6395C11.8966 41.7873 8.89912 39.6804 5.66827 40.0547C2.43742 40.429 0 43.1646 0 46.4164C0 49.6691 2.43742 52.4047 5.66827 52.779C8.89912 53.1534 11.8966 51.0465 12.6395 47.8794H27.2993C27.5174 48.1623 27.7546 48.43 28.008 48.6824C26.443 50.0806 25.3 51.8875 24.7057 53.9001C21.1777 53.9773 18.3554 56.8566 18.3516 60.3866C18.3488 62.3525 16.7553 63.9451 14.7884 63.9479H13.7482C13.0053 60.7819 10.0078 58.6759 6.77792 59.0493C3.54803 59.4236 1.1106 62.1592 1.1106 65.411C1.1106 68.6618 3.54803 71.3974 6.77792 71.7717C10.0078 72.1451 13.0053 70.0391 13.7482 66.874H14.7884C18.3707 66.8692 21.2729 63.967 21.2777 60.3847C21.2805 58.6454 22.5369 57.1624 24.2523 56.8738C24.2523 56.9395 24.2475 57.0043 24.2475 57.07C24.2533 61.682 27.0669 65.8243 31.3503 67.5312V70.0505C31.3512 73.1414 32.9714 76.0065 35.6203 77.6C38.2682 79.1935 41.5581 79.283 44.2898 77.8362C44.6461 78.2153 45.0166 78.582 45.4014 78.9363C48.0141 81.3604 49.4933 84.7675 49.4819 88.3317V98.3776C49.4847 100.895 51.525 102.935 54.0414 102.937H58.5382V105.493C58.5382 106.301 59.1925 106.956 60.0012 106.956C60.8089 106.956 61.4642 106.301 61.4642 105.493V102.935H65.96C68.4774 102.933 70.5176 100.893 70.5205 98.3757V88.3155C70.5471 84.7103 72.0654 81.2775 74.7143 78.8325C75.0553 78.5134 75.3896 78.181 75.7135 77.8381C78.4452 79.284 81.7341 79.1944 84.383 77.6009C87.0309 76.0074 88.6502 73.1433 88.6521 70.0524V67.5322C92.9354 65.8253 95.7481 61.6829 95.7548 57.071C95.7548 57.0052 95.751 56.9405 95.7491 56.8747C97.4645 57.1633 98.7218 58.6464 98.7247 60.3856C98.7294 63.967 101.632 66.8692 105.213 66.874H106.253C106.996 70.041 109.995 72.1479 113.226 71.7745C116.457 71.4002 118.896 68.6637 118.896 65.411C118.896 62.1572 116.457 59.4207 113.226 59.0464C109.995 58.673 106.996 60.7799 106.253 63.9479H105.213C103.245 63.9451 101.652 62.3506 101.65 60.3837C101.645 56.8547 98.8237 53.9744 95.2957 53.8982C94.7013 51.8856 93.5584 50.0787 91.9934 48.6795C92.2468 48.4281 92.483 48.1595 92.7021 47.8775L107.362 47.8794ZM111.132 43.9618C112.488 42.6055 114.687 42.6055 116.042 43.9618C117.398 45.3182 117.398 47.5165 116.042 48.8719C114.687 50.2283 112.488 50.2283 111.132 48.8719C110.478 48.2223 110.111 47.3384 110.111 46.4173C110.111 45.4953 110.478 44.6114 111.132 43.9618ZM110.023 24.9673C111.379 23.6109 113.577 23.6109 114.933 24.9673C116.289 26.3227 116.289 28.521 114.933 29.8764C113.577 31.2327 111.379 31.2327 110.023 29.8764C109.37 29.2268 109.002 28.3438 109.002 27.4218C109.002 26.5008 109.37 25.6169 110.023 24.9673ZM9.97829 29.8774C8.62289 31.2308 6.42645 31.2308 5.07201 29.8754C3.71757 28.5201 3.71757 26.3236 5.07201 24.9692C6.42645 23.6138 8.62289 23.6128 9.97829 24.9673C11.3318 26.3236 11.3318 28.5201 9.97829 29.8774ZM8.86959 48.8719C7.5142 50.2264 5.3168 50.2254 3.96236 48.87C2.60792 47.5156 2.60792 45.3182 3.96236 43.9637C5.3168 42.6083 7.5142 42.6074 8.86959 43.9618C10.2231 45.3191 10.2231 47.5156 8.86959 48.8719ZM9.97829 67.8665C8.62289 69.2209 6.42645 69.22 5.07201 67.8655C3.71757 66.5101 3.71757 64.3137 5.07201 62.9583C6.42645 61.6039 8.62289 61.6029 9.97829 62.9573C11.3318 64.3137 11.3318 66.5101 9.97829 67.8665ZM110.023 62.9573C111.379 61.601 113.577 61.601 114.933 62.9573C116.289 64.3127 116.289 66.5111 114.933 67.8665C113.577 69.2228 111.379 69.2228 110.023 67.8665C109.37 67.2169 109.002 66.333 109.002 65.4119C109.002 64.4899 109.37 63.606 110.023 62.9564V62.9573ZM40.1618 75.9369C36.9138 75.9331 34.2811 73.3004 34.2773 70.0524V68.2637C34.6859 68.3084 35.0974 68.3313 35.5079 68.3322C36.3166 68.3322 36.9709 67.6769 36.9709 66.8692C36.9709 66.0606 36.3166 65.4062 35.5079 65.4062C32.5199 65.4224 29.752 63.8374 28.2528 61.2524C26.7545 58.6664 26.7545 55.4774 28.2528 52.8914C29.752 50.3064 32.5199 48.7214 35.5079 48.7376C36.3166 48.7376 36.9709 48.0833 36.9709 47.2746C36.9709 46.4669 36.3166 45.8116 35.5079 45.8116C33.7705 45.8106 32.057 46.2135 30.5026 46.9898C29.1233 45.8849 28.3566 44.1876 28.4366 42.4226C28.5176 40.6576 29.4367 39.0375 30.9112 38.064C31.0417 37.9764 31.176 37.8973 31.3122 37.8221C31.3388 37.8707 31.3607 37.9192 31.3893 37.9669C31.7941 38.666 32.6895 38.9051 33.3886 38.5002C34.0877 38.0954 34.3268 37.201 33.922 36.501C31.9513 33.0834 32.6457 28.7525 35.5869 26.1226C38.5282 23.4928 42.9106 23.2861 46.0872 25.6264C46.7368 26.1064 47.6531 25.9683 48.1331 25.3187C48.6132 24.6682 48.4751 23.7528 47.8255 23.2728C47.5778 23.0899 47.3245 22.9175 47.0654 22.7575C46.1596 21.044 46.4082 18.9494 47.6893 17.4959C48.9713 16.0424 51.0192 15.5348 52.8318 16.2196C54.6444 16.9054 55.8436 18.6408 55.8436 20.5791V41.8483C45.7186 43.8409 38.4168 52.7171 38.4149 63.0364C38.4197 67.5017 39.8055 71.8555 42.383 75.5026C41.6781 75.7902 40.9237 75.9379 40.1618 75.9369ZM65.96 100.009H54.0414C53.1909 100.008 52.4841 99.3558 52.4146 98.5081H60.6022C61.4099 98.5081 62.0652 97.8537 62.0652 97.0451C62.0652 96.2374 61.4099 95.582 60.6022 95.582H52.4089V94.0809H54.5044C55.313 94.0809 55.9674 93.4266 55.9674 92.6179C55.9674 91.8102 55.313 91.1549 54.5044 91.1549H52.4089V89.7947H67.5944V91.1558H60.1469C59.3392 91.1558 58.6839 91.8102 58.6839 92.6188C58.6839 93.4266 59.3392 94.0819 60.1469 94.0819H67.5935V95.583H65.758C64.9494 95.583 64.295 96.2374 64.295 97.046C64.295 97.8537 64.9494 98.509 65.758 98.509H67.5868C67.5173 99.3558 66.8105 100.008 65.96 100.009ZM61.1146 58.9178C60.5374 59.495 59.6011 59.495 59.0239 58.9178C58.4467 58.3406 58.4467 57.4043 59.0239 56.8271C59.6011 56.249 60.5374 56.249 61.1146 56.8262C61.6909 57.4043 61.6909 58.3397 61.1146 58.9178ZM72.7188 76.6913C69.8499 79.3545 68.0535 82.973 67.6668 86.8677H65.3104V77.6057C65.3113 76.7589 65.9971 76.0731 66.8439 76.0712C69.3061 76.0684 71.3006 74.0739 71.3034 71.6117V71.4297C73.3379 70.7163 74.5619 68.6399 74.2 66.5149C73.838 64.3899 71.9968 62.8345 69.8404 62.8345C67.6849 62.8345 65.8428 64.3899 65.4809 66.5149C65.1199 68.6399 66.3429 70.7163 68.3774 71.4297V71.6117C68.3764 72.4584 67.6906 73.1442 66.8439 73.1461C64.3817 73.149 62.3872 75.1435 62.3843 77.6057V86.8687H61.5309V62.021C62.1519 61.8048 62.7167 61.4515 63.1825 60.9866C64.5817 59.5979 64.8913 57.45 63.9426 55.7222C62.9939 53.9944 61.0156 53.1029 59.0935 53.5382C57.1704 53.9725 55.7674 55.6279 55.654 57.5958C55.5407 59.5636 56.7446 61.3686 58.6048 62.021V86.8687H57.7514V77.6057C57.7485 75.1435 55.7531 73.148 53.2909 73.1452C52.4451 73.1442 51.7593 72.4584 51.7574 71.6117V71.4297C52.3793 71.2135 52.9442 70.8602 53.4099 70.3953C54.8082 69.0066 55.1187 66.8587 54.17 65.1309C53.2213 63.4031 51.243 62.5116 49.32 62.9459C47.3978 63.3812 45.9948 65.0357 45.8815 67.0045C45.7681 68.9723 46.9711 70.7773 48.8313 71.4297V71.6117C48.8342 74.0739 50.8296 76.0684 53.2909 76.0712C54.1376 76.0731 54.8234 76.7589 54.8253 77.6057V86.8687H52.3365C51.9898 83.0092 50.2248 79.4154 47.3816 76.7837C41.7143 71.5812 39.8198 63.4336 42.6116 56.2651C45.4033 49.0967 52.3079 44.3752 60.0012 44.3762H60.1764C67.3896 44.4428 73.919 48.6624 76.9441 55.2107C79.9682 61.7601 78.9481 69.4657 74.3219 75.0016C73.8228 75.5978 73.2875 76.1617 72.7188 76.6913ZM70.8862 68.3265C70.309 68.9037 69.3727 68.9037 68.7955 68.3265C68.2183 67.7484 68.2183 66.8121 68.7955 66.2349C69.3727 65.6577 70.309 65.6577 70.8862 66.2349C71.4625 66.813 71.4625 67.7484 70.8862 68.3265ZM51.343 68.3265C50.7649 68.9037 49.8295 68.9037 49.2523 68.3256C48.6751 67.7484 48.6751 66.8121 49.2523 66.2349C49.8295 65.6577 50.7649 65.6577 51.343 66.2349C51.9193 66.813 51.9193 67.7484 51.343 68.3265ZM84.4935 45.8116C83.6848 45.8116 83.0305 46.4659 83.0305 47.2746C83.0305 48.0823 83.6848 48.7376 84.4935 48.7376C87.4815 48.7214 90.2494 50.3064 91.7486 52.8914C93.2469 55.4765 93.2469 58.6664 91.7486 61.2514C90.2494 63.8365 87.4815 65.4214 84.4935 65.4052C83.6848 65.4052 83.0305 66.0606 83.0305 66.8683C83.0305 67.676 83.6848 68.3313 84.4935 68.3313C84.905 68.3313 85.3165 68.3084 85.726 68.2637V70.0534C85.7251 72.0117 84.7507 73.8424 83.1248 74.9359C81.4989 76.0293 79.4358 76.2417 77.6213 75.5035C81.8399 69.5248 82.7447 61.8172 80.0263 55.0241C77.3079 48.2309 71.3358 43.2751 64.1578 41.8559V20.5772C64.1578 18.6389 65.357 16.9035 67.1696 16.2177C68.9822 15.5319 71.031 16.0405 72.3131 17.494C73.5951 18.9475 73.8428 21.043 72.936 22.7556C72.6769 22.9166 72.4236 23.088 72.1759 23.2709C71.5263 23.7509 71.3882 24.6672 71.8682 25.3168C72.3483 25.9674 73.2646 26.1055 73.9142 25.6254C77.0908 23.2852 81.4722 23.4928 84.4135 26.1217C87.3548 28.7515 88.0501 33.0825 86.0794 36.5C85.6746 37.1991 85.9137 38.0945 86.6128 38.4993C87.3129 38.9041 88.2073 38.665 88.6121 37.9659C88.6397 37.9183 88.6626 37.8678 88.6892 37.8211C88.8264 37.8954 88.9607 37.9754 89.0912 38.0621C90.5647 39.0365 91.4838 40.6567 91.5648 42.4216C91.6448 44.1866 90.8781 45.883 89.4988 46.9879C87.9444 46.2126 86.2309 45.8097 84.4935 45.8116Z" fill="#00F1B7"/>
</g>
<defs>
<clipPath id="clip0">
<rect width="120" height="120" fill="white"/>
</clipPath>
</defs>
</svg>
