<svg width="100" height="100" viewBox="0 0 100 100" fill="none" xmlns="http://www.w3.org/2000/svg">
<g clip-path="url(#clip0)">
<path d="M72.9712 49.9999L96.5498 26.4213C98.7745 24.1966 99.9998 21.2387 99.9998 18.0893C99.9998 13.2576 98.1184 8.71504 94.7012 5.2986C91.2848 1.8814 86.7422 9.31321e-08 81.9075 9.31321e-08C78.7611 9.31321e-08 75.8032 1.22528 73.5785 3.45001L49.9999 27.0286L23.8296 0.858305C22.686 -0.286102 20.8305 -0.286102 19.6861 0.858305L0.858305 19.6861C0.30899 20.2354 0 20.9808 0 21.7575C0 22.5349 0.30899 23.2795 0.858305 23.8296L27.0286 49.9999L7.13423 69.8943C6.75887 70.2696 6.4926 70.7404 6.36367 71.2553L0.0877379 96.3598C-0.161743 97.3577 0.130462 98.4144 0.858305 99.1415C1.41449 99.6977 2.16293 99.9998 2.92968 99.9998C3.16619 99.9998 3.40499 99.9708 3.63998 99.9121L28.7444 93.6361C29.2594 93.5072 29.7302 93.2409 30.1055 92.8656L49.9999 72.9712L76.1702 99.1415C76.7424 99.7137 77.4924 99.9998 78.2416 99.9998C78.9915 99.9998 79.7415 99.7137 80.3137 99.1415L99.1415 80.3137C99.6908 79.7644 99.9998 79.019 99.9998 78.2423C99.9998 77.4649 99.6908 76.7203 99.1415 76.171L72.9712 49.9999ZM25.901 40.586L30.1055 36.3815C31.2499 35.2371 31.2499 33.3824 30.1055 32.2387C28.9619 31.0943 27.1064 31.0943 25.962 32.2387L21.7582 36.4433L16.4871 31.1721L23.8296 23.8296C24.974 22.6852 24.974 20.8305 23.8296 19.6861C22.686 18.5424 20.8305 18.5424 19.6861 19.6861L12.3436 27.0286L7.0732 21.7575L21.7582 7.0732L45.8571 31.1721L31.1721 45.8571L25.901 40.586ZM52.0713 33.2435H52.072L77.722 7.59352C78.8397 6.47505 80.3267 5.85936 81.9105 5.85936C84.1772 5.85936 86.3486 6.47277 88.2376 7.61946L22.3724 73.4847C20.301 71.9054 17.9405 70.6893 15.3839 69.9317L52.0713 33.2435ZM6.95647 93.0433L8.26033 87.8287C10.0754 88.4825 11.5165 89.9237 12.1704 91.7402L6.95647 93.0433ZM17.8703 90.3151C16.6725 86.4119 13.5879 83.3273 9.68473 82.1295L11.4525 75.0578C18.4242 76.0481 23.9517 81.5756 24.9427 88.5473L17.8703 90.3151ZM30.0689 84.6159C29.3105 82.0593 28.0944 79.6988 26.5151 77.6274L92.3811 11.7622C93.527 13.652 94.1404 15.8241 94.1404 18.0923C94.1404 19.6739 93.5247 21.1601 92.407 22.2778L30.0689 84.6159ZM78.2423 92.9266L72.9712 87.6562L80.3137 80.3137C81.4581 79.1693 81.4581 77.3146 80.3137 76.1702C79.1693 75.0266 77.3146 75.0266 76.1702 76.1702L68.8284 83.5127L63.5573 78.2423L67.7619 74.0378C68.9055 72.8934 68.9055 71.0387 67.7619 69.8943C66.6175 68.7506 64.7627 68.7506 63.6183 69.8943L59.4138 74.0988L54.1434 68.8277L61.4859 61.4859C61.4859 61.4852 61.4859 61.4852 61.4867 61.4844L68.8284 54.1434L92.9274 78.2423L78.2423 92.9266Z" fill="#00F1B7"/>
</g>
<defs>
<clipPath id="clip0">
<rect width="100" height="100" fill="white"/>
</clipPath>
</defs>
</svg>
